<?xml version="1.0" standalone="no"?>
<!DOCTYPE svg PUBLIC "-//W3C//DTD SVG 20010904//EN"
 "http://www.w3.org/TR/2001/REC-SVG-20010904/DTD/svg10.dtd">
<svg version="1.0" xmlns="http://www.w3.org/2000/svg"
 width="512.000000pt" height="512.000000pt" viewBox="0 0 512.000000 512.000000"
 preserveAspectRatio="xMidYMid meet">
<metadata>
Created by potrace 1.14, written by Peter Selinger 2001-2017
</metadata>
<g transform="translate(0.000000,512.000000) scale(0.100000,-0.100000)"
fill="#000000" stroke="none">
<path d="M478 5115 c-3 -3 -18 -7 -34 -9 -147 -20 -325 -161 -395 -314 -51
-113 -49 3 -49 -2227 0 -2271 -4 -2128 56 -2250 53 -107 168 -218 272 -263
126 -54 11 -52 2237 -51 l2060 0 77 23 c196 58 343 210 395 409 14 56 16 257
17 2097 1 1119 -2 2061 -6 2092 -28 216 -180 400 -387 471 l-66 22 -2086 3
c-1147 1 -2088 0 -2091 -3z"/>
</g>
</svg>
