<?xml version="1.0" encoding="UTF-8"?>
<svg class="h-6 w-6" version="1.1" viewBox="-50 -100 700 700" xmlns="http://www.w3.org/2000/svg" xmlns:xlink="http://www.w3.org/1999/xlink">
 <g>
  <path d="m568.96 28c-13.441 0-334.88 5.6016-427.84 163.52-37.52 63.281-32.48 141.12 14 231.84-21.281 59.922-27.441 102.48-27.441 104.72l25.199 3.3594c0-0.55859 5.0391-35.84 22.398-87.359 20.719 12.879 66.078 36.398 121.52 36.398 21.84 0 44.801-3.9219 68.32-13.441 106.4-43.121 179.2-185.92 216.72-425.04l2.2422-13.996zm-406 176.4c55.438-94.078 207.2-129.36 309.12-142.8-139.44 62.719-221.76 169.12-268.8 254.24-14.559 26.32-26.32 51.52-35.84 75.039-32.477-73.359-34.719-136.08-4.4766-186.48zm192.64 239.68c-77.84 31.922-152.88-11.758-171.92-24.078 10.641-28.559 24.078-59.922 42.559-92.961 75.039-136.64 185.36-226.8 327.6-268.8-36.961 215.04-105.28 348.32-198.24 385.84z"/>
  <use x="70" y="644" />
  <use x="90.550781" y="644" />
  <use x="104.359375" y="644" />
  <use x="123.347656" y="644" />
  <use x="142.242188" y="644" />
  <use x="155.628906" y="644" />
  <use x="174.617188" y="644" />
  <use x="204.410156" y="644" />
  <use x="224.453125" y="644" />
  <use x="252.453125" y="644" />
  <use x="275.1875" y="644" />
  <use x="298.621094" y="644" />
  <use x="308.21875" y="644" />
  <use x="328.765625" y="644" />
  <use x="352.570312" y="644" />
  <use x="374.132812" y="644" />
  <use x="70" y="672" />
  <use x="82.183594" y="672" />
  <use x="95.992188" y="672" />
  <use x="115.226562" y="672" />
  <use x="154.152344" y="672" />
  <use x="167.535156" y="672" />
  <use x="187.46875" y="672" />
  <use x="216.207031" y="672" />
  <use x="239.640625" y="672" />
  <use x="258.878906" y="672" />
  <use x="278.8125" y="672" />
  <use x="308.492188" y="672" />
  <use x="329.015625" y="672" />
  <use x="342.820312" y="672" />
  <use x="362.058594" y="672" />
  <use x="371.65625" y="672" />
  <use x="390.648438" y="672" />
  <use x="407.242188" y="672" />
 </g>
</svg>
