<?xml version="1.0" encoding="UTF-8"?>
<svg class="h-6 w-6" version="1.1" viewBox="100 0 500 500" xmlns="http://www.w3.org/2000/svg" xmlns:xlink="http://www.w3.org/1999/xlink">
 <g>
  <path d="m511.84 458.08h-305.2c-8.3984 0-15.68-4.4805-20.16-11.199s-5.0391-15.68-1.1211-22.961l152.32-305.2c3.9219-8.3984 12.32-13.441 21.281-13.441 8.9609 0 17.359 5.0391 21.281 13.441l152.32 305.2c3.9219 7.2812 3.3594 16.238-1.1211 22.961-4.4805 6.7227-11.203 11.199-19.602 11.199zm-152.32-341.6c-5.0391 0-8.9609 2.8008-11.199 6.7188l-152.88 305.2c-2.2383 3.9219-1.6797 8.3984 0.55859 12.32s6.1602 6.1602 10.641 6.1602h305.2c4.4805 0 8.3984-2.2383 10.641-6.1602 2.2383-3.9219 2.8008-8.3984 0.55859-12.32l-152.32-304.64c-2.2383-4.4805-6.7188-7.2812-11.199-7.2812zm-19.039 262.08v18.48c0 5.6016 4.4805 10.078 10.078 10.078h17.922c5.6016 0 10.078-4.4805 10.078-10.078v-18.48c0-5.6016-4.4805-10.078-10.078-10.078h-17.922c-5.5977 0-10.078 4.4805-10.078 10.078zm25.758-154h-14.559c-5.6016 0-10.078 4.4805-9.5195 10.078l4.4805 106.4c0 5.0391 4.4805 8.9609 9.5195 8.9609h6.1602c5.0391 0 9.5195-3.9219 9.5195-9.5195l4.4805-106.4c0-4.4766-4.4805-9.5195-10.082-9.5195z"/>
  <use x="70" y="644" />
  <use x="90.550781" y="644" />
  <use x="104.359375" y="644" />
  <use x="123.347656" y="644" />
  <use x="142.242188" y="644" />
  <use x="155.628906" y="644" />
  <use x="174.617188" y="644" />
  <use x="204.410156" y="644" />
  <use x="224.453125" y="644" />
  <use x="252.453125" y="644" />
  <use x="271.550781" y="644" />
  <use x="290.539062" y="644" />
  <use x="304.351562" y="644" />
  <use x="323.339844" y="644" />
  <use x="339.636719" y="644" />
  <use x="368.28125" y="644" />
  <use x="396.140625" y="644" />
  <use x="415.378906" y="644" />
  <use x="429.1875" y="644" />
  <use x="448.082031" y="644" />
  <use x="466.335937" y="644" />
  <use x="482.929687" y="644" />
  <use x="502.167969" y="644" />
  <use x="520.421875" y="644" />
  <use x="70" y="672" />
  <use x="82.183594" y="672" />
  <use x="95.992188" y="672" />
  <use x="115.226562" y="672" />
  <use x="154.152344" y="672" />
  <use x="167.535156" y="672" />
  <use x="187.46875" y="672" />
  <use x="216.207031" y="672" />
  <use x="239.640625" y="672" />
  <use x="258.878906" y="672" />
  <use x="278.8125" y="672" />
  <use x="308.492188" y="672" />
  <use x="329.015625" y="672" />
  <use x="342.820312" y="672" />
  <use x="362.058594" y="672" />
  <use x="371.65625" y="672" />
  <use x="390.648438" y="672" />
  <use x="407.242188" y="672" />
 </g>
</svg>
