<?xml version="1.0" encoding="UTF-8"?>
<svg class="h-6 w-6" version="1.1" viewBox="50 0 550 550" xmlns="http://www.w3.org/2000/svg">
 <path d="m510.07 184.33c-1.3438-2.5234-3.9844-4.0859-6.8438-4.043h-114.02l54.133-158.36c0.32031-2.2969-0.35938-4.6172-1.8672-6.3789-1.4844-2.0391-3.8516-3.2539-6.375-3.2656h-158.82c-3.4141-0.019531-6.4414 2.1875-7.4648 5.4453l-79.488 259.93c-0.79688 2.3906-0.32812 5.0234 1.2422 7 1.4844 1.9375 3.7812 3.0859 6.2227 3.1094h104.22l-44.332 251.38c-0.69141 3.6445 1.3438 7.2578 4.8203 8.5547 0.97266 0.23047 1.9844 0.23047 2.957 0 2.5664 0.007812 4.9609-1.2812 6.375-3.4219l238.93-351.87c1.5781-2.4375 1.6953-5.5391 0.3125-8.0898zm-231.31 321.85 39.199-224.78 0.003906-0.003906c0.32422-2.2695-0.29688-4.5742-1.7109-6.375-1.5-1.7109-3.6406-2.7227-5.9141-2.8008h-103.13l74.824-245h142.33l-53.355 158.36c-0.79688 2.3633-0.41406 4.9688 1.0352 7 1.4453 2.0312 3.7812 3.2461 6.2773 3.2656h110.29z"/>
</svg>
