<svg xmlns="http://www.w3.org/2000/svg" class="h-6 w-6" fill="none" aria-hidden="true" viewBox="0 0 24 24"
   stroke-width="1.5" stroke="currentColor" stroke-linecap="round" stroke-linejoin="round">
	<path d="M3 3V21H21"/>
	<path d="M18.9568 4.03413L14 8.88387L10 7.69904L7 10.699"/>
	<path d="M18.4 15.9862C19.5046 15.9862 20.4 15.0908 20.4 13.9862C20.4 12.8816 19.5046 11.9862 18.4 11.9862C17.2955 11.9862 16.4 12.8816 16.4 13.9862C16.4 15.0908 17.2955 15.9862 18.4 15.9862Z"/>
	<path d="M18.4 10.9862V11.9862"/>
	<path d="M18.4 15.9862V16.9862"/>
	<path d="M21 12.4862L20.13 12.9862"/>
	<path d="M16.67 14.9862L15.8 15.4862"/>
	<path d="M21 15.4862L20.13 14.9862"/>
	<path d="M16.67 12.9862L15.8 12.4862"/>
</svg>
