<?xml version="1.0" encoding="UTF-8"?>
<svg class="h-6 w-6" version="1.1" viewBox="50 0 600 600" xmlns="http://www.w3.org/2000/svg">
 <g>
  <path d="m350 126.32c-54.879 0-99.523 44.641-99.523 99.504 0 54.863 44.641 99.504 99.523 99.504 54.863 0 99.504-44.641 99.504-99.504 0-54.863-44.641-99.504-99.504-99.504zm0 172.39c-40.215 0-72.906-32.707-72.906-72.906 0-40.195 32.691-72.902 72.906-72.902 40.199 0 72.887 32.707 72.887 72.906 0 40.195-32.688 72.902-72.887 72.902z"/>
  <path d="m350 22.785c-110.79 0-200.9 90.125-200.9 200.9 0 107.7 183.47 301.23 191.29 309.43 2.5195 2.625 5.9844 4.0938 9.625 4.0938s7.1055-1.4688 9.625-4.0938c7.8047-8.207 191.29-201.72 191.29-309.43-0.039062-110.77-90.145-200.9-200.94-200.9zm0 481.58c-37.852-41.422-174.3-196.56-174.3-280.68 0-96.109 78.191-174.32 174.3-174.32s174.3 78.207 174.3 174.32c0 84.09-136.45 239.26-174.3 280.68z"/>
 </g>
</svg>
