<?xml version="1.0" encoding="UTF-8"?>
<svg class="h-6 w-6" version="1.1" viewBox="100 25 500 500" xmlns="http://www.w3.org/2000/svg" xmlns:xlink="http://www.w3.org/1999/xlink">
 <g>
  <path d="m418.77 134.4c13.953 0 25.199 11.824 25.199 26.074v1.2266h59.852c7.7734 0 14.18 4.9492 20.125 11.375 5.9453 6.4258 11.543 14.934 16.977 24.148 10.863 18.43 20.715 39.969 27.301 53.375 0.14063 0.28125 0.25781 0.57422 0.35156 0.875h9.625c10.09 0 18.199 8.4336 18.199 18.551v90.824c0 10.117-7.9844 18.898-18.199 18.898h-43.926c-2.7148 25.633-23.977 45.852-50.051 45.852-26.074 0-47.336-20.219-50.051-45.852h-162.05c-2.7422 25.652-24.152 45.852-50.227 45.852-25.891 0-47.312-20.195-50.051-45.852h-43.051c-14.031 0-25.199-11.992-25.199-26.074v-193.2c0-14.254 11.25-26.074 25.199-26.074zm0 11.199h-289.98c-7.7227 0-14 6.4102-14 14.875v193.2c0 8.1719 6.3555 14.875 14 14.875h43.051c2.6602-25.738 24.102-46.199 50.051-46.199 26.156 0 47.383 20.438 50.051 46.199h160.82v-208.07c0-8.4648-6.2773-14.875-14-14.875zm85.051 27.301h-59.852v78.574h112.18c-6.6133-13.652-15.312-32.297-24.852-48.477-5.207-8.8359-10.562-16.809-15.574-22.227-5.0117-5.4141-9.5117-7.875-11.898-7.875zm74.375 89.773h-134.23v80.5c9.1484-12.57 23.703-20.824 40.25-20.824 27.117 0.71875 48.051 17.234 49.875 46.199h44.102c3.7852 0 7-3.4492 7-7.6992v-90.824c0-4.2539-3.0898-7.3516-7-7.3516zm-93.977 70.875c-21.734 0-39.199 18.012-39.199 40.602 0 22.328 17.465 40.25 39.199 40.25s39.023-17.922 39.023-40.25c-1.5742-26.969-18.695-40.371-39.023-40.602zm-262.32 0c-21.816-0.40234-38.656 21.98-39.199 40.602 0 22.297 17.719 40.25 39.199 40.25 21.734 0 39.199-17.953 39.199-40.25 0.625-25.887-20.055-40.023-39.199-40.602z" fill-rule="evenodd"/>
  <use x="70" y="644" />
  <use x="90.550781" y="644" />
  <use x="104.359375" y="644" />
  <use x="123.347656" y="644" />
  <use x="142.242188" y="644" />
  <use x="155.628906" y="644" />
  <use x="174.617188" y="644" />
  <use x="204.410156" y="644" />
  <use x="224.453125" y="644" />
  <use x="252.453125" y="644" />
  <use x="274.011719" y="644" />
  <use x="293.25" y="644" />
  <use x="311.5" y="644" />
  <use x="329.75" y="644" />
  <use x="348.648438" y="644" />
  <use x="378.328125" y="644" />
  <use x="399.890625" y="644" />
  <use x="418.78125" y="644" />
  <use x="435.078125" y="644" />
  <use x="453.703125" y="644" />
  <use x="70" y="672" />
  <use x="82.183594" y="672" />
  <use x="95.992188" y="672" />
  <use x="115.226562" y="672" />
  <use x="154.152344" y="672" />
  <use x="167.535156" y="672" />
  <use x="187.46875" y="672" />
  <use x="216.207031" y="672" />
  <use x="239.640625" y="672" />
  <use x="258.878906" y="672" />
  <use x="278.8125" y="672" />
  <use x="308.492188" y="672" />
  <use x="329.015625" y="672" />
  <use x="342.820312" y="672" />
  <use x="362.058594" y="672" />
  <use x="371.65625" y="672" />
  <use x="390.648438" y="672" />
  <use x="407.242188" y="672" />
 </g>
</svg>
