<?xml version="1.0" encoding="UTF-8"?>
<svg class="h-6 w-6" version="1.1" viewBox="175 100 350 350" xmlns="http://www.w3.org/2000/svg" xmlns:xlink="http://www.w3.org/1999/xlink">
 <g>
  <path d="m254.98 204.46 56.152 32.418v0.003907c1.0312 0.59375 2.2578 0.75781 3.4102 0.44922 1.1523-0.30859 2.1328-1.0625 2.7305-2.0938l32.727-56.684 23.023 39.879-15.754 9.0938c-1.7266 0.99609-2.5898 3.0117-2.1211 4.9492s2.1602 3.3359 4.1523 3.4336l65.473 3.1992c0.074218 0.003907 0.14844 0.003907 0.21875 0.003907 1.6875 0 3.2305-0.94141 4-2.4414l29.965-58.301c0.91016-1.7734 0.54688-3.9336-0.89844-5.3086-1.4453-1.375-3.6211-1.6367-5.3477-0.63672l-15.75 9.0938-13.793-23.895h-0.003907c-7.7852-13.434-22.129-21.715-37.656-21.742h-71.02c-15.527 0.027343-29.871 8.3086-37.656 21.742l-23.496 40.699c-0.59375 1.0312-0.75781 2.2578-0.44922 3.4102 0.30859 1.1523 1.0625 2.1328 2.0938 2.7266zm130.52-59.59 0.003906 0.003906c12.316 0.019532 23.695 6.5859 29.871 17.246l16.043 27.785c0.59375 1.0312 1.5781 1.7852 2.7266 2.0938 1.1523 0.30859 2.3789 0.14844 3.4141-0.44922l6.418-3.7031-21.66 42.141-47.324-2.3125 6.418-3.7031-0.003906-0.003906c1.0312-0.59375 1.7852-1.5742 2.0938-2.7266s0.14844-2.3789-0.44922-3.4102l-28.945-50.137v-0.003907c-0.12891-0.28906-0.28516-0.56641-0.47266-0.82031-0.29688-0.51172-0.58984-1.0039-0.88281-1.5078-0.30859-0.52344-0.61719-1.0586-0.92188-1.5742-0.32031-0.53906-0.64062-1.0625-0.95703-1.5898-0.33203-0.55078-0.66406-1.1055-0.99609-1.6445-0.30469-0.49609-0.61328-0.97656-0.92188-1.4609-0.33984-0.53906-0.68359-1.0859-1.0234-1.6133-0.30469-0.46875-0.61328-0.91797-0.92188-1.375-0.34375-0.51562-0.69141-1.0352-1.0391-1.5352-0.3125-0.44531-0.625-0.86719-0.94141-1.3008-0.35156-0.48438-0.69922-0.97266-1.0508-1.4375-0.32031-0.41797-0.64453-0.81641-0.96875-1.2227-0.35938-0.44922-0.71484-0.90625-1.0781-1.3398-0.32812-0.39063-0.66797-0.75781-1.0039-1.1367-0.36719-0.41406-0.73438-0.83594-1.1094-1.2344-0.34375-0.36328-0.69922-0.69922-1.0508-1.0469-0.32812-0.32422-0.64453-0.66406-0.97656-0.97656zm-100.89 17.246v0.003906c6.1758-10.66 17.555-17.227 29.875-17.246 13.273 0 20.09 7.3164 30.312 24.699l-33.07 57.273-48.363-27.922zm-39.871 217.56 0.003906 0.007812c7.7852 13.438 22.129 21.715 37.656 21.742h46.996c1.1914 0 2.3359-0.47266 3.1758-1.3164 0.84375-0.84375 1.3164-1.9883 1.3164-3.1797v-64.836c0-1.1914-0.47266-2.3359-1.3164-3.1797-0.83984-0.84375-1.9844-1.3164-3.1758-1.3164h-65.453l23.023-39.879 15.75 9.0938h0.003906c0.67969 0.39453 1.457 0.60547 2.2461 0.60156h0.035156c1.6641 0 3.1914-0.91797 3.9727-2.3867 0.77734-1.4688 0.68359-3.25-0.25-4.625l-29.727-57.836v-0.003906c-0.80859-1.5625-2.457-2.5156-4.2188-2.4336l-65.473 3.1992c-1.9922 0.097657-3.6797 1.4961-4.1484 3.4336s0.39453 3.9531 2.1211 4.9492l15.75 9.0938-13.797 23.895h0.003907c-7.7422 13.461-7.7422 30.023 0 43.484l35.492 61.477zm80.16-43.086v55.848l-42.5-0.003906c-12.316-0.019531-23.695-6.5859-29.871-17.246-6.6367-11.496-3.707-21.055 6.2344-38.602zm-81.039 9.4414c-0.19531 0.46094-0.36328 0.91406-0.54688 1.375-0.22266 0.5625-0.46094 1.1289-0.66406 1.6914-0.16797 0.45703-0.30469 0.90625-0.45703 1.3594-0.1875 0.55859-0.38672 1.1172-0.55469 1.6719-0.13281 0.44922-0.23828 0.89063-0.35547 1.3398-0.13672 0.51172-0.29297 1.0273-0.41016 1.5391l-23.852-41.32c-6.1406-10.676-6.1406-23.816 0-34.492l16.043-27.785c0.59766-1.0352 0.75781-2.2617 0.44922-3.4141-0.30859-1.1484-1.0625-2.1328-2.0938-2.7266l-6.418-3.7031 47.324-2.3125 21.66 42.137-6.418-3.7031c-1.0312-0.59766-2.2578-0.76172-3.4102-0.45312-1.1523 0.30859-2.1328 1.0625-2.7305 2.0977l-29.164 50.516c-0.65625 1.1406-1.3008 2.2656-1.9258 3.375-0.28125 0.49609-0.54297 0.98438-0.81641 1.4727-0.33984 0.61328-0.6875 1.2305-1.0117 1.832-0.25391 0.46484-0.48438 0.92188-0.73047 1.3828-0.32422 0.61719-0.66016 1.2383-0.97266 1.8438-0.23828 0.46484-0.45312 0.92188-0.67969 1.3789-0.29297 0.59766-0.59766 1.1953-0.875 1.7852-0.21875 0.46094-0.41016 0.91797-0.61719 1.375-0.25781 0.58203-0.52734 1.1641-0.77344 1.7383zm159.46-75.117 32.727 56.684h-46.047v-18.188c0-1.9961-1.3125-3.75-3.2266-4.3125-1.9141-0.56641-3.9688 0.19922-5.0469 1.875l-35.508 55.102c-0.95703 1.4844-0.95703 3.3867 0 4.8711l35.508 55.102c1.0781 1.6758 3.1328 2.4414 5.0469 1.8789 1.9141-0.5625 3.2266-2.3203 3.2266-4.3125v-18.188h27.59c15.527-0.027344 29.871-8.3086 37.656-21.742l35.508-61.5 0.003907-0.003906-0.003907-0.003906c7.7422-13.457 7.7422-30.02 0-43.477l-23.496-40.699c-0.59766-1.0312-1.5781-1.7852-2.7305-2.0938s-2.3789-0.14844-3.4102 0.44922l-56.152 32.418c-1.0312 0.59766-1.7852 1.5781-2.0938 2.7305-0.30859 1.1523-0.14844 2.3789 0.44922 3.4102zm44.141 104.27c-6.1758 10.656-17.555 17.227-29.871 17.246h-32.086c-1.1914 0-2.3359 0.47266-3.1797 1.3164s-1.3164 1.9883-1.3164 3.1797v7.4102l-25.664-39.828 25.664-39.828v7.4102c0 1.1914 0.47266 2.3359 1.3164 3.1758 0.84375 0.84375 1.9883 1.3164 3.1797 1.3164h58.328c1.3203 0 2.6211-0.007813 3.8984-0.019532 0.38672-0.003906 0.75781-0.015624 1.1406-0.019531 0.88281-0.011719 1.7695-0.027343 2.6328-0.050781 0.46094-0.011719 0.90234-0.035156 1.3555-0.050781 0.76562-0.027344 1.5391-0.050781 2.2891-0.089844 0.48047-0.023437 0.94141-0.0625 1.4141-0.09375 0.70312-0.042969 1.4141-0.085937 2.1016-0.14062 0.49219-0.042969 0.96484-0.10156 1.4531-0.14844 0.64844-0.066406 1.3008-0.12109 1.9336-0.20312 0.48828-0.0625 0.95312-0.14063 1.4336-0.21094 0.60938-0.089844 1.2305-0.16797 1.8281-0.27344 0.47266-0.082031 0.92969-0.1875 1.3906-0.28125 0.57812-0.11719 1.168-0.22266 1.7344-0.35937 0.46484-0.10938 0.91406-0.24609 1.3711-0.37109 0.50391-0.13672 1.0156-0.25391 1.5078-0.40625zm14.258-132.8 21.25 36.805c6.1406 10.68 6.1406 23.816 0 34.496-6.6367 11.496-16.379 13.738-36.547 13.902l-33.066-57.277z"/>
  <use x="70" y="625.625" />
  <use x="86.054688" y="625.625" />
  <use x="96.839844" y="625.625" />
  <use x="111.679687" y="625.625" />
  <use x="126.4375" y="625.625" />
  <use x="136.894531" y="625.625" />
  <use x="151.730469" y="625.625" />
  <use x="175.007812" y="625.625" />
  <use x="190.664062" y="625.625" />
  <use x="212.539062" y="625.625" />
  <use x="230.847656" y="625.625" />
  <use x="245.609375" y="625.625" />
  <use x="261.265625" y="625.625" />
  <use x="268.765625" y="625.625" />
  <use x="283.878906" y="625.625" />
  <use x="300.808594" y="625.625" />
  <use x="313.828125" y="625.625" />
  <use x="328.378906" y="625.625" />
  <use x="70" y="647.5" />
  <use x="79.515625" y="647.5" />
  <use x="90.304688" y="647.5" />
  <use x="105.332031" y="647.5" />
  <use x="135.742188" y="647.5" />
  <use x="146.199219" y="647.5" />
  <use x="161.773438" y="647.5" />
  <use x="184.222656" y="647.5" />
  <use x="202.53125" y="647.5" />
  <use x="217.558594" y="647.5" />
  <use x="233.132812" y="647.5" />
  <use x="256.320312" y="647.5" />
  <use x="272.355469" y="647.5" />
  <use x="283.140625" y="647.5" />
  <use x="298.171875" y="647.5" />
  <use x="305.667969" y="647.5" />
  <use x="320.503906" y="647.5" />
  <use x="333.472656" y="647.5" />
 </g>
</svg>
