<svg width="608" height="483" viewBox="0 0 608 483" fill="none" xmlns="http://www.w3.org/2000/svg">
<path d="M31.878 179.996C126.414 61.678 210.255 -45.3968 372.108 21.7462C533.962 88.8893 576.971 169.325 604.059 316.701C631.148 464.078 453.572 425.362 263.829 474.951C74.0859 524.541 -62.6578 298.314 31.878 179.996Z" stroke="#E3E9F1" stroke-linecap="round"/>
<path d="M47.2718 189.62C125.749 80.9564 207.851 -11.1817 354.927 46.522C502.003 104.226 546.762 181.545 564.67 313.237C582.577 444.929 426.193 421.53 257.015 456.335C87.8366 491.14 -31.2057 298.284 47.2718 189.62Z" stroke="#E3E9F1" stroke-linecap="round"/>
<path d="M68.6685 197.705C137.209 100.158 212.078 18.8639 343.748 69.7584C475.419 120.653 516.802 190.85 531.283 308.233C545.765 425.615 406.911 407.391 256.203 436.179C105.495 464.967 0.12812 295.252 68.6685 197.705Z" stroke="#E3E9F1" stroke-linecap="round"/>
<path d="M92.4584 205.173C153.595 119.348 218.959 47.2039 334.963 92.3779C450.968 137.552 486.853 198.97 500.29 302.612C513.727 406.254 390.89 389.007 257.785 415.407C124.68 441.807 31.3215 290.998 92.4584 205.173Z" stroke="#E3E9F1" stroke-linecap="round"/>
<path d="M117.451 212.333C172.494 138.543 227.176 74.674 327.381 114.69C427.585 154.706 456.876 206.488 470.499 296.684C484.123 386.879 376.52 368.439 260.57 394.327C144.62 420.215 62.4084 286.124 117.451 212.333Z" stroke="#E3E9F1" stroke-linecap="round"/>
<path d="M143.127 219.318C192.848 157.747 236.157 101.636 320.482 136.826C404.807 172.015 426.856 213.656 441.392 290.579C455.928 367.502 363.098 346.588 264.038 373.071C164.978 399.553 93.4066 280.888 143.127 219.318Z" stroke="#E3E9F1" stroke-linecap="round"/>
<path d="M169.237 226.192C214.133 176.959 245.621 128.274 314.016 158.852C382.41 189.429 396.802 220.603 412.718 284.365C428.634 348.127 350.279 323.916 267.939 351.705C185.6 379.494 124.341 275.425 169.237 226.192Z" stroke="#E3E9F1" stroke-linecap="round"/>
</svg>
