<svg width="150" height="41" viewBox="0 0 150 41" fill="none" xmlns="http://www.w3.org/2000/svg">
<path d="M87.4145 1.34308C80.0158 3.15022 75.3135 9.30787 75.3135 17.2057C75.3135 23.0622 77.5824 27.9482 81.5284 30.7258C86.6911 34.3736 95.734 34.474 102.771 30.8931L104.152 30.1904L104.382 23.5977C104.58 18.7452 104.744 16.8376 105.106 16.2687C105.467 15.6998 105.5 15.3651 105.237 14.8632C104.908 14.2273 104.612 14.1938 99.8773 14.2608L94.879 14.3612V15.1978C94.879 15.8337 95.2079 16.2018 96.293 16.8042L97.6741 17.5739V22.9283C97.6741 25.9737 97.5426 28.584 97.3453 28.9521C96.4903 30.5585 92.8403 31.1943 89.6177 30.2573C87.3816 29.6215 84.8825 27.0781 83.9289 24.4678C81.7257 18.5109 82.3505 9.5756 85.2113 6.02825C86.6253 4.28804 88.4668 3.48487 91.0317 3.48487C94.9119 3.48487 96.8191 5.02429 96.6218 8.03618C96.5232 9.67599 96.9836 10.8473 97.7399 10.8473C97.9043 10.8473 99.384 9.70946 100.995 8.30391L103.955 5.76053L102.87 4.79003C98.9566 1.41001 92.7416 0.00445557 87.4145 1.34308Z" fill="#989EA8"/>
<path d="M0.339844 2.2801C0.339844 2.94941 0.635793 3.28407 1.65517 3.81952L2.97051 4.48883V17.3396V30.1569L1.65517 30.5585C0.50426 30.8931 0.339844 31.0605 0.339844 31.9975V33.0015L8.65931 32.8341C17.5049 32.6668 19.1491 32.4326 22.6018 30.7258C24.8708 29.6214 27.6987 26.4757 28.6523 23.9992C29.7375 21.1212 29.9348 15.3651 28.9812 12.2863C27.5014 7.3334 24.5091 4.15417 19.6752 2.41396C17.768 1.74465 16.8472 1.67772 8.98814 1.54386L0.339844 1.41V2.2801ZM15.795 4.68962C17.1432 5.09121 17.9982 5.66012 19.445 7.1326C21.977 9.70945 22.832 12.3867 22.832 17.5404C22.832 23.5976 21.1878 27.2119 17.6693 29.0525C16.0252 29.9226 15.2689 30.09 12.6382 30.1904L9.54716 30.3242V17.2392V4.15417H11.7832C13.0328 4.15417 14.8085 4.38843 15.795 4.68962Z" fill="#989EA8"/>
<path d="M53.1507 12.8217C50.9476 17.44 51.0133 17.8081 55.058 22.2255C56.6035 23.8988 58.1819 26.0072 58.6094 26.9107C59.0369 27.8143 59.4315 28.5505 59.5301 28.5505C59.6288 28.5505 60.3522 27.145 61.1414 25.4048C62.5225 22.4263 62.5882 22.1586 62.2265 20.9873C61.799 19.5818 60.8454 18.2431 57.4585 14.3277C56.2418 12.8887 55.1237 11.2823 54.9593 10.7134C54.6963 9.70944 54.6634 9.7429 53.1507 12.8217Z" fill="#989EA8"/>
<path d="M68.0792 14.7963C66.9283 17.3062 64.3634 22.7276 62.4233 26.8104C58.28 35.5449 58.1156 35.7457 54.5642 35.5114L52.4268 35.3776L51.3745 37.419C50.7826 38.5568 50.3223 39.5608 50.3223 39.6946C50.3223 40.0627 53.3475 40.9663 54.5642 40.9663C57.4579 40.9663 60.8778 38.1887 62.785 34.3401C64.3305 31.1944 73.3734 11.4162 73.2748 11.3828C72.3869 10.9142 70.6441 10.178 70.4468 10.178C70.3153 10.178 69.263 12.2529 68.0792 14.7963Z" fill="#989EA8"/>
<path d="M36.0179 11.8178C31.9404 13.2234 31.3814 13.8592 33.3544 14.6959L34.5382 15.1978V22.828V30.4581L33.3872 31.027C32.6309 31.3952 32.2363 31.8302 32.2363 32.2653C32.2363 32.9011 32.4336 32.9346 37.6621 32.9346H43.0878V32.0979C43.0878 31.4286 42.8247 31.1609 41.7725 30.7258L40.4571 30.1904V24.5013V18.8121L41.5752 17.6743C42.4959 16.7372 42.9563 16.5365 44.0414 16.5365C44.7977 16.5365 45.9158 16.7707 46.5406 17.0384L47.6915 17.507L48.678 15.5325C49.237 14.4281 49.6645 13.3907 49.6645 13.1899C49.6645 12.6879 47.7572 11.5836 45.9487 11.0146C43.8112 10.3788 42.463 10.9142 41.3779 12.8218C40.9504 13.5915 40.5558 14.1939 40.4571 14.1939C40.3585 14.1939 40.3585 13.3572 40.3914 12.3533C40.49 10.9812 40.4243 10.5127 40.0625 10.5461C39.8324 10.5461 38.0238 11.115 36.0179 11.8178Z" fill="#989EA8"/>
<path d="M111.42 11.7843C108.427 12.8218 107.868 13.123 107.868 13.6919C107.868 14.1939 108.197 14.5285 109.019 14.8297L110.17 15.2313L110.104 22.828L110.006 30.4247L108.953 30.9266C108.23 31.2613 107.868 31.6629 107.868 32.1649C107.868 32.9346 107.868 32.9346 113.294 32.9346H118.72V32.1314C118.72 31.4621 118.424 31.1944 117.24 30.7258L115.76 30.1569V25.0032C115.76 19.448 116.056 18.0759 117.437 17.0719C118.391 16.4026 120.364 16.3691 121.909 17.0384C122.567 17.3062 123.126 17.507 123.159 17.4735C123.356 17.2727 125.296 13.1899 125.296 13.0226C125.296 12.5875 121.054 10.7469 119.969 10.7135C118.588 10.68 117.404 11.617 116.385 13.5246L115.793 14.6959L115.76 12.5875C115.76 11.1485 115.629 10.5127 115.366 10.5461C115.135 10.5461 113.36 11.115 111.42 11.7843Z" fill="#989EA8"/>
<path d="M132.761 11.3158C130.262 12.3867 128.717 13.625 127.566 15.499C125.56 18.7117 125.165 21.9579 126.316 25.773C126.875 27.647 127.336 28.3498 128.881 29.9227C131.413 32.4995 133.616 33.3696 137.628 33.3696C141.64 33.3696 143.843 32.4995 146.408 29.9227C147.986 28.3163 148.381 27.647 149.006 25.6056C149.959 22.326 149.762 19.6488 148.348 16.7038C147.164 14.2608 145.652 12.7883 143.054 11.5501C141.541 10.8139 140.686 10.68 137.957 10.5796C135.096 10.5127 134.405 10.6131 132.761 11.3158ZM138.121 13.1899C139.601 13.5915 141.508 15.566 142.363 17.5404C143.251 19.5818 143.843 23.2965 143.613 25.4383C143.35 28.0821 142.528 29.5546 140.949 30.2908C135.984 32.5999 131.709 27.7809 131.709 19.883C131.709 16.2687 132.4 14.6959 134.504 13.5915C136.148 12.7549 136.477 12.7214 138.121 13.1899Z" fill="#989EA8"/>
</svg>
