<svg width="110" height="40" viewBox="0 0 110 40" fill="none" xmlns="http://www.w3.org/2000/svg">
<path d="M10.3579 2.83941C13.5433 0.911807 17.2776 -0.0671092 20.9827 0.0789725C23.9998 0.188114 26.9904 1.02095 29.6413 2.49184C33.2017 4.45751 36.1154 7.59575 37.8626 11.3133C38.9307 13.5672 39.5736 16.0287 39.7419 18.5256C39.8183 19.7731 39.8211 21.0403 39.5455 22.2649C39.1358 24.2272 38.0276 26.0681 36.3695 27.1836C34.636 28.3841 32.4466 28.7429 30.3914 28.4821C28.5793 28.261 26.7804 27.4914 25.5352 26.1028C24.784 25.275 24.2615 24.2479 23.9728 23.1638C23.4261 21.1002 23.5576 18.858 24.3231 16.8689C24.7197 15.8776 25.2834 14.9038 26.1567 14.2746C27.6636 13.2627 29.7579 13.2476 31.2719 14.2539C32.1678 14.8455 32.9053 15.7282 33.2193 16.7782C33.3491 17.2243 33.4217 17.6955 33.3728 18.1606C30.7384 18.1606 28.1036 18.1606 25.4693 18.1606C25.4687 19.4804 25.4687 20.8002 25.4693 22.12C30.0048 22.1194 34.5403 22.1228 39.0759 22.1183C39.1545 19.8968 38.7937 17.6468 37.9633 15.5866C37.1796 13.6405 35.88 11.8914 34.1642 10.7026C32.6265 9.61906 30.7659 9.02802 28.8966 9.00395C26.4812 8.96365 24.0663 9.81328 22.1772 11.3435C21.0107 12.2844 20.0499 13.4961 19.4268 14.8741C17.9287 18.3202 17.9364 22.4446 19.5638 25.8437C20.4316 27.68 21.7801 29.2668 23.4019 30.4556C24.4111 31.2005 25.5215 31.7983 26.6797 32.264C27.7059 32.6804 28.7756 32.9921 29.8706 33.1477C31.6376 33.4108 33.4552 33.2513 35.1645 32.7347C32.3482 36.1293 28.3769 38.5052 24.0938 39.3638C19.4142 40.3242 14.4013 39.441 10.3068 36.9447C6.88989 34.885 4.13678 31.7216 2.51494 28.0349C1.35782 25.4267 0.766059 22.5599 0.802356 19.6981C0.827104 17.0687 1.37982 14.4476 2.4 12.0325C4.00588 8.21198 6.84204 4.94892 10.3579 2.83941ZM9.6298 17.948C8.85105 18.1383 8.20265 18.792 8.01181 19.584C7.76598 20.4974 8.17735 21.5345 8.96489 22.0332C9.5176 22.4032 10.2397 22.4905 10.8645 22.2728C11.3061 22.1211 11.7004 21.8256 11.966 21.4349C12.3395 20.906 12.4698 20.2064 12.3048 19.5761C12.1415 18.9246 11.6746 18.361 11.0729 18.0845C10.6247 17.8763 10.1077 17.8231 9.6298 17.948Z" fill="#989EA8"/>
<path d="M53.2666 9.23234C56.1088 8.61499 59.2282 9.23458 61.5491 11.0424C62.4279 11.7157 63.1379 12.5905 63.7214 13.5342C64.8048 15.3017 65.5396 17.2937 65.8487 19.354C65.9818 20.2735 66.028 21.2088 65.9422 22.1351C61.4385 22.1334 56.9343 22.1357 52.4307 22.134C52.4307 20.8047 52.4301 19.476 52.4307 18.1467C55.0337 18.1461 57.6372 18.1472 60.2401 18.1461C60.3133 16.5107 59.3597 14.9228 57.9765 14.1236C56.7589 13.4071 55.2355 13.3506 53.9211 13.8129C52.9125 14.1689 52.0705 14.9379 51.5579 15.8844C50.838 17.1946 50.6389 18.7293 50.6494 20.2097C50.6615 21.2116 50.7363 22.2202 50.9793 23.1941C51.1889 24.0258 51.5354 24.834 52.0743 25.5006C52.4351 25.9422 52.8668 26.3256 53.3568 26.6133C54.1845 27.1008 55.1233 27.4114 56.083 27.4433C57.2885 27.487 58.5155 27.0034 59.3437 26.1034C59.8744 25.5381 60.2347 24.8211 60.4205 24.0655C62.2629 24.0649 64.1058 24.0655 65.9488 24.0655C65.8542 25.0439 65.4637 25.9623 65.0072 26.8181C64.5007 27.7433 63.8858 28.612 63.1456 29.3586C62.4521 30.0515 61.6063 30.5647 60.7346 30.9912C58.3268 32.1381 55.4918 32.3799 52.951 31.5565C51.8923 31.1994 50.8743 30.708 49.9509 30.07C48.6365 29.1745 47.5316 27.9649 46.7446 26.5685C45.8058 24.909 45.3076 23.0116 45.2053 21.1047C45.1338 19.8403 45.246 18.5631 45.5628 17.3368C46.0924 15.2726 47.0653 13.2874 48.5645 11.7751C49.836 10.4726 51.5029 9.5967 53.2666 9.23234Z" fill="#989EA8"/>
<path d="M95.1222 9.57307C96.2551 9.19135 97.4502 9.03128 98.6403 8.99546C99.9591 8.99434 101.289 8.96859 102.592 9.20814C103.543 9.38669 104.459 9.74713 105.292 10.2453C106.564 11.035 107.576 12.3027 107.967 13.7759C108.201 14.9109 108.292 16.0712 108.371 17.2264C108.478 18.7404 108.436 20.2583 108.444 21.7745C108.438 23.5454 108.458 25.3174 108.43 27.0878C108.458 28.5139 108.51 30.001 109.127 31.3118C107.385 31.3163 105.644 31.3124 103.902 31.3135C103.582 30.7549 103.448 30.1141 103.287 29.4956C101.946 30.7185 100.235 31.4909 98.4665 31.8027C97.2533 32.0086 96.0054 31.9835 94.7961 31.7646C93.7423 31.5687 92.7304 31.1484 91.8461 30.5327C91.0574 30.0055 90.3892 29.2913 89.9245 28.4551C89.3619 27.4488 89.0847 26.2829 89.1122 25.1266C89.1089 24.1561 89.4158 23.2057 89.8789 22.365C90.3458 21.5322 91.0151 20.8258 91.7911 20.2857C92.7898 19.5867 93.942 19.1434 95.1173 18.8669C96.3492 18.5686 97.6196 18.5171 98.8691 18.3318C99.7441 18.2048 100.63 18.0503 101.443 17.6837C101.968 17.4458 102.485 17.077 102.707 16.5173C102.896 16.0119 102.911 15.4342 102.724 14.926C102.459 14.1906 101.802 13.6829 101.109 13.3969C100.108 12.9945 98.9846 12.9218 97.9353 13.1551C97.079 13.3505 96.2661 13.8581 95.8179 14.6406C95.4907 15.1975 95.3559 15.8518 95.3526 16.496C93.6983 16.4954 92.0441 16.4954 90.3898 16.496C90.42 15.4001 90.601 14.2975 91.0173 13.2816C91.3874 12.3732 91.9638 11.5494 92.7051 10.9163C93.4085 10.3046 94.2472 9.87027 95.1222 9.57307ZM101.805 21.1186C100.542 21.5719 99.1969 21.6867 97.9028 22.018C97.1065 22.2201 96.2903 22.4881 95.6623 23.0484C95.2377 23.4223 94.9682 23.945 94.8137 24.4874C94.7114 24.8602 94.6729 25.257 94.7537 25.6387C94.8731 26.2874 95.3092 26.8415 95.8558 27.1807C96.7308 27.7297 97.806 27.8417 98.8097 27.7225C99.8046 27.5954 100.817 27.3352 101.646 26.7385C102.366 26.2264 102.893 25.4115 102.981 24.5126C103.136 23.1385 103.12 21.7505 103.096 20.3702C102.725 20.7128 102.274 20.949 101.805 21.1186Z" fill="#989EA8"/>
<path d="M73.7581 9.5882C75.0934 9.14771 76.5134 9.00667 77.9114 9.07047C79.1048 9.13372 80.2921 9.37215 81.4102 9.80592C82.3039 10.1541 83.1624 10.6192 83.8999 11.2449C84.5109 11.7548 84.9817 12.4197 85.3469 13.1289C85.877 14.1912 86.1679 15.385 86.1289 16.5794C84.5978 16.5794 83.0662 16.5794 81.5351 16.5794C81.4834 15.5669 81.1149 14.5276 80.3505 13.8481C79.6674 13.2346 78.7484 12.9721 77.8542 12.9268C76.8527 12.8686 75.7995 13.0018 74.924 13.5324C74.4219 13.8386 73.9923 14.3098 73.8301 14.8919C73.6024 15.6408 73.9241 16.5229 74.5731 16.9438C74.9625 17.208 75.4123 17.358 75.8606 17.4822C76.6679 17.6983 77.4967 17.8102 78.3194 17.9501C79.4254 18.151 80.5369 18.3296 81.6269 18.6111C82.696 18.8915 83.763 19.2721 84.6666 19.9337C85.3177 20.4089 85.855 21.0475 86.1938 21.7885C87.1694 23.8258 86.9599 26.3221 85.9012 28.2827C85.3738 29.2006 84.6319 29.9893 83.7586 30.5719C82.9853 31.0936 82.1114 31.4456 81.2144 31.6756C80.0441 31.9723 78.8326 32.0635 77.6298 32.0557C76.4056 32.04 75.1731 31.8967 74.0044 31.5128C73.003 31.1881 72.057 30.6861 71.2238 30.0335C70.5254 29.5068 69.9743 28.8033 69.5316 28.0477C68.8551 26.8835 68.4141 25.5525 68.4053 24.1913C70.0189 24.1902 71.6319 24.1925 73.2455 24.1902C73.4336 25.2245 73.7729 26.2986 74.5522 27.0329C75.221 27.6688 76.1372 27.9357 77.027 28.037C78.1006 28.1546 79.2197 28.0365 80.2091 27.5792C80.7299 27.3279 81.2188 26.9535 81.496 26.4285C81.7424 25.9841 81.7836 25.4557 81.7473 24.9559C81.71 24.5064 81.5136 24.0598 81.1633 23.7749C80.7585 23.4385 80.2482 23.2796 79.7515 23.1469C78.3975 22.8117 77.0122 22.6354 75.6527 22.3264C74.4829 22.0628 73.3181 21.7404 72.2259 21.2316C71.4922 20.888 70.7866 20.4469 70.2482 19.8251C69.4227 18.8871 68.9585 17.6496 68.8826 16.3981C68.8122 15.08 69.0795 13.7188 69.7703 12.5904C70.664 11.1173 72.167 10.1255 73.7581 9.5882Z" fill="#989EA8"/>
</svg>
