<svg width="615" height="432" fill="none" xmlns="http://www.w3.org/2000/svg"><g filter="url(#a)"><rect x="38" y="27" width="500" height="313.5" rx="2" fill="#fff"/></g><path d="M59.3 64.5V52.9H61v5h5.8v-5h1.8v11.6h-1.8v-5H61v5h-1.7Zm17.2-3.6v-5.1h1.8v8.7h-1.7V63h-.1c-.2.5-.5.8-1 1.2-.4.3-1 .4-1.6.4a2.6 2.6 0 0 1-2.5-1.5 4 4 0 0 1-.4-1.8v-5.5h1.7V61c0 .6.2 1 .5 1.4.3.4.8.6 1.3.6a2 2 0 0 0 1.7-1c.2-.3.3-.7.3-1.2Zm4 3.6v-8.7h1.7v1.4c.3-.5.6-.9 1-1.1.4-.3.9-.4 1.4-.4.6 0 1.1.1 1.5.4.4.2.7.6.9 1l1-1a3 3 0 0 1 1.7-.4c.8 0 1.4.2 2 .7.4.5.7 1.2.7 2.2v5.9h-1.7v-5.7c0-.6-.2-1-.5-1.3-.3-.2-.7-.4-1.1-.4-.6 0-1 .2-1.3.5-.3.4-.5.8-.5 1.3v5.6h-1.7v-5.8c0-.5-.1-.9-.4-1.1-.3-.3-.7-.5-1.2-.5l-.9.3c-.2.1-.5.4-.6.7-.2.3-.3.6-.3 1v5.4h-1.7Zm14.2 0v-8.7h1.7v8.7h-1.7Zm.8-10a1 1 0 0 1-.7-.4 1 1 0 0 1-.3-.7c0-.3 0-.5.3-.7.2-.2.4-.3.7-.3.3 0 .6.1.8.3.2.2.3.4.3.7 0 .3-.1.5-.3.7a1 1 0 0 1-.8.3Zm6.4 10.2a3.4 3.4 0 0 1-3.2-2.1c-.3-.7-.4-1.5-.4-2.4 0-1 .1-1.8.4-2.5.4-.6.8-1.2 1.4-1.5.5-.4 1.1-.5 1.8-.5.6 0 1 0 1.3.2.4.2.6.4.8.7l.4.6h.1v-4.3h1.7v11.6h-1.6v-1.4h-.2l-.4.7a2.5 2.5 0 0 1-2 .9Zm.4-1.5a2 2 0 0 0 1.2-.4c.4-.2.6-.6.8-1 .2-.5.3-1 .3-1.7 0-.6-.1-1.1-.3-1.6-.2-.4-.4-.8-.8-1a2 2 0 0 0-1.2-.4 2 2 0 0 0-1.3.4l-.8 1-.2 1.6c0 .6 0 1.1.3 1.6.1.5.4.8.7 1.1.4.3.8.4 1.3.4Zm6.4 1.3v-8.7h1.7v8.7h-1.7Zm.8-10a1 1 0 0 1-.7-.4 1 1 0 0 1-.3-.7c0-.3 0-.5.3-.7.2-.2.4-.3.7-.3.3 0 .6.1.8.3.2.2.3.4.3.7 0 .3-.1.5-.3.7a1 1 0 0 1-.8.3Zm7.2 1.3V57H112v-1.3h4.7Zm-3.5-2.1h1.7v8.2c0 .4 0 .6.2.8 0 .1.2.3.4.3l.5.1h.6l.3 1.3-.4.1a3.3 3.3 0 0 1-2-.1c-.3-.2-.7-.4-.9-.8-.2-.3-.4-.8-.4-1.3v-8.6Zm6.5 14a3.6 3.6 0 0 1-1.2-.1l.4-1.4.9.1.6-.3c.2-.1.4-.4.5-.8l.2-.6-3.2-8.8h1.8l2.3 6.7 2.3-6.7h1.8l-3.6 9.9a4 4 0 0 1-.7 1.1c-.2.3-.5.6-.9.7a3 3 0 0 1-1.2.3Zm12.7-9c0-1.4.2-2.8.6-4 .3-1.1.9-2.3 1.6-3.3h1.6l-.8 1.4a13.2 13.2 0 0 0-1 3.8 14 14 0 0 0 1.8 9.3h-1.6a11.7 11.7 0 0 1-2.2-7.2Zm11.6 3.6v-.6l.3-1.2c.2-.4.4-.7.8-.9.3-.2.8-.3 1.3-.3s1 0 1.3.3c.3.2.6.5.8.9l.2 1.2v.6c0 .5 0 .9-.2 1.2a2.2 2.2 0 0 1-2.1 1.2c-.5 0-1 0-1.3-.3-.4-.2-.6-.5-.8-.9-.2-.3-.3-.7-.3-1.2Zm1.3-.6v.6l.3.9c.1.3.4.4.8.4s.6-.1.8-.4l.2-.9v-.6c0-.3 0-.6-.2-.9-.2-.2-.4-.4-.8-.4s-.7.2-.8.4l-.3.9Zm-7.1-6V55c0-.4 0-.8.2-1.2a2.2 2.2 0 0 1 2.1-1.2c.5 0 1 .1 1.3.4.4.2.6.5.8.8l.3 1.2v.7l-.3 1.2-.8.9c-.3.2-.8.3-1.3.3s-1-.1-1.3-.4l-.8-.8c-.2-.4-.2-.8-.2-1.2Zm1.3-.7v.7c0 .3 0 .6.2.8.2.3.4.4.8.4s.7 0 .8-.4c.2-.2.3-.5.3-.8V55c0-.3-.1-.6-.3-.8-.1-.3-.4-.4-.8-.4s-.6 0-.8.4l-.2.8Zm-.8 9.5 8-11.6h1.4l-8 11.6h-1.4Zm15.8-5.8c0 1.4-.2 2.7-.6 4-.4 1.1-1 2.2-1.6 3.2h-1.6l.8-1.3a13.1 13.1 0 0 0 1-3.9 14.2 14.2 0 0 0-1.8-9.3h1.6a11.7 11.7 0 0 1 2.2 7.3Z" fill="#2D2937"/><path d="M176 66a7.5 7.5 0 1 0 0-15 7.5 7.5 0 0 0 0 15ZM176 61.5v-3M176 55.5h0" stroke="#A1A5B1" stroke-width="1.5" stroke-linecap="round" stroke-linejoin="round"/><rect x="380.5" y="48" width="37" height="21" rx="2.5" fill="#F6F6F9"/><path d="M394.2 53.8v8.7h-1.4v-7.4l-2.1 1.4v-1.3l2.2-1.4h1.3Zm4.1 8.7-2.4-8.7h1.4l1.7 6.7 1.9-6.7h1.3l1.8 6.7 1.8-6.7h1.4l-2.5 8.7h-1.3l-1.8-6.5-2 6.5h-1.3Z" fill="#2D2937"/><rect x="380.5" y="48" width="37" height="21" rx="2.5" stroke="#D7DEE5"/><path d="M434.8 62.5v-1l3-3a16.2 16.2 0 0 0 1.2-1.6l.2-.7c0-.3 0-.6-.2-.8-.2-.2-.3-.4-.6-.5l-.8-.1-.8.1-.5.6-.2.8h-1.3c0-.5.2-1 .4-1.4.2-.4.6-.7 1-1l1.5-.2c.5 0 1 0 1.4.3.4.2.8.5 1 .9a2.6 2.6 0 0 1 .2 2.2l-.7 1-1.2 1.4-1.7 1.8h3.9v1.2h-5.8Zm7.5-8.7h1.6l2.8 6.8h.1l2.8-6.8h1.6v8.7h-1.3v-6.3l-2.6 6.3h-1l-2.6-6.3h-.1v6.3h-1.3v-8.7ZM482.9 62.6c-.6 0-1.1 0-1.6-.3-.4-.2-.8-.5-1-.8-.3-.4-.5-.8-.5-1.3h1.3c0 .3.1.5.3.7l.6.4.9.2c.3 0 .6 0 .9-.2l.6-.5c.2-.2.2-.5.2-.7 0-.3 0-.6-.2-.8l-.6-.5c-.3-.2-.7-.2-1-.2h-.8v-1.1h.7c.3 0 .6 0 .9-.2.2 0 .4-.3.6-.5l.2-.7-.2-.7-.5-.5-.8-.1a2 2 0 0 0-.8.1l-.6.5c-.2.1-.2.4-.2.6H480c0-.4.1-.8.4-1.2.3-.4.6-.6 1-.8l1.5-.3c.6 0 1 0 1.5.3l1 .8.2 1.2c0 .5 0 1-.4 1.3a2 2 0 0 1-1 .7c.5.1 1 .3 1.3.7.3.4.5.9.5 1.4 0 .5-.2 1-.4 1.3-.3.4-.7.7-1.1.9-.5.2-1 .3-1.6.3Zm4.8-8.8h1.6l2.8 6.8 2.8-6.8h1.6v8.7h-1.2v-6.3l-2.7 6.3h-1l-2.6-6.3v6.3h-1.3v-8.7Z" fill="#2D2937"/><path d="M93 90.5h420M93 138h420M93 185.5h420M93 233h420M93 280.5h420" stroke="#EEF0F2"/><path d="M64 85.2v7.3h-.8v-6.3l-1.9 1.1v-.9l1.9-1.2h.8Zm4.5 7.4c-.5 0-1-.1-1.4-.4l-.8-1.3a6 6 0 0 1-.3-2c0-.8 0-1.5.3-2 .2-.6.5-1 .8-1.3.4-.3.9-.5 1.4-.5.5 0 1 .2 1.4.5.3.3.6.7.8 1.3.2.5.3 1.2.3 2a6 6 0 0 1-.3 2l-.8 1.3c-.4.3-.9.4-1.4.4Zm0-.8c.5 0 1-.2 1.2-.7a5.6 5.6 0 0 0 .2-3.8c0-.5-.3-.8-.5-1-.3-.3-.5-.4-.9-.4-.5 0-1 .3-1.2.8-.3.5-.5 1.2-.5 2.2 0 .6 0 1.1.2 1.6.2.4.3.7.6 1 .2.2.5.3.9.3Zm6.3.8c-.6 0-1-.1-1.4-.4-.4-.3-.7-.8-.9-1.3a6 6 0 0 1-.3-2c0-.8.1-1.5.3-2 .2-.6.5-1 .9-1.3.4-.3.8-.5 1.3-.5.6 0 1 .2 1.4.5.4.3.7.7.9 1.3.2.5.3 1.2.3 2a6 6 0 0 1-.3 2c-.2.5-.5 1-.9 1.3-.4.3-.8.4-1.3.4Zm0-.8c.5 0 .9-.2 1.2-.7.3-.6.4-1.3.4-2.2 0-.7 0-1.2-.2-1.6-.1-.5-.3-.8-.6-1-.2-.3-.5-.4-.8-.4-.6 0-1 .3-1.3.8-.3.5-.4 1.2-.4 2.2 0 .6 0 1.1.2 1.6l.5 1c.3.2.6.3 1 .3Zm7.5-.7v-.3c0-.3 0-.6.2-.8l.5-.5.8-.2c.3 0 .5 0 .7.2l.5.5.2.8v.3c0 .3 0 .5-.2.8a1.3 1.3 0 0 1-1.2.7c-.4 0-.6 0-.8-.2l-.5-.5-.2-.8Zm.8-.3v.3l.1.6c.1.2.3.3.6.3.2 0 .4-.1.5-.3l.1-.6v-.3l-.1-.6c-.1-.2-.3-.3-.5-.3-.3 0-.5 0-.6.3l-.1.6ZM78.7 87v-.4c0-.3 0-.5.2-.7 0-.3.2-.4.5-.6l.7-.2.8.2c.2.2.4.3.5.6l.1.7v.4l-.1.7a1.3 1.3 0 0 1-1.3.7c-.3 0-.5 0-.7-.2-.3-.1-.4-.3-.5-.5l-.2-.7Zm.7-.4v.4c0 .2 0 .4.2.6l.5.2c.3 0 .5 0 .6-.2l.1-.6v-.4l-.1-.6c-.1-.2-.3-.3-.6-.3-.2 0-.4.1-.5.3l-.2.6Zm-.4 5.9 5-7.3h.8l-5 7.3H79ZM68.7 140.1c-.5 0-1 0-1.3-.3-.4-.1-.6-.4-.9-.7-.2-.3-.3-.6-.3-1a2 2 0 0 1 .7-1.5l.7-.4c-.3-.1-.6-.3-.8-.6-.2-.3-.3-.7-.3-1 0-.4.1-.7.3-1 .2-.3.4-.6.8-.7.3-.2.7-.3 1.1-.3.4 0 .8.1 1.1.3.4.1.6.4.8.7.2.3.3.6.3 1 0 .3 0 .7-.3 1-.2.3-.5.5-.8.6l.7.4.5.6.2.9c0 .4-.1.7-.3 1-.2.3-.5.6-1 .7a3 3 0 0 1-1.2.3Zm0-.8.9-.1.5-.5.2-.7c0-.2 0-.5-.2-.7-.1-.2-.3-.4-.6-.5l-.8-.2c-.3 0-.6 0-.8.2-.3.1-.5.3-.6.5l-.2.7c0 .3 0 .5.2.7.1.2.3.4.6.5l.8.1Zm0-3.4c.3 0 .5 0 .7-.2a1.2 1.2 0 0 0 .7-1l-.2-.7-.5-.5-.7-.1-.7.1-.5.5-.1.6.1.7.5.4.7.2Zm6.1 4.2c-.4 0-.8 0-1.1-.2a2 2 0 0 1-.8-.7c-.2-.3-.3-.6-.3-1h.8c0 .3.2.6.5.8.2.2.5.3 1 .3.2 0 .5 0 .7-.2l.6-.6.2-.8-.2-.8a1.5 1.5 0 0 0-1.4-.9 2.3 2.3 0 0 0-1.3.4h-.8l.4-3.7H77v.8h-3l-.3 2.2.6-.3.7-.2a2.2 2.2 0 0 1 2 1.2c.2.4.3.8.3 1.3 0 .4 0 .9-.3 1.2a2.3 2.3 0 0 1-2 1.2Zm7.5-1.5v-.3c0-.3 0-.6.2-.8l.5-.5.8-.2c.3 0 .5 0 .7.2l.5.5.2.8v.3c0 .3 0 .5-.2.8a1.3 1.3 0 0 1-1.2.7c-.4 0-.6 0-.8-.2l-.5-.5-.2-.8Zm.8-.3v.3l.1.6c.1.2.3.3.6.3.2 0 .4-.1.5-.3l.1-.6v-.3l-.1-.6c-.1-.2-.3-.3-.5-.3-.3 0-.5 0-.6.3l-.1.6Zm-4.4-3.8v-.4c0-.3 0-.5.2-.7a1.3 1.3 0 0 1 1.2-.8c.3 0 .6 0 .8.2.2.2.4.3.5.6l.1.7v.4l-.1.7a1.3 1.3 0 0 1-1.3.7c-.3 0-.5 0-.7-.2-.3-.1-.4-.3-.5-.5l-.2-.7Zm.7-.4v.4c0 .2 0 .4.2.6l.5.2c.3 0 .5 0 .6-.2l.1-.6v-.4l-.1-.6c-.1-.2-.3-.3-.6-.3-.2 0-.4.1-.5.3l-.2.6ZM79 140l5-7.3h.8l-5 7.3H79ZM68.6 187.6c-.5 0-.8 0-1.2-.2a2 2 0 0 1-.8-.7c-.2-.3-.3-.6-.3-1h.9c0 .3.1.6.4.8.3.2.6.3 1 .3.3 0 .5 0 .8-.2.2-.1.4-.3.5-.6l.2-.8c0-.3 0-.6-.2-.8a1.5 1.5 0 0 0-1.4-.9 2.3 2.3 0 0 0-1.3.4h-.8l.5-3.7h3.7v.8h-3l-.3 2.2.6-.3.8-.2a2.2 2.2 0 0 1 2 1.2c.2.4.3.8.3 1.3a2.3 2.3 0 0 1-2.4 2.4Zm6.2 0c-.6 0-1-.1-1.4-.4-.4-.3-.7-.8-.9-1.3a6 6 0 0 1-.3-2c0-.8.1-1.5.3-2 .2-.6.5-1 .9-1.3.4-.3.8-.5 1.3-.5.6 0 1 .2 1.4.5.4.3.7.7.9 1.3.2.5.3 1.2.3 2a6 6 0 0 1-.3 2c-.2.5-.5 1-.9 1.3-.4.3-.8.4-1.3.4Zm0-.8c.5 0 .9-.2 1.2-.7.3-.6.4-1.3.4-2.2 0-.7 0-1.2-.2-1.6-.1-.5-.3-.8-.6-1-.2-.3-.5-.4-.8-.4-.6 0-1 .3-1.3.8-.3.5-.4 1.2-.4 2.2 0 .6 0 1.1.2 1.6l.5 1c.3.2.6.3 1 .3Zm7.5-.7v-.3c0-.3 0-.6.2-.8l.5-.5.8-.2c.3 0 .5 0 .7.2l.5.5.2.8v.3c0 .3 0 .5-.2.8a1.3 1.3 0 0 1-1.2.7c-.4 0-.6 0-.8-.2l-.5-.5-.2-.8Zm.8-.3v.3l.1.6c.1.2.3.3.6.3.2 0 .4-.1.5-.3l.1-.6v-.3l-.1-.6c-.1-.2-.3-.3-.5-.3-.3 0-.5 0-.6.3l-.1.6Zm-4.4-3.8v-.4c0-.3 0-.5.2-.7a1.3 1.3 0 0 1 1.2-.8c.3 0 .6 0 .8.2.2.2.4.3.5.6l.1.7v.4l-.1.7a1.3 1.3 0 0 1-1.3.7c-.3 0-.5 0-.7-.2-.3-.1-.4-.3-.5-.5l-.2-.7Zm.7-.4v.4c0 .2 0 .4.2.6l.5.2c.3 0 .5 0 .6-.2l.1-.6v-.4l-.1-.6c-.1-.2-.3-.3-.6-.3-.2 0-.4.1-.5.3l-.2.6Zm-.4 5.9 5-7.3h.8l-5 7.3H79ZM66.5 235v-.6l2.4-2.7a16.4 16.4 0 0 0 1-1.4c.2-.2.2-.4.2-.7a1.2 1.2 0 0 0-.7-1c-.2-.2-.4-.2-.7-.2-.2 0-.5 0-.7.2-.2 0-.4.2-.5.4l-.1.8h-.9c0-.5.1-.8.3-1.1.2-.4.5-.6.8-.8.4-.2.7-.3 1.2-.3.4 0 .8.1 1 .3.4.2.7.4.9.7.2.3.2.7.2 1l-.1.8c0 .3-.3.6-.5.9l-1 1.1-1.6 1.8h3.4v.8h-4.6Zm8.3.1c-.4 0-.8 0-1.1-.2a2 2 0 0 1-.8-.7c-.2-.3-.3-.6-.3-1h.8c0 .3.2.6.5.8.2.2.5.3 1 .3.2 0 .5 0 .7-.2l.6-.6.2-.8-.2-.8a1.5 1.5 0 0 0-1.4-.9 2.3 2.3 0 0 0-1.3.4h-.8l.4-3.7H77v.8h-3l-.3 2.2.6-.3.7-.2a2.2 2.2 0 0 1 2 1.2c.2.4.3.8.3 1.3 0 .4 0 .9-.3 1.2a2.3 2.3 0 0 1-2 1.2Zm7.5-1.5v-.3c0-.3 0-.6.2-.8l.5-.5.8-.2c.3 0 .5 0 .7.2l.5.5.2.8v.3c0 .3 0 .5-.2.8a1.3 1.3 0 0 1-1.2.7c-.4 0-.6 0-.8-.2l-.5-.5-.2-.8Zm.8-.3v.3l.1.6c.1.2.3.3.6.3.2 0 .4-.1.5-.3l.1-.6v-.3l-.1-.6c-.1-.2-.3-.3-.5-.3-.3 0-.5 0-.6.3l-.1.6Zm-4.4-3.8v-.4c0-.3 0-.5.2-.7a1.3 1.3 0 0 1 1.2-.8c.3 0 .6 0 .8.2.2.2.4.3.5.6l.1.7v.4l-.1.7a1.3 1.3 0 0 1-1.3.7c-.3 0-.5 0-.7-.2-.3-.1-.4-.3-.5-.5l-.2-.7Zm.7-.4v.4c0 .2 0 .4.2.6l.5.2c.3 0 .5 0 .6-.2l.1-.6v-.4l-.1-.6c-.1-.2-.3-.3-.6-.3-.2 0-.4.1-.5.3l-.2.6ZM79 235l5-7.3h.8l-5 7.3H79ZM74.8 278.6c-.6 0-1-.1-1.4-.4-.4-.3-.7-.8-.9-1.3a6 6 0 0 1-.3-2c0-.8.1-1.5.3-2 .2-.6.5-1 .9-1.3.4-.3.8-.5 1.3-.5.6 0 1 .2 1.4.5.4.3.7.7.9 1.3.2.5.3 1.2.3 2a6 6 0 0 1-.3 2c-.2.5-.5 1-.9 1.3-.4.3-.8.4-1.3.4Zm0-.8c.5 0 .9-.2 1.2-.7.3-.6.4-1.3.4-2.2 0-.7 0-1.2-.2-1.6-.1-.5-.3-.8-.6-1-.2-.3-.5-.4-.8-.4-.6 0-1 .3-1.3.8-.3.5-.4 1.2-.4 2.2 0 .6 0 1.1.2 1.6l.5 1c.3.2.6.3 1 .3Zm7.5-.7v-.3c0-.3 0-.6.2-.8l.5-.5.8-.2c.3 0 .5 0 .7.2l.5.5.2.8v.3c0 .3 0 .5-.2.8a1.3 1.3 0 0 1-1.2.7c-.4 0-.6 0-.8-.2l-.5-.5-.2-.8Zm.8-.3v.3l.1.6c.1.2.3.3.6.3.2 0 .4-.1.5-.3l.1-.6v-.3l-.1-.6c-.1-.2-.3-.3-.5-.3-.3 0-.5 0-.6.3l-.1.6Zm-4.4-3.8v-.4c0-.3 0-.5.2-.7a1.3 1.3 0 0 1 1.2-.8c.3 0 .6 0 .8.2.2.2.4.3.5.6l.1.7v.4l-.1.7a1.3 1.3 0 0 1-1.3.7c-.3 0-.5 0-.7-.2-.3-.1-.4-.3-.5-.5l-.2-.7Zm.7-.4v.4c0 .2 0 .4.2.6l.5.2c.3 0 .5 0 .6-.2l.1-.6v-.4l-.1-.6c-.1-.2-.3-.3-.6-.3-.2 0-.4.1-.5.3l-.2.6Zm-.4 5.9 5-7.3h.8l-5 7.3H79ZM89.7 288.1c.3 0 .6 0 1 .2l.7.6c.3.2.5.6.6 1 .2.4.2 1 .2 1.7l-.1 1.7a4 4 0 0 1-.6 1.3c-.2.3-.5.6-.8.7a2.4 2.4 0 0 1-2.2 0c-.3-.1-.6-.3-.8-.6l-.4-1h1c0 .3.1.6.4.8.2.2.5.3.9.3.6 0 1-.2 1.3-.7.4-.5.5-1.2.5-2a2.2 2.2 0 0 1-1.1.8h-.7a2.2 2.2 0 0 1-2-1l-.3-1.3c0-.5 0-.9.3-1.3l.8-.9c.4-.2.8-.3 1.3-.3Zm0 .8c-.3 0-.6 0-.8.2l-.6.6-.2.9.2.8.6.6.8.2a1.5 1.5 0 0 0 1.1-.5l.4-.5v-.7l-.1-.8-.6-.6-.8-.2Zm6.5-1-2.3 8.7H93l2.4-8.7h.7Zm3.5 7.7a3 3 0 0 1-1.3-.2c-.4-.2-.7-.4-.9-.7-.2-.3-.3-.6-.3-1h.9c0 .2 0 .4.2.6l.6.4.7.1.9-.1.5-.5c.2-.2.2-.4.2-.7a1.3 1.3 0 0 0-.7-1.2l-1-.1H99v-.8h.6c.3 0 .6 0 .8-.2.2 0 .4-.2.5-.4l.2-.7c0-.2 0-.4-.2-.6 0-.2-.2-.4-.4-.5l-.7-.1-.7.1-.6.4a1 1 0 0 0-.2.6h-.9c0-.3.2-.7.4-1 .2-.2.5-.5.8-.6a2.7 2.7 0 0 1 2.3 0c.4.2.6.4.8.7a1.9 1.9 0 0 1 0 2c-.3.3-.6.5-1 .6.5.2.9.3 1.1.7.3.3.4.7.4 1.1 0 .4 0 .8-.3 1-.2.4-.5.6-.9.8l-1.2.3ZM133.7 288.1c.3 0 .6 0 1 .2l.8.6.6 1 .2 1.7c0 .6 0 1.2-.2 1.7a4 4 0 0 1-.5 1.3c-.3.3-.5.6-.9.7-.3.2-.7.3-1 .3-.5 0-.8 0-1.2-.2l-.7-.7c-.2-.3-.4-.6-.4-1h.8l.5.8c.2.2.5.3 1 .3s1-.2 1.3-.7c.3-.5.5-1.2.5-2h-.1a2.2 2.2 0 0 1-1 .8h-.8a2.2 2.2 0 0 1-2-1l-.3-1.3c0-.5.1-.9.3-1.3l.9-.9c.3-.2.8-.3 1.2-.3Zm0 .8c-.3 0-.5 0-.8.2l-.5.6c-.2.3-.2.6-.2.9 0 .3 0 .5.2.8l.5.6.8.2a1.5 1.5 0 0 0 1.2-.5l.3-.5.1-.7c0-.2 0-.5-.2-.8l-.5-.6-.9-.2Zm6.6-1-2.4 8.7h-.8l2.4-8.7h.8Zm.8 6.1v-.7l3.2-5h.5v1h-.4l-2.4 3.9h4.3v.8h-5.2Zm3.4 1.5v-7.3h.8v7.3h-.8ZM178 288.1c.3 0 .6 0 .9.2l.8.6.6 1 .2 1.7c0 .6 0 1.2-.2 1.7a4 4 0 0 1-.5 1.3c-.2.3-.5.6-.8.7a2.4 2.4 0 0 1-2.2 0c-.3-.1-.6-.3-.8-.6l-.4-1h.9c0 .3.2.6.4.8.3.2.6.3 1 .3.5 0 1-.2 1.3-.7.3-.5.5-1.2.5-2a2.2 2.2 0 0 1-1.2.8h-.7a2.2 2.2 0 0 1-2-1l-.3-1.3c0-.5.1-.9.3-1.3l.9-.9c.4-.2.8-.3 1.3-.3Zm0 .8c-.3 0-.6 0-.8.2l-.6.6-.2.9c0 .3 0 .5.2.8l.5.6.8.2a1.5 1.5 0 0 0 1.2-.5l.3-.5a1.6 1.6 0 0 0 0-1.5l-.6-.6-.8-.2Zm6.5-1-2.4 8.7h-.7l2.3-8.7h.8Zm3.2 7.7c-.4 0-.8 0-1-.2a2 2 0 0 1-.9-.7c-.2-.3-.3-.6-.3-1h.8c0 .3.2.6.5.8.2.2.6.3 1 .3.2 0 .5 0 .7-.2.3-.1.4-.3.6-.6l.2-.8c0-.3 0-.6-.2-.8a1.5 1.5 0 0 0-1.4-.9 2.3 2.3 0 0 0-1.3.4h-.8l.4-3.7h3.8v.8h-3l-.3 2.2.6-.3.7-.2a2.2 2.2 0 0 1 2 1.2c.2.4.3.8.3 1.3 0 .4 0 .9-.3 1.2a2.3 2.3 0 0 1-2 1.2ZM222 288.1c.3 0 .6 0 .8.2l.9.6.6 1 .2 1.7c0 .6 0 1.2-.2 1.7a4 4 0 0 1-.5 1.3c-.3.3-.5.6-.9.7-.3.2-.6.3-1 .3-.5 0-.8 0-1.1-.2a2.1 2.1 0 0 1-1.2-1.7h.8l.5.8c.2.2.6.3 1 .3.5 0 1-.2 1.3-.7.3-.5.5-1.2.5-2h-.1l-.5.4a2 2 0 0 1-1.3.5 2.2 2.2 0 0 1-2-1.2l-.3-1.2c0-.5.1-.9.3-1.3l.9-.9c.3-.2.8-.3 1.3-.3Zm0 .8c-.3 0-.6 0-.9.2l-.5.6c-.2.3-.2.6-.2.9 0 .3 0 .5.2.8l.5.6.8.2a1.5 1.5 0 0 0 1.2-.5l.3-.5.1-.7c0-.2 0-.5-.2-.8l-.5-.6-.8-.2Zm6.5-1-2.4 8.7h-.7l2.3-8.7h.8Zm3.4 7.7c-.3 0-.6 0-1-.2-.2 0-.5-.3-.8-.5l-.5-1c-.2-.5-.3-1-.3-1.8 0-.6 0-1.2.2-1.7l.5-1.2c.3-.4.5-.6.9-.8.3-.2.7-.3 1-.3.5 0 .8.1 1.2.3.3.1.5.4.7.6.2.3.4.7.4 1h-.8l-.5-.8c-.2-.2-.5-.3-1-.3s-1 .3-1.3.7c-.3.5-.4 1.2-.4 2.1a2.2 2.2 0 0 1 3-.6c.3.2.6.4.8.8.2.4.3.8.3 1.3l-.3 1.2a2.3 2.3 0 0 1-2.1 1.2Zm0-.8c.3 0 .5 0 .8-.2l.5-.6c.2-.3.2-.5.2-.8a1.7 1.7 0 0 0-.7-1.5l-.8-.2c-.2 0-.4 0-.6.2a1.6 1.6 0 0 0-.9.8l-.1.7a1.7 1.7 0 0 0 .7 1.4l.9.2ZM266.3 288.1c.3 0 .6 0 .9.2l.8.6.6 1 .2 1.7c0 .6 0 1.2-.2 1.7a4 4 0 0 1-.5 1.3c-.2.3-.5.6-.8.7a2.4 2.4 0 0 1-2.2 0 2.1 2.1 0 0 1-1.2-1.6h.9c0 .3.2.6.4.8.3.2.6.3 1 .3.5 0 1-.2 1.3-.7.3-.5.5-1.2.5-2l-.5.4a2 2 0 0 1-1.4.5 2.2 2.2 0 0 1-2-1.2l-.3-1.2c0-.5.1-.9.3-1.3l.9-.9c.4-.2.8-.3 1.3-.3Zm0 .8c-.3 0-.6 0-.8.2l-.6.6-.2.9c0 .3 0 .5.2.8l.6.6.8.2a1.5 1.5 0 0 0 1-.5l.4-.5.2-.7-.3-.8c0-.2-.3-.4-.5-.6l-.8-.2Zm6.5-1-2.4 8.7h-.7l2.3-8.7h.8Zm1.2 7.6 3.2-6.4h-3.7v-.9h4.7v.9l-3.3 6.4h-.9ZM310.1 288.1c.3 0 .6 0 1 .2l.7.6c.3.2.5.6.6 1 .2.4.2 1 .2 1.7l-.1 1.7a4 4 0 0 1-.6 1.3c-.2.3-.5.6-.8.7a2.4 2.4 0 0 1-2.2 0c-.3-.1-.6-.3-.8-.6l-.4-1h1c0 .3.1.6.4.8.2.2.5.3.9.3.6 0 1-.2 1.3-.7.4-.5.5-1.2.5-2a2.2 2.2 0 0 1-1.1.8h-.7a2.2 2.2 0 0 1-2-1l-.3-1.3c0-.5 0-.9.3-1.3l.8-.9c.4-.2.8-.3 1.3-.3Zm0 .8c-.3 0-.6 0-.8.2l-.6.6-.2.9.2.8.6.6.8.2a1.5 1.5 0 0 0 1.1-.5l.4-.5a1.6 1.6 0 0 0-.1-1.5l-.6-.6-.8-.2Zm6.5-1-2.3 8.7h-.8l2.4-8.7h.7Zm3.3 7.7c-.5 0-.9 0-1.3-.3-.3-.1-.6-.4-.8-.7-.2-.3-.3-.6-.3-1a2 2 0 0 1 .6-1.5l.8-.4c-.4-.1-.7-.3-.9-.6-.2-.3-.3-.7-.3-1 0-.4.1-.7.3-1 .2-.3.5-.6.8-.7.3-.2.7-.3 1.1-.3.5 0 .8.1 1.2.3.3.1.6.4.7.7.2.3.3.6.3 1 0 .3 0 .7-.3 1-.2.3-.5.5-.8.6.3 0 .5.2.7.4l.5.6.2.9c0 .4-.1.7-.3 1-.2.3-.5.6-.9.7a3 3 0 0 1-1.3.3Zm0-.8.9-.1.5-.5c.2-.2.2-.4.2-.7 0-.2 0-.5-.2-.7l-.5-.5-.9-.2c-.3 0-.6 0-.8.2l-.6.5-.2.7c0 .3 0 .5.2.7.1.2.3.4.6.5l.8.1Zm0-3.4c.3 0 .5 0 .7-.2a1.2 1.2 0 0 0 .7-1c0-.3 0-.5-.2-.7l-.5-.5-.7-.1-.7.1a1 1 0 0 0-.5.5l-.1.6c0 .3 0 .5.2.7 0 .2.2.3.4.4l.7.2ZM354.1 288.1c.3 0 .6 0 1 .2l.7.6c.3.2.5.6.6 1 .2.4.3 1 .3 1.7l-.2 1.7a4 4 0 0 1-.5 1.3c-.3.3-.6.6-.9.7-.3.2-.7.3-1 .3-.5 0-.8 0-1.2-.2a2.1 2.1 0 0 1-1.1-1.7h.8l.5.8c.2.2.5.3 1 .3s1-.2 1.3-.7c.3-.5.4-1.2.4-2l-.5.4a2 2 0 0 1-1.3.5 2.2 2.2 0 0 1-2-1.2l-.3-1.2c0-.5.1-.9.3-1.3l.9-.9c.3-.2.7-.3 1.2-.3Zm0 .8c-.3 0-.5 0-.8.2l-.5.6c-.2.3-.2.6-.2.9 0 .3 0 .5.2.8 0 .2.3.4.5.6l.8.2a1.5 1.5 0 0 0 1.1-.5l.4-.5a1.6 1.6 0 0 0 0-1.5l-.7-.6-.8-.2Zm6.5-1-2.3 8.7h-.8l2.4-8.7h.7Zm3.3.2c.3 0 .6 0 1 .2l.8.6.5 1c.2.4.3 1 .3 1.7 0 .6 0 1.2-.2 1.7a4 4 0 0 1-.5 1.3c-.3.3-.5.6-.9.7-.3.2-.7.3-1 .3-.5 0-.8 0-1.2-.2l-.7-.7c-.2-.3-.4-.6-.4-1h.8l.5.8c.2.2.5.3 1 .3s1-.2 1.3-.7c.3-.5.4-1.2.4-2a2.2 2.2 0 0 1-1 .8h-.8a2.2 2.2 0 0 1-2-1l-.3-1.3c0-.5.1-.9.3-1.3l.9-.9c.3-.2.7-.3 1.2-.3Zm0 .8c-.3 0-.5 0-.8.2l-.5.6c-.2.3-.2.6-.2.9 0 .3 0 .5.2.8l.5.6.8.2a1.5 1.5 0 0 0 1.1-.5l.4-.5a1.6 1.6 0 0 0 0-1.5l-.6-.6-.9-.2ZM395.9 288.1c.3 0 .6 0 .9.2l.8.6.6 1 .2 1.7c0 .6 0 1.2-.2 1.7a4 4 0 0 1-.5 1.3c-.2.3-.5.6-.8.7a2.4 2.4 0 0 1-2.2 0c-.4-.1-.6-.3-.8-.6l-.4-1h.9c0 .3.2.6.4.8.3.2.6.3 1 .3.5 0 1-.2 1.3-.7.3-.5.5-1.2.5-2a2.2 2.2 0 0 1-1.2.8h-.7a2.2 2.2 0 0 1-2-1l-.3-1.3c0-.5.1-.9.3-1.3l.9-.9c.3-.2.8-.3 1.3-.3Zm0 .8c-.3 0-.6 0-.8.2l-.6.6-.2.9c0 .3 0 .5.2.8l.5.6.8.2a1.5 1.5 0 0 0 1.2-.5l.3-.5.1-.7c0-.2 0-.5-.2-.8l-.5-.6-.8-.2Zm6.5-1-2.4 8.7h-.7l2.3-8.7h.8Zm3.5.3v7.3h-.9v-6.3l-1.8 1.1v-.9l1.8-1.2h1Zm4.5 7.4c-.6 0-1-.1-1.4-.4-.4-.3-.7-.8-.9-1.3a6 6 0 0 1-.3-2c0-.8.1-1.5.3-2 .2-.6.5-1 1-1.3.3-.3.7-.5 1.3-.5.5 0 1 .2 1.3.5.4.3.7.7.9 1.3.2.5.3 1.2.3 2a6 6 0 0 1-.3 2c-.2.5-.5 1-.9 1.3-.3.3-.8.4-1.3.4Zm0-.8c.5 0 1-.2 1.2-.7a5.6 5.6 0 0 0 .2-3.8c0-.5-.3-.8-.5-1-.3-.3-.6-.4-1-.4s-.9.3-1.2.8c-.3.5-.4 1.2-.4 2.2 0 .6 0 1.1.2 1.6.1.4.3.7.6 1 .2.2.5.3.9.3ZM440.7 288.1c.3 0 .6 0 1 .2l.7.6c.3.2.5.6.6 1 .2.4.3 1 .3 1.7l-.2 1.7a4 4 0 0 1-.6 1.3c-.2.3-.5.6-.8.7-.3.2-.7.3-1 .3-.5 0-.9 0-1.2-.2l-.8-.7c-.2-.3-.3-.6-.3-1h.8l.5.8c.2.2.5.3 1 .3s1-.2 1.2-.7c.4-.5.5-1.2.5-2a2.2 2.2 0 0 1-1.1.8h-.7a2.2 2.2 0 0 1-2-1l-.3-1.3c0-.5.1-.9.3-1.3l.8-.9c.4-.2.8-.3 1.3-.3Zm0 .8c-.3 0-.5 0-.8.2l-.5.6c-.2.3-.2.6-.2.9 0 .3 0 .5.2.8 0 .2.3.4.5.6l.8.2a1.5 1.5 0 0 0 1.1-.5l.4-.5.1-.7c0-.2 0-.5-.2-.8l-.6-.6-.8-.2Zm6.5-1-2.3 8.7h-.8l2.4-8.7h.7Zm3.6.3v7.3h-1v-6.3l-1.7 1.1v-.9l1.8-1.2h.9Zm4.6 0v7.3h-.9v-6.3l-1.8 1.1v-.9l1.8-1.2h1ZM484 288.1c.4 0 .7 0 1 .2.3.1.6.3.8.6l.6 1 .2 1.7c0 .6 0 1.2-.2 1.7a4 4 0 0 1-.5 1.3c-.2.3-.5.6-.8.7a2.4 2.4 0 0 1-2.2 0c-.3-.1-.6-.3-.8-.6l-.4-1h.9c0 .3.2.6.4.8.3.2.6.3 1 .3.5 0 1-.2 1.3-.7.3-.5.5-1.2.5-2a2.2 2.2 0 0 1-1.1.8h-.8a2.2 2.2 0 0 1-2-1l-.2-1.3c0-.5 0-.9.3-1.3l.8-.9c.4-.2.8-.3 1.3-.3Zm0 .8c-.2 0-.5 0-.7.2l-.6.6-.2.9c0 .3 0 .5.2.8l.6.6.8.2a1.5 1.5 0 0 0 1-.5c.2-.2.4-.3.4-.5l.2-.7-.2-.8-.6-.6-.8-.2Zm6.6-1-2.3 8.7h-.8l2.3-8.7h.8Zm3.5.3v7.3h-.8v-6.3l-1.9 1.1v-.9l1.9-1.2h.8Zm2.1 7.3v-.6l2.4-2.7a16.1 16.1 0 0 0 1.1-1.4l.2-.7a1.2 1.2 0 0 0-.7-1c-.2-.2-.5-.2-.7-.2-.3 0-.6 0-.8.2-.2 0-.3.2-.4.4-.2.3-.2.5-.2.8h-.8c0-.5 0-.8.2-1.1.2-.4.5-.6.8-.8l1.2-.3c.4 0 .8.1 1.1.3.4.2.6.4.8.7.2.3.3.7.3 1 0 .3 0 .6-.2.8 0 .3-.2.6-.5.9-.2.3-.5.7-1 1.1l-1.6 1.8h3.4v.8h-4.6Z" fill="#6A717D"/><path d="M508 166.5 461.9 147l-46.1 62.5-46.1-86-46.1 54-46.2 32-46 11-46.2-47-46 52-46.2-55" stroke="#009FE3" stroke-width="2" stroke-linecap="round" stroke-linejoin="round"/><path d="M93 153.5h415" stroke="#F67D01" stroke-width="2" stroke-dasharray="4 4"/><g filter="url(#b)"><rect x="145" y="95.5" width="209" height="100" rx="3" fill="#2D2937" shape-rendering="crispEdges"/><path d="M204.6 118.6H203a2.4 2.4 0 0 0-1.7-1.9 3.1 3.1 0 0 0-2.5.3 3 3 0 0 0-1 1.3 5 5 0 0 0-.5 2.1c0 .8.1 1.5.4 2.1.3.6.6 1 1.1 1.3.5.3 1 .4 1.6.4h.9l.8-.5a2.4 2.4 0 0 0 1-1.5h1.5a4.2 4.2 0 0 1-1.4 2.5l-1.3.7c-.5.2-1 .2-1.5.2-1 0-1.7-.2-2.4-.6-.7-.4-1.2-1-1.6-1.8-.4-.8-.6-1.7-.6-2.8 0-1 .2-2 .6-2.8a4.4 4.4 0 0 1 4-2.4c.5 0 1 0 1.5.2a4 4 0 0 1 2.2 1.8l.5 1.4Zm5 7c-.8 0-1.4-.1-2-.4-.5-.4-1-.8-1.2-1.4-.3-.6-.4-1.3-.4-2 0-.9.1-1.6.4-2.2a3.3 3.3 0 0 1 3.1-1.8c.7 0 1.4.1 1.9.5.5.3 1 .7 1.2 1.3.3.6.5 1.3.5 2.1s-.2 1.5-.5 2a3.3 3.3 0 0 1-3 2Zm0-1.2c.4 0 .8-.1 1-.4.4-.2.6-.5.7-1 .2-.3.3-.8.3-1.3s-.1-1-.3-1.3c-.1-.4-.3-.8-.6-1-.3-.3-.7-.4-1.2-.4s-.8.1-1.1.4c-.4.2-.6.6-.7 1a4 4 0 0 0-.2 1.3c0 .5 0 1 .2 1.4.1.4.3.7.7 1 .3.2.6.3 1.1.3Zm6.6-3.4v4.5h-1.5v-7.6h1.5v1.2c.2-.4.5-.7.9-1 .4-.2.8-.3 1.4-.3.5 0 1 0 1.4.3.4.2.7.5.9 1 .2.4.3 1 .3 1.5v4.9h-1.5v-4.7c0-.5-.1-1-.4-1.3-.3-.3-.7-.4-1.2-.4-.3 0-.7 0-1 .2l-.6.6-.2 1Zm9.8 4.6a3 3 0 0 1-2.8-1.8 5 5 0 0 1-.4-2.1c0-.8.1-1.5.4-2.1.3-.6.6-1 1.1-1.4a3 3 0 0 1 1.7-.4c.4 0 .8 0 1.1.2l.7.5.4.6v-3.8h1.5v10.2h-1.4v-1.2h-.1l-.4.6a2.2 2.2 0 0 1-1.8.7Zm.3-1.2c.4 0 .8-.1 1-.4.4-.2.6-.5.7-1 .2-.3.3-.8.3-1.3s-.1-1-.3-1.4a2 2 0 0 0-.6-1c-.3-.2-.7-.3-1.1-.3-.5 0-.8.1-1.1.4-.3.2-.6.5-.7 1-.2.3-.2.8-.2 1.3s0 1 .2 1.4c.1.4.4.7.7 1 .3.2.6.3 1 .3Zm5.6 1.1v-7.6h1.4v7.6H232Zm.7-8.8a1 1 0 0 1-.7-.3.8.8 0 0 1-.2-.6c0-.2 0-.5.2-.6.2-.2.5-.3.7-.3.3 0 .5.1.7.3.2.1.3.4.3.6 0 .2-.1.5-.3.6a1 1 0 0 1-.7.3Zm6.3 1.2v1.2h-4.2v-1.2h4.2Zm-3-1.9h1.4v7.3c0 .2 0 .5.2.6 0 .2.2.2.3.3h1l.3 1.2-.4.1a3 3 0 0 1-1.7-.1l-.8-.7a2 2 0 0 1-.3-1.1V116Zm4.7 9.5v-7.6h1.4v7.6h-1.4Zm.7-8.8a1 1 0 0 1-.7-.3.8.8 0 0 1-.2-.6c0-.2 0-.5.2-.6.2-.2.4-.3.7-.3.3 0 .5.1.7.3.2.1.2.4.2.6 0 .2 0 .5-.2.6a1 1 0 0 1-.7.3Zm6 9c-.8 0-1.4-.2-2-.5-.4-.4-.9-.8-1.2-1.4-.3-.6-.4-1.3-.4-2 0-.9.1-1.6.4-2.2a3.3 3.3 0 0 1 3.2-1.8c.7 0 1.3.1 1.8.5.6.3 1 .7 1.3 1.3.3.6.4 1.3.4 2.1s-.1 1.5-.4 2a3.3 3.3 0 0 1-3.1 2Zm0-1.3c.4 0 .8-.1 1.1-.4.3-.2.5-.5.7-1l.2-1.3c0-.5 0-1-.2-1.3-.2-.4-.4-.8-.7-1-.3-.3-.7-.4-1.1-.4-.5 0-.9.1-1.2.4-.3.2-.5.6-.7 1a4 4 0 0 0-.2 1.3c0 .5 0 1 .2 1.4l.7 1c.3.2.7.3 1.2.3Zm6.7-3.4v4.5h-1.5v-7.6h1.4v1.2h.1c.2-.4.4-.7.8-1 .4-.2.9-.3 1.5-.3.5 0 1 0 1.3.3.4.2.7.5 1 1l.3 1.5v4.9h-1.5v-4.7c0-.5-.2-1-.5-1.3-.3-.3-.7-.4-1.2-.4-.3 0-.6 0-.9.2-.2.1-.5.3-.6.6-.2.3-.2.7-.2 1Zm14.1-3.1v1.2H264v-1.2h4.2Zm-3-1.9h1.4v7.3c0 .2 0 .5.2.6 0 .2.2.2.3.3h1l.3 1.2-.4.1a3 3 0 0 1-1.7-.1l-.8-.7a2 2 0 0 1-.3-1.1V116Zm4.7 9.5v-7.6h1.4v1.2c.2-.4.5-.8.8-1 .4-.2.8-.4 1.2-.4a7.2 7.2 0 0 1 .6 0v1.5h-.3a3 3 0 0 0-.4 0 2 2 0 0 0-1 .1 1.7 1.7 0 0 0-.9 1.5v4.7h-1.4Zm5.3 0v-7.6h1.5v7.6h-1.5Zm.8-8.8a1 1 0 0 1-.7-.3.8.8 0 0 1-.3-.6c0-.2.1-.5.3-.6.2-.2.4-.3.7-.3.2 0 .5.1.6.3.2.1.3.4.3.6 0 .2 0 .5-.3.6a1 1 0 0 1-.6.3Zm6 11.8c-.7 0-1.2 0-1.6-.2a3 3 0 0 1-1.1-.6c-.3-.3-.5-.6-.6-1l1.3-.4.3.4.6.5 1 .1c.6 0 1-.1 1.4-.4.4-.3.6-.7.6-1.3v-1.5h-.1l-.4.6-.7.5-1.1.2c-.6 0-1.2-.2-1.7-.4a3 3 0 0 1-1.1-1.3c-.3-.6-.4-1.2-.4-2 0-.9.1-1.6.4-2.1.3-.6.7-1 1.1-1.4a3 3 0 0 1 1.7-.4c.5 0 .8 0 1.1.2.3.2.6.3.7.5l.4.6h.1v-1.2h1.5v7.8c0 .6-.2 1.2-.5 1.6-.3.4-.7.7-1.2 1l-1.8.2Zm0-4.3c.3 0 .7-.1 1-.3.3-.2.5-.5.7-1l.2-1.3c0-.5 0-1-.2-1.3a2 2 0 0 0-.7-1c-.3-.2-.7-.3-1-.3-.5 0-1 .1-1.2.4-.3.2-.5.5-.7 1l-.2 1.2c0 .5 0 1 .2 1.4l.7.8c.3.2.7.4 1.1.4Zm8.6 4.3c-.6 0-1.2 0-1.6-.2a3 3 0 0 1-1-.6l-.7-1 1.3-.4.4.4.6.5 1 .1c.5 0 1-.1 1.4-.4.3-.3.5-.7.5-1.3v-1.5l-.5.6a2 2 0 0 1-.6.5l-1.2.2c-.6 0-1.1-.2-1.6-.4a3 3 0 0 1-1.2-1.3c-.2-.6-.4-1.2-.4-2 0-.9.2-1.6.4-2.1.3-.6.7-1 1.2-1.4a3 3 0 0 1 1.6-.4c.5 0 .9 0 1.2.2l.7.5.3.6h.1v-1.2h1.5v7.8c0 .6-.1 1.2-.5 1.6-.3.4-.7.7-1.2 1l-1.7.2Zm0-4.3c.4 0 .7-.1 1-.3.3-.2.6-.5.7-1 .2-.3.2-.7.2-1.3 0-.5 0-1-.2-1.3a2 2 0 0 0-.7-1c-.3-.2-.6-.3-1-.3-.5 0-.9.1-1.2.4-.3.2-.5.5-.6 1-.2.3-.3.7-.3 1.2s.1 1 .3 1.4c.1.3.3.6.6.8.3.2.7.4 1.1.4Zm8.7 1.5c-.8 0-1.4-.2-2-.5-.5-.4-1-.8-1.2-1.4-.3-.6-.4-1.3-.4-2 0-.9.1-1.5.4-2.1.3-.6.7-1.1 1.2-1.4.6-.4 1.2-.5 1.9-.5.4 0 .8 0 1.2.2a3 3 0 0 1 1.9 1.8c.2.5.3 1.1.3 1.8v.5h-6.1v-1h4.6c0-.5 0-.8-.2-1.1a1.8 1.8 0 0 0-1.7-1 2 2 0 0 0-1.1.3 2 2 0 0 0-.7.8c-.2.3-.3.7-.3 1v1c0 .4.1.9.3 1.2.2.4.4.7.8.8.3.2.7.3 1.1.3h.8l.6-.5.4-.6 1.4.3c-.1.4-.3.8-.6 1a3 3 0 0 1-1.1.8 4 4 0 0 1-1.5.3Zm5-.2v-7.6h1.4v1.2c.2-.4.4-.8.8-1 .3-.2.7-.4 1.2-.4a7.2 7.2 0 0 1 .6 0v1.5h-.3a3 3 0 0 0-.5 0 2 2 0 0 0-1 .1 1.7 1.7 0 0 0-.8 1.5v4.7h-1.5Zm8.3.2c-.7 0-1.4-.2-2-.5-.5-.4-.9-.8-1.2-1.4-.3-.6-.4-1.3-.4-2 0-.9.1-1.5.4-2.1.3-.6.7-1.1 1.2-1.4.6-.4 1.2-.5 1.9-.5.4 0 .9 0 1.3.2a3 3 0 0 1 1.8 1.8c.2.5.3 1.1.3 1.8v.5h-6v-1h4.5c0-.5 0-.8-.2-1.1a1.8 1.8 0 0 0-1.7-1 2 2 0 0 0-1 .3 2 2 0 0 0-.8.8c-.2.3-.2.7-.2 1v1c0 .4 0 .9.2 1.2.2.4.5.7.8.8.3.2.7.3 1.1.3h.8l.6-.5c.2-.1.3-.3.4-.6l1.4.3c-.1.4-.3.8-.6 1a3 3 0 0 1-1.1.8 4 4 0 0 1-1.5.3Zm7.8 0a3 3 0 0 1-2.8-1.9 5 5 0 0 1-.4-2.1c0-.8.1-1.5.4-2.1.3-.6.7-1 1.2-1.4a3 3 0 0 1 1.6-.4c.5 0 .9 0 1.1.2.3.2.6.3.7.5l.4.6v-3.8h1.6v10.2h-1.5v-1.2h-.1c0 .2-.2.4-.4.6a2.2 2.2 0 0 1-1.8.7Zm.3-1.3c.4 0 .8-.1 1.1-.4.3-.2.5-.5.7-1l.2-1.3c0-.5 0-1-.2-1.4a2 2 0 0 0-.7-1c-.3-.2-.6-.3-1-.3-.5 0-.9.1-1.2.4-.3.2-.5.5-.7 1l-.2 1.3c0 .5 0 1 .2 1.4l.7 1c.3.2.7.3 1.1.3Z" fill="#fff"/><path d="M200.7 137c0-.3-.2-.7-.5-.9-.4-.2-.8-.3-1.3-.3-.3 0-.7 0-1 .2-.2 0-.4.2-.5.4a1 1 0 0 0-.2.7l.1.5.4.4.5.3.5.1.9.2.9.3.8.5.6.7.2 1c0 .5-.1 1-.4 1.3-.2.4-.6.7-1 1l-1.8.2c-.7 0-1.2 0-1.7-.3-.5-.2-.9-.5-1.1-.8-.3-.4-.5-.9-.5-1.4h1.3c0 .3.2.6.3.8l.7.4 1 .2c.3 0 .7 0 1-.2l.7-.5.2-.7c0-.3 0-.5-.2-.7l-.6-.4c-.3 0-.5-.2-.8-.3l-1-.2a4 4 0 0 1-1.7-.9c-.4-.3-.7-.8-.7-1.4 0-.5.2-1 .5-1.4.2-.3.6-.6 1-.8.5-.2 1-.3 1.6-.3.6 0 1.2 0 1.6.3.5.2.8.5 1 .8.3.4.5.8.5 1.3h-1.3Zm5.7 6.6c-.6 0-1.2-.1-1.7-.4-.4-.3-.8-.6-1-1.2a4 4 0 0 1-.4-1.7c0-.7.1-1.3.4-1.8.2-.5.6-1 1-1.2a3.2 3.2 0 0 1 2.7-.2 2.6 2.6 0 0 1 1.6 1.5l.2 1.6v.4H204v-1h4l-.2-.8a1.5 1.5 0 0 0-1.5-.9c-.3 0-.7.1-1 .3l-.5.7a2 2 0 0 0-.2.9v.7c0 .5 0 .8.2 1.1.1.3.4.6.6.7.3.2.6.3 1 .3l.7-.1c.2 0 .3-.2.5-.3l.3-.6 1.2.3c0 .3-.2.6-.5.9-.2.3-.6.5-1 .6-.3.2-.7.2-1.2.2Zm4.2 2.4v-9h1.3v1l.4-.5.6-.4a2 2 0 0 1 1-.2 2.6 2.6 0 0 1 2.3 1.5c.3.5.4 1.1.4 1.8s-.1 1.4-.4 1.9c-.2.5-.5.8-1 1.1-.3.3-.8.4-1.3.4a1.9 1.9 0 0 1-1.6-.7l-.3-.4h-.1v3.5h-1.3Zm1.3-5.8c0 .5 0 .9.2 1.2.1.4.3.7.6.9l.9.2c.4 0 .7 0 1-.3.2-.2.4-.4.5-.8l.2-1.2c0-.4 0-.8-.2-1.1-.1-.4-.3-.7-.6-.8-.2-.2-.5-.3-1-.3-.3 0-.6 0-.9.2l-.5.8c-.2.4-.2.8-.2 1.2Zm12.2-5.5c.4 0 .8 0 1.1.2.4.1.8.3 1 .6.4.4.6.8.8 1.3a8.2 8.2 0 0 1 0 4c-.1.7-.3 1.2-.6 1.6-.3.4-.6.7-1 .9a3 3 0 0 1-1.4.3 3 3 0 0 1-1.4-.3 2.6 2.6 0 0 1-1.5-2h1.3c.1.3.3.6.6.8.2.3.6.4 1 .4.6 0 1.1-.3 1.5-.9.3-.5.5-1.3.5-2.3l-.6.6a2.5 2.5 0 0 1-1.6.6c-.5 0-1-.1-1.4-.4-.4-.2-.7-.6-1-1a3 3 0 0 1-.3-1.5c0-.5 0-1 .3-1.5.3-.4.6-.8 1-1a3 3 0 0 1 1.7-.4Zm0 1-1 .3-.5.7c-.2.2-.3.6-.3.9l.3 1 .6.6.9.2a1.7 1.7 0 0 0 1.2-.5l.4-.6.1-.7c0-.3 0-.6-.2-1l-.6-.6c-.3-.2-.6-.2-1-.2Zm7.8 1.3v1h-3.6v-1h3.6Zm-2.6-1.6h1.2v6.2c0 .2 0 .4.2.5 0 .2.1.2.2.3H231.8l.2 1-.3.1a2.5 2.5 0 0 1-1.5 0l-.7-.7-.2-1v-6.4Zm5.4 4.2v3.9h-1.3v-8.7h1.3v3.2l.8-.8c.3-.2.7-.3 1.2-.3s.9 0 1.2.2c.3.2.6.5.8.9.2.3.3.8.3 1.3v4.2h-1.3v-4c0-.5-.1-.9-.4-1.1-.2-.3-.6-.4-1-.4-.3 0-.6 0-.8.2-.3 0-.5.3-.6.5l-.2 1Zm7.6 2.7v.5l-.3 1a16.8 16.8 0 0 1-.5 1.8h-1a85 85 0 0 1 .5-2.8v-.5h1.3Zm4.8 1.2v-1l3-3a16.4 16.4 0 0 0 1.2-1.6l.2-.7c0-.3 0-.6-.2-.8-.2-.2-.3-.4-.6-.5l-.8-.1-.8.1-.5.6c-.2.2-.2.5-.2.8H247c0-.5.1-1 .4-1.4.2-.4.6-.7 1-1l1.4-.2c.6 0 1 0 1.5.3.4.2.7.5 1 .9a2.6 2.6 0 0 1 .2 2.2l-.7 1-1.2 1.4-1.8 1.8h4v1.2H247Zm10.4.1c-.6 0-1.2-.1-1.7-.5-.5-.3-.8-.9-1-1.5a7 7 0 0 1-.5-2.5c0-1 .2-1.7.4-2.4.3-.7.6-1.2 1.1-1.5.5-.4 1-.5 1.7-.5s1.3.1 1.7.5c.5.3.9.9 1.1 1.5.3.7.4 1.5.4 2.4a7 7 0 0 1-.4 2.5c-.2.6-.6 1.2-1 1.5-.5.4-1.1.5-1.8.5Zm0-1c.6 0 1-.4 1.4-1a5 5 0 0 0 .5-2.5c0-.7 0-1.3-.2-1.8s-.4-.9-.7-1.1c-.2-.3-.6-.4-1-.4-.6 0-1 .3-1.4.8-.3.6-.5 1.5-.5 2.5 0 .8.1 1.4.3 1.9.1.5.3.9.6 1.1.3.3.6.4 1 .4Zm4.7.9v-1l3-3a17 17 0 0 0 1.2-1.6l.2-.7a1.3 1.3 0 0 0-.8-1.3l-.8-.1-.8.1-.5.6c-.2.2-.2.5-.2.8h-1.3c0-.5.2-1 .4-1.4.2-.4.6-.7 1-1l1.5-.2c.5 0 1 0 1.4.3.4.2.8.5 1 .9a2.6 2.6 0 0 1 .2 2.2l-.7 1-1.2 1.4-1.7 1.8h3.9v1.2h-5.8Zm7.4 0v-1l3-3a16 16 0 0 0 1.2-1.6l.1-.7c0-.3 0-.6-.2-.8 0-.2-.3-.4-.5-.5l-.8-.1-.8.1-.6.6-.2.8h-1.2c0-.5.1-1 .4-1.4.2-.4.5-.7 1-1l1.4-.2c.6 0 1 0 1.5.3.4.2.7.5 1 .9a2.6 2.6 0 0 1 .2 2.2l-.7 1-1.3 1.4-1.7 1.8h4v1.2h-5.8Zm13.8-8.7v8.7h-1.3v-7.4l-2.1 1.4v-1.3l2.2-1.4h1.2Zm2.4 8.7v-1l3-3a16 16 0 0 0 1.2-1.6l.2-.7-.2-.8-.6-.5-.8-.1-.8.1-.6.6-.1.8h-1.3c0-.5.1-1 .4-1.4.2-.4.5-.7 1-1l1.4-.2c.6 0 1 0 1.5.3.4.2.7.5 1 .9a2.6 2.6 0 0 1 .2 2.2l-.7 1-1.2 1.4-1.8 1.8h4v1.2h-5.8Zm8.2-1-.6-.3a.8.8 0 0 1-.2-.6c0-.3 0-.5.2-.6l.6-.3c.3 0 .5.1.6.3.2.1.3.3.3.6l-.1.4-.4.3-.4.1Zm0-4.5c-.2 0-.4 0-.6-.2a.8.8 0 0 1-.2-.6c0-.2 0-.4.2-.6l.6-.3c.3 0 .5.1.6.3l.3.6-.1.4c-.1.2-.2.3-.4.3l-.4.1Zm5.6 5.6c-.6 0-1.1 0-1.6-.3-.4-.2-.8-.5-1-.8-.3-.4-.5-.8-.5-1.3h1.4c0 .3 0 .5.2.7l.6.4.9.2c.3 0 .6 0 .9-.2.3-.1.5-.3.6-.5.2-.2.3-.5.3-.7 0-.3-.1-.6-.3-.8-.1-.2-.3-.4-.6-.5-.3-.2-.6-.2-1-.2h-.8v-1.1h.7c.4 0 .7 0 .9-.2.2 0 .4-.3.6-.5l.2-.7c0-.3 0-.5-.2-.7l-.5-.5-.8-.1a2 2 0 0 0-.8.1l-.6.5-.2.6h-1.3c0-.4.2-.8.4-1.2.3-.4.6-.6 1-.8l1.5-.3c.6 0 1 0 1.5.3l1 .8.3 1.2a1.9 1.9 0 0 1-1.5 2c.5.1 1 .3 1.3.7.3.4.5.9.5 1.4 0 .5-.1 1-.4 1.3-.3.4-.6.7-1.1.9-.5.2-1 .3-1.6.3Zm4.5-1.8v-1l3.8-6h.8v1.5h-.5l-2.7 4.3h5.2v1.2H304Zm4.2 1.7v-8.7h1.2v8.7h-1.2Zm5.8.1c-.4 0-.8 0-1.2-.2-.3-.1-.6-.4-.8-.7a2 2 0 0 1-.2-1c0-.4 0-.7.2-1l.5-.5.9-.3.9-.2a334.8 334.8 0 0 1 1.5-.3l.1-.3c0-.4 0-.7-.3-.9-.2-.2-.5-.3-1-.3-.4 0-.7.1-1 .3l-.4.6-1.2-.3a2.3 2.3 0 0 1 1.5-1.5 3.7 3.7 0 0 1 2 0c.3 0 .6.1.8.3l.7.7.2 1.2v4.3h-1.2v-.9h-.1c0 .2-.2.3-.4.5a2 2 0 0 1-.6.4l-1 .1Zm.2-1c.4 0 .7 0 1-.2l.5-.5c.2-.3.2-.5.2-.8v-.8l-.2.1a44.8 44.8 0 0 1-2 .4c-.2 0-.4.2-.5.3l-.2.6c0 .3.1.5.4.7l.8.2Zm4.7.9V137h1.2v1h.1c.1-.3.4-.6.7-.8a2 2 0 0 1 1-.3c.5 0 .9 0 1.2.3.3.2.5.5.6.8h.1c.2-.3.4-.6.8-.8.3-.2.7-.3 1.2-.3.6 0 1 .2 1.4.5.4.4.6 1 .6 1.7v4.4h-1.3v-4.3c0-.4-.1-.7-.3-1l-1-.2c-.3 0-.6.1-.9.4-.2.2-.3.5-.3 1v4.1h-1.3v-4.4c0-.3-.1-.6-.3-.8-.2-.2-.5-.3-.9-.3-.2 0-.5 0-.7.2-.2 0-.3.3-.4.5-.2.2-.2.5-.2.8v4H319Z" fill="#F3F3F1"/><path d="m171.6 113.7-7 11.8a1.7 1.7 0 0 0 1.3 2.5h14.2a1.7 1.7 0 0 0 1.4-2.5l-7-11.8a1.7 1.7 0 0 0-3 0v0ZM173 118v3.3M173 124.7h0" stroke="#F67D01" stroke-width="1.5" stroke-linecap="round" stroke-linejoin="round"/><path d="M165.3 175.5h-1.9l4.2-11.6h2l4.2 11.6h-1.9l-3.3-9.5-3.3 9.5Zm.3-4.6h6v1.5h-6V171Zm12.9 4.8a3.4 3.4 0 0 1-3.2-2.1c-.3-.7-.5-1.5-.5-2.4 0-1 .2-1.8.5-2.5.3-.6.7-1.2 1.3-1.5.6-.4 1.2-.5 1.9-.5.5 0 1 0 1.3.2l.8.7.4.6h.1v-4.3h1.7v11.6H181v-1.4h-.1l-.4.7a2.5 2.5 0 0 1-2.1.9Zm.3-1.5a2 2 0 0 0 1.3-.4c.3-.2.6-.6.8-1l.2-1.7c0-.6 0-1.1-.2-1.6-.2-.4-.5-.8-.8-1a2 2 0 0 0-1.3-.4 2 2 0 0 0-1.2.4c-.4.3-.6.6-.8 1a4.5 4.5 0 0 0 0 3.1c.2.6.4 1 .8 1.2.3.3.7.4 1.2.4Zm6.4-7.4h1.7v9.3c0 .6 0 1-.3 1.4a2 2 0 0 1-1 1c-.3.2-.8.3-1.4.3h-.4v-1.5H184.1c.4 0 .7-.1.8-.3.2-.2.3-.5.3-1v-9.2Zm.9-1.4a1 1 0 0 1-.8-.3 1 1 0 0 1-.3-.7c0-.3 0-.5.3-.7.2-.2.5-.3.8-.3.3 0 .5.1.7.3.2.2.3.4.3.7 0 .3 0 .5-.3.7a1 1 0 0 1-.7.3Zm8.6 6.5v-5.1h1.7v8.7h-1.6V174h-.1c-.2.5-.5.8-1 1.2-.4.3-1 .4-1.6.4a2.6 2.6 0 0 1-2.5-1.5 4 4 0 0 1-.4-1.8v-5.5h1.7v5.3c0 .6.2 1 .5 1.4.3.4.8.6 1.3.6a2 2 0 0 0 1.7-1c.2-.3.3-.7.3-1.2Zm10.6-3-1.6.3-.3-.6-.5-.4a2 2 0 0 0-1-.2c-.4 0-.8.1-1.1.3-.4.2-.5.5-.5.9 0 .2.1.5.3.7l1 .4 1.4.3c.8.2 1.4.5 1.8.9.4.4.6.9.6 1.5 0 .5-.1 1-.4 1.4a3 3 0 0 1-1.3 1c-.5.2-1.1.3-1.8.3-1 0-1.8-.2-2.4-.6-.6-.5-1-1-1.2-1.8l1.7-.3c0 .4.3.8.6 1 .3.2.7.3 1.3.3.5 0 1-.1 1.3-.3.3-.3.5-.6.5-.9 0-.3-.1-.5-.3-.7a2 2 0 0 0-1-.4l-1.4-.3c-.8-.2-1.4-.5-1.8-1-.4-.3-.6-.8-.6-1.5 0-.5.1-1 .4-1.3.3-.4.7-.7 1.2-1l1.8-.2c.9 0 1.6.2 2.2.6.5.4.9 1 1 1.6Zm6-2.1v1.3h-4.7v-1.3h4.8Zm-3.4-2.1h1.7v8.2l.1.8.4.3.5.1a2 2 0 0 0 .6 0l.3 1.3-.4.1a3.3 3.3 0 0 1-2-.1l-.9-.8c-.2-.3-.3-.8-.3-1.3v-8.6Zm11.3 5.6v5.2h-1.7v-11.6h1.7v4.3c.3-.5.6-.8 1-1.1a3 3 0 0 1 1.7-.4 2.5 2.5 0 0 1 2.6 1.5c.2.4.3 1 .3 1.7v5.6h-1.7v-5.3c0-.7-.1-1.2-.4-1.5-.4-.4-.8-.6-1.4-.6-.4 0-.8.1-1.1.3-.3.2-.6.4-.7.7l-.3 1.2Zm13.4 1.6v-5.1h1.7v8.7h-1.6V174h-.1a2.7 2.7 0 0 1-2.6 1.6 2.6 2.6 0 0 1-2.5-1.5 4 4 0 0 1-.4-1.8v-5.5h1.7v5.3c0 .6.2 1 .5 1.4.3.4.8.6 1.3.6a2 2 0 0 0 1.7-1c.2-.3.3-.7.3-1.2Zm4 3.6v-8.7h1.7v1.4c.2-.5.5-.9 1-1.1.4-.3.9-.4 1.4-.4.6 0 1.1 0 1.5.4.4.2.7.6.9 1l1-1a3 3 0 0 1 1.7-.4c.8 0 1.4.2 2 .7.4.5.7 1.2.7 2.2v5.9h-1.7v-5.7c0-.6-.2-1-.5-1.3-.3-.2-.7-.4-1.1-.4-.6 0-1 .2-1.3.5-.3.4-.5.8-.5 1.3v5.6h-1.7v-5.8c0-.5-.1-.9-.4-1.1-.3-.3-.7-.5-1.2-.5l-.9.3c-.2.1-.5.4-.6.7-.2.3-.3.6-.3 1v5.4h-1.7Zm14.2 0v-8.7h1.7v8.7h-1.7Zm.8-10a1 1 0 0 1-.7-.4 1 1 0 0 1-.3-.7c0-.3 0-.5.3-.7.2-.2.4-.3.7-.3.3 0 .6.1.8.3.2.2.3.4.3.7 0 .3-.1.5-.3.7a1 1 0 0 1-.8.3Zm6.4 10.2a3.4 3.4 0 0 1-3.2-2.1c-.3-.7-.4-1.5-.4-2.4 0-1 .1-1.8.4-2.5.4-.6.8-1.2 1.3-1.5.6-.4 1.2-.5 2-.5.5 0 1 0 1.2.2.4.2.6.4.8.7l.4.6h.1v-4.3h1.7v11.6h-1.6v-1.4h-.2l-.4.7a2.5 2.5 0 0 1-2 .9Zm.4-1.5a2 2 0 0 0 1.2-.4c.4-.2.6-.6.8-1 .2-.5.3-1 .3-1.7 0-.6-.1-1.1-.3-1.6-.2-.4-.4-.8-.8-1a2 2 0 0 0-1.2-.4 2 2 0 0 0-1.3.4l-.8 1-.2 1.6c0 .6 0 1.1.2 1.6s.5.8.8 1.1c.4.3.8.4 1.3.4Zm6.4 1.3v-8.7h1.7v8.7h-1.7Zm.8-10a1 1 0 0 1-.7-.4 1 1 0 0 1-.3-.7c0-.3 0-.5.3-.7.2-.2.4-.3.7-.3.3 0 .6.1.8.3.2.2.3.4.3.7 0 .3-.1.5-.3.7a1 1 0 0 1-.8.3Zm7.2 1.3v1.3h-4.7v-1.3h4.7Zm-3.5-2.1h1.7v8.2c0 .4 0 .6.2.8 0 .1.2.3.4.3l.5.1a2 2 0 0 0 .6 0l.3 1.3-.4.1a3.3 3.3 0 0 1-2-.1c-.4-.2-.7-.4-1-.8-.1-.3-.3-.8-.3-1.3v-8.6Zm6.5 14a3.5 3.5 0 0 1-1.2-.1l.4-1.4.9.1.6-.3c.2-.1.4-.4.5-.8l.2-.6-3.2-8.8h1.8l2.2 6.7h.1l2.2-6.7h1.9l-3.6 9.9a4 4 0 0 1-.7 1.1c-.2.3-.5.6-.9.7a3 3 0 0 1-1.2.3Z" fill="#fff"/><path d="M329.3 167.8h2.2a3.8 3.8 0 0 1 1.4 7.2c-.4.2-1 .3-1.4.3h-2.3m-4.4 0h-2.3a3.8 3.8 0 0 1-2.7-6.5c.8-.7 1.7-1 2.7-1h2.3M324 171.5h6" stroke="#009FE3" stroke-width="1.5" stroke-linecap="round" stroke-linejoin="round"/></g><rect x="356.7" y="132.3" width="7.2" height="7.2" rx="3.6" transform="rotate(-45 356.7 132.3)" fill="#F67D01" stroke="#fff"/><g filter="url(#c)"><rect x="162.1" y="253" width="413" height="128.5" rx="2" fill="#fff"/></g><path d="M250.7 281.6h-1.6a2.4 2.4 0 0 0-1.7-1.9 3.1 3.1 0 0 0-2.5.3 3 3 0 0 0-1 1.3 5 5 0 0 0-.5 2.1c0 .8.2 1.5.4 2.1.3.6.7 1 1.1 1.3.5.3 1 .4 1.6.4h1l.7-.5a2.4 2.4 0 0 0 1-1.5h1.5c0 .5-.2 1-.5 1.4a3.8 3.8 0 0 1-2.2 1.8c-.4.2-1 .2-1.5.2-.9 0-1.7-.2-2.4-.6-.7-.4-1.2-1-1.6-1.8-.4-.8-.6-1.7-.6-2.8 0-1 .2-2 .6-2.8a4.4 4.4 0 0 1 4-2.4c.5 0 1 0 1.5.2a4 4 0 0 1 2.2 1.8l.5 1.4Zm5 7c-.8 0-1.4-.1-2-.4-.5-.4-.9-.8-1.2-1.4-.3-.6-.4-1.3-.4-2 0-.9.1-1.6.4-2.2a3.3 3.3 0 0 1 3.1-1.8 3.3 3.3 0 0 1 3.1 1.9c.3.5.5 1.2.5 2s-.2 1.5-.5 2a3.3 3.3 0 0 1-3 2Zm0-1.2c.4 0 .8-.1 1-.4.4-.2.6-.5.8-1l.2-1.3c0-.5 0-1-.2-1.3-.2-.4-.4-.8-.7-1-.3-.3-.7-.4-1.2-.4-.4 0-.8.1-1.1.4-.3.2-.6.6-.7 1a4 4 0 0 0-.2 1.3c0 .5 0 1 .2 1.4.1.4.4.7.7 1 .3.2.7.3 1.1.3Zm6.6-3.4v4.5H261v-7.6h1.4v1.2c.2-.4.5-.7.9-1 .4-.2.9-.3 1.4-.3.5 0 1 0 1.4.3.4.2.7.5.9 1 .2.4.3 1 .3 1.5v4.9h-1.5v-4.7c0-.5-.1-1-.4-1.3-.3-.3-.7-.4-1.2-.4-.3 0-.6 0-.9.2-.3.1-.5.3-.6.6-.2.3-.3.7-.3 1Zm9.8 4.6a3 3 0 0 1-2.8-1.8 5 5 0 0 1-.4-2.1c0-.8.1-1.5.4-2.1.3-.6.7-1 1.1-1.4a3 3 0 0 1 1.7-.4c.5 0 .8 0 1.1.2l.7.6.4.5v-3.8h1.6v10.2h-1.5v-1.2h-.1l-.4.6a2.2 2.2 0 0 1-1.8.7Zm.3-1.2c.4 0 .8-.1 1-.4.4-.2.6-.5.8-1l.2-1.3c0-.5 0-1-.2-1.4a2 2 0 0 0-.7-1c-.3-.2-.7-.3-1.1-.3-.4 0-.8.1-1.1.4-.3.2-.5.5-.7 1l-.2 1.3c0 .5 0 1 .2 1.4l.7 1c.3.2.7.3 1.1.3Zm5.6 1.1v-7.6h1.5v7.6H278Zm.7-8.8a1 1 0 0 1-.6-.3.8.8 0 0 1-.3-.6c0-.2 0-.5.3-.6l.6-.3c.3 0 .5.1.7.3.2.1.3.4.3.6 0 .2-.1.5-.3.6a1 1 0 0 1-.7.3Zm6.3 1.2v1.2H281v-1.2h4.1Zm-3-1.9h1.5v7.3l.1.6c0 .2.2.2.3.3h1l.3 1.2-.4.1a3 3 0 0 1-1.7-.1l-.8-.7a2 2 0 0 1-.3-1.1V279Zm4.7 9.5v-7.6h1.5v7.6h-1.5Zm.7-8.8a1 1 0 0 1-.6-.3.8.8 0 0 1-.3-.6c0-.2 0-.5.3-.6.1-.2.4-.3.6-.3.3 0 .5.1.7.3.2.1.3.4.3.6 0 .2-.1.5-.3.6a1 1 0 0 1-.7.3Zm6 9c-.7 0-1.4-.2-1.9-.5-.5-.4-1-.8-1.2-1.4a4.6 4.6 0 0 1 0-4.1 3.3 3.3 0 0 1 3-2c.8 0 1.4.2 2 .6.5.3.9.7 1.2 1.3.3.6.4 1.3.4 2.1s-.1 1.5-.4 2a3.3 3.3 0 0 1-3.1 2Zm0-1.3c.4 0 .8-.1 1.1-.4.3-.2.6-.5.7-1 .2-.3.2-.8.2-1.3s0-1-.2-1.3c-.1-.4-.4-.8-.7-1-.3-.3-.7-.4-1.1-.4-.5 0-.9.1-1.2.4-.3.2-.5.6-.7 1a4 4 0 0 0-.2 1.3c0 .5 0 1 .2 1.4l.7 1c.3.2.7.3 1.2.3Zm6.7-3.4v4.5h-1.5v-7.6h1.4v1.2h.1l.8-1c.4-.2.9-.3 1.5-.3.5 0 1 0 1.3.3.4.2.7.5 1 1 .2.4.3 1 .3 1.5v4.9h-1.5v-4.7c0-.5-.2-1-.4-1.3-.3-.3-.7-.4-1.2-.4-.4 0-.7 0-1 .2l-.6.6-.2 1Zm7.8 4.6a1 1 0 0 1-.7-.3 1 1 0 0 1-.2-.7c0-.3 0-.5.2-.7.2-.2.5-.3.7-.3.3 0 .6.1.7.3.2.2.3.4.3.7l-.1.5c0 .2-.2.3-.4.4a1 1 0 0 1-.5 0Zm0-5.6a1 1 0 0 1-.7-.3 1 1 0 0 1-.2-.7c0-.2 0-.5.2-.7.2-.2.5-.2.7-.2.3 0 .6 0 .7.2.2.2.3.5.3.7l-.1.5c0 .2-.2.3-.4.4a1 1 0 0 1-.5.1Zm7.7 5.5H314l3.6-10.2h1.8l3.7 10.2h-1.6l-3-8.3-2.9 8.3Zm.3-4h5.3v1.3h-5.3v-1.3Zm11.3 4.1a3 3 0 0 1-2.8-1.8 5 5 0 0 1-.4-2.1c0-.8.1-1.5.4-2.1.3-.6.7-1 1.1-1.4a3 3 0 0 1 1.7-.4c.5 0 .8 0 1.1.2l.7.6.4.5v-3.8h1.6v10.2h-1.5v-1.2h-.1l-.4.6-.7.5c-.3.2-.7.2-1.1.2Zm.3-1.2c.4 0 .8-.1 1-.4.4-.2.6-.5.8-1l.2-1.3c0-.5 0-1-.2-1.4a2 2 0 0 0-.7-1c-.3-.2-.7-.3-1.1-.3-.4 0-.8.1-1.1.4-.3.2-.5.5-.7 1l-.2 1.3c0 .5 0 1 .2 1.4l.7 1c.3.2.7.3 1.1.3Zm5.6-6.5h1.5v8.1c0 .5-.1 1-.3 1.3l-.8.8a3 3 0 0 1-1.4.3H331.8V290h.2c.4 0 .7-.1.8-.3.2-.2.3-.5.3-.8v-8.1Zm.7-1.2a1 1 0 0 1-.7-.3.8.8 0 0 1-.2-.6c0-.2 0-.5.2-.6.2-.2.5-.3.7-.3.3 0 .5.1.7.3.2.1.3.4.3.6 0 .2-.1.5-.3.6a1 1 0 0 1-.7.3Zm7.6 5.6V281h1.5v7.6h-1.5v-1.3c-.2.4-.5.7-.9 1-.4.3-.9.4-1.4.4-.5 0-1-.1-1.3-.3-.4-.2-.7-.6-1-1l-.2-1.6V281h1.5v4.6c0 .6.1 1 .4 1.3.3.3.6.4 1.1.4a1.8 1.8 0 0 0 1.8-1.9Zm9.2-2.6-1.3.3c0-.2-.2-.4-.3-.5l-.5-.4-.8-.2c-.4 0-.7.1-1 .3-.3.2-.4.5-.4.7 0 .3 0 .5.2.7l1 .3 1.2.3c.7.2 1.2.4 1.5.8.4.3.6.8.6 1.3 0 .4-.2.9-.4 1.2-.3.4-.7.6-1.1.9a4 4 0 0 1-1.7.3c-.8 0-1.5-.2-2-.6-.6-.4-1-.9-1-1.6l1.4-.2c0 .4.3.7.5.9.3.2.7.3 1.1.3a2 2 0 0 0 1.2-.3c.3-.3.4-.5.4-.8 0-.2 0-.4-.2-.6l-.8-.4-1.3-.3c-.7-.1-1.3-.4-1.6-.7-.4-.4-.5-.8-.5-1.4 0-.4.1-.8.4-1.2.2-.3.6-.6 1-.7.4-.2 1-.3 1.5-.3.9 0 1.5.1 2 .5.4.4.8.8 1 1.4Zm5.4-1.8v1.2h-4.2v-1.2h4.2Zm-3-1.9h1.4v7.3l.1.6c.1.2.2.2.4.3H355.8l.3 1.2-.4.1a3 3 0 0 1-1.7-.1l-.8-.7a2 2 0 0 1-.3-1.1V279Zm9.8 5v4.5h-1.5v-10.2h1.5v3.8l.9-1c.4-.2.8-.3 1.4-.3.6 0 1 0 1.4.3.4.2.7.5 1 1l.3 1.5v4.9h-1.5v-4.7c0-.5-.2-1-.5-1.3-.3-.3-.7-.4-1.2-.4a2 2 0 0 0-1 .2l-.6.6-.2 1Zm11.8 1.3V281h1.5v7.6h-1.5v-1.3c-.3.4-.5.7-1 1-.3.3-.8.4-1.4.4-.5 0-.9-.1-1.3-.3-.3-.2-.6-.6-.8-1-.3-.4-.4-1-.4-1.6V281h1.5v4.6c0 .6.2 1 .5 1.3.2.3.6.4 1 .4a1.8 1.8 0 0 0 1.9-1.9Zm3.5 3.2v-7.6h1.4v1.2c.2-.4.5-.7.9-1 .3-.2.8-.3 1.3-.3s.9 0 1.2.3c.4.3.6.6.8 1l1-1c.4-.2.8-.3 1.4-.3.7 0 1.2.2 1.7.6.4.5.6 1.1.6 2v5.1H387v-5c0-.5-.2-.9-.5-1.1-.3-.2-.6-.4-1-.4-.5 0-.8.2-1.1.5-.3.3-.4.7-.4 1.1v4.9h-1.5v-5c0-.5-.1-.8-.4-1-.2-.3-.6-.5-1-.5-.3 0-.5.1-.8.3-.2.1-.4.3-.5.6-.2.2-.3.5-.3.9v4.7h-1.4Zm12.3 0v-7.6h1.5v7.6h-1.5Zm.8-8.8a1 1 0 0 1-.7-.3.8.8 0 0 1-.3-.6c0-.2.1-.5.3-.6.2-.2.4-.3.7-.3.2 0 .5.1.6.3.2.1.3.4.3.6 0 .2 0 .5-.3.6a1 1 0 0 1-.6.3Zm5.6 9a3 3 0 0 1-2.8-1.9 5 5 0 0 1-.4-2.1c0-.8.1-1.5.4-2.1.3-.6.7-1 1.1-1.4a3 3 0 0 1 1.7-.4c.5 0 .8 0 1.1.2l.7.6.4.5v-3.8h1.6v10.2H399v-1.2h-.1l-.4.6a2.2 2.2 0 0 1-1.8.7Zm.3-1.3c.4 0 .8-.1 1-.4.4-.2.6-.5.8-1l.2-1.3c0-.5 0-1-.2-1.4a2 2 0 0 0-.7-1c-.3-.2-.7-.3-1-.3-.5 0-1 .1-1.2.4-.3.2-.5.5-.7 1l-.2 1.3c0 .5 0 1 .2 1.4l.7 1c.3.2.7.3 1.1.3Zm5.6 1.1v-7.6h1.5v7.6h-1.5Zm.7-8.8a1 1 0 0 1-.6-.3.8.8 0 0 1-.3-.6c0-.2 0-.5.3-.6l.6-.3c.3 0 .5.1.7.3.2.1.3.4.3.6 0 .2-.1.5-.3.6a1 1 0 0 1-.7.3Zm6.3 1.2v1.2h-4.1v-1.2h4.1Zm-3-1.9h1.5v7.3l.1.6c0 .2.2.2.3.3h1l.3 1.2-.4.1a3 3 0 0 1-1.7-.1l-.8-.7a2 2 0 0 1-.3-1.1V279Zm5.6 12.4a3.1 3.1 0 0 1-1-.2l.4-1.2h.7c.2 0 .4 0 .5-.2.2-.1.4-.4.5-.7l.2-.5-2.8-7.7h1.6l1.9 5.9 2-6h1.6l-3.1 8.7-.6 1-.8.7-1 .2Z" fill="#6A6C75"/><rect x="520.1" y="272.5" width="35" height="20" rx="10" fill="#7475ED"/><circle cx="530.1" cy="282.5" r="7.5" fill="#fff"/><rect x="182.1" y="272.5" width="44" height="44" rx="4" fill="#F6F6F9"/><path d="M210.1 303.5a3 3 0 1 0 0-6 3 3 0 0 0 0 6ZM198.1 291.5a3 3 0 1 0 0-6 3 3 0 0 0 0 6ZM205.1 288.5h3a2 2 0 0 1 2 2v7M198.1 291.5v12" stroke="#000" stroke-width="2" stroke-linecap="round" stroke-linejoin="round"/><rect x="310.1" y="338.5" width="52" height="23" rx="2" fill="#F6F6F9"/><path d="M315.5 355.5v-11.6h1.4v5.1h6.2V344h1.5v11.6H323v-5.2H317v5.2h-1.4Zm12.4-11.6 3.4 9.8h.1l3.5-9.8h1.5l-4.3 11.6h-1.5l-4.2-11.6h1.5Zm9.8 11.6h-1.5l4.3-11.6h1.4l4.3 11.6h-1.5l-3.5-9.8-3.5 9.8Zm.5-4.5h6v1.2h-6V351Zm18.6-3.5h-1.4a3 3 0 0 0-1.2-1.8c-.3-.3-.6-.4-1-.5a3.9 3.9 0 0 0-3 .4c-.6.3-1 .8-1.3 1.5-.4.7-.5 1.6-.5 2.6s.1 1.8.5 2.5c.3.7.8 1.3 1.3 1.6.6.4 1.2.5 2 .5l1-.1 1-.5a3 3 0 0 0 1.2-1.8h1.4c0 .6-.3 1-.6 1.6a4.4 4.4 0 0 1-2.4 1.9 5.2 5.2 0 0 1-4.3-.5 5 5 0 0 1-1.8-2 7 7 0 0 1-.7-3.2 7 7 0 0 1 .7-3.2 4.9 4.9 0 0 1 4.5-2.8c.5 0 1 0 1.6.3a4.5 4.5 0 0 1 2.4 1.9c.3.5.5 1 .6 1.6Z" fill="#000"/><rect x="390.1" y="338.5" width="33" height="23" rx="2" fill="#F6F6F9"/><path d="M405.3 349.7a7 7 0 0 1-.6 3.2 4.9 4.9 0 0 1-4.5 2.8 4.9 4.9 0 0 1-4.5-2.8 7 7 0 0 1-.6-3.2 7 7 0 0 1 .6-3.2 4.9 4.9 0 0 1 4.5-2.8 4.9 4.9 0 0 1 4.5 2.8c.4.9.6 2 .6 3.2Zm-1.3 0c0-1-.2-1.9-.5-2.6-.4-.7-.8-1.2-1.4-1.5-.5-.4-1.2-.6-1.9-.6s-1.3.2-1.9.6c-.6.3-1 .8-1.4 1.5-.3.7-.5 1.6-.5 2.6s.2 1.8.5 2.5c.4.7.8 1.3 1.4 1.6.6.4 1.2.5 2 .5a3.5 3.5 0 0 0 3.2-2c.3-.8.5-1.6.5-2.6Zm13-5.8v11.6h-1.4l-6.4-9.1v9.1h-1.5v-11.6h1.4l6.3 9.1h.2V344h1.3ZM246.1 346.8v1.1h-4.5v-1.1h4.5Zm-3.2-2.1h1.4v8.3l.1.9c.2.1.3.3.5.3l.5.1H246l.3 1.2a2.7 2.7 0 0 1-1 .1c-.4 0-.7 0-1.1-.2-.4-.2-.7-.4-1-.8-.1-.3-.3-.7-.3-1.2v-8.7Zm6.8 5.6v5.2h-1.4v-11.6h1.4v4.2h.1c.2-.4.5-.8 1-1a3 3 0 0 1 1.6-.4c.6 0 1 0 1.5.3s.8.6 1 1.1c.3.5.4 1.1.4 1.9v5.5H254V350c0-.6-.2-1.2-.5-1.6a2 2 0 0 0-1.5-.5c-.5 0-.8 0-1.2.2a2 2 0 0 0-.8.9c-.2.3-.3.7-.3 1.3Zm11.8 5.4c-.9 0-1.6-.2-2.2-.6-.6-.4-1-.9-1.4-1.5-.3-.7-.5-1.5-.5-2.4 0-.9.2-1.7.5-2.4.3-.6.8-1.2 1.4-1.6a4.1 4.1 0 0 1 3.4-.4 3.3 3.3 0 0 1 2 2.2c.3.5.4 1.2.4 2v.6h-6.8v-1.2h5.4c0-.5 0-.9-.3-1.3a2.2 2.2 0 0 0-2-1.2c-.6 0-1 .1-1.5.4l-.9 1a3 3 0 0 0-.3 1.3v.8c0 .7.1 1.2.4 1.7.2.4.5.8 1 1 .3.3.8.4 1.4.4.3 0 .6 0 1-.2l.7-.4.4-.8 1.3.4c-.1.4-.3.8-.6 1.1-.4.4-.8.6-1.2.8-.5.2-1 .3-1.6.3Zm7-5.4v5.2H267v-8.7h1.3v1.3h.1c.2-.4.5-.8 1-1 .4-.3 1-.4 1.6-.4.6 0 1 0 1.5.3s.8.6 1 1.1c.3.5.4 1.1.4 1.9v5.5h-1.3V350c0-.6-.2-1.2-.6-1.6-.3-.3-.8-.5-1.4-.5-.4 0-.8 0-1.2.2a2 2 0 0 0-.8.9l-.2 1.3Zm18.7-1.6-1.3.4-.3-.6c-.1-.2-.3-.4-.6-.5l-1-.2c-.5 0-1 .1-1.3.4-.3.2-.5.5-.5 1 0 .2.1.5.4.7.2.2.6.4 1.1.5l1.3.3c.8.2 1.4.5 1.7.9.4.4.6.9.6 1.5 0 .5-.1 1-.4 1.3-.3.4-.7.7-1.2 1-.5.2-1.1.3-1.8.3a4 4 0 0 1-2.2-.6c-.6-.4-1-1-1.1-1.7l1.3-.3c0 .5.3.8.6 1 .4.3.8.4 1.4.4.6 0 1.1-.1 1.5-.4.3-.3.5-.6.5-1a1 1 0 0 0-.3-.7 2 2 0 0 0-1-.5l-1.4-.3c-.8-.2-1.4-.5-1.8-1-.4-.3-.5-.8-.5-1.4 0-.5.1-1 .4-1.3.3-.4.6-.7 1.1-1a4 4 0 0 1 1.7-.2c.8 0 1.5.1 2 .5s.8 1 1 1.5Zm5.8 7c-.9 0-1.6-.2-2.2-.6-.6-.4-1-.9-1.4-1.5-.3-.7-.5-1.5-.5-2.4 0-.9.2-1.7.5-2.4.3-.6.8-1.2 1.4-1.6a4.2 4.2 0 0 1 3.4-.4 3.3 3.3 0 0 1 2 2.2c.3.5.4 1.2.4 2v.6H290v-1.2h5.3c0-.5 0-.9-.3-1.3a2.2 2.2 0 0 0-2-1.2c-.6 0-1 .1-1.4.4-.4.2-.7.6-1 1a3 3 0 0 0-.2 1.3v.8c0 .7 0 1.2.3 1.7.2.4.6.8 1 1 .4.3.8.4 1.4.4.3 0 .7 0 1-.2l.7-.4.5-.8 1.3.4-.7 1.1c-.3.4-.7.6-1.2.8-.5.2-1 .3-1.6.3Zm9.4-9v1.2H298v-1.1h4.5Zm-3.2-2h1.4v8.3l.1.9c.2.1.3.3.5.3l.5.1H302.3l.3 1.2a2.8 2.8 0 0 1-1 .1c-.4 0-.8 0-1.1-.2-.4-.2-.7-.4-1-.8-.1-.3-.3-.7-.3-1.2v-8.7ZM373.1 346.8v1.1h-4.5v-1.1h4.5Zm-3.2-2.1h1.4v8.3l.1.9c.2.1.3.3.5.3l.5.1H373l.3 1.2a2.7 2.7 0 0 1-1 .1c-.4 0-.7 0-1.1-.2-.4-.2-.7-.4-1-.8-.1-.3-.3-.7-.3-1.2v-8.7Zm8.7 11c-.8 0-1.5-.2-2-.6-.7-.4-1.1-.9-1.4-1.6-.4-.6-.5-1.4-.5-2.3 0-1 .1-1.7.5-2.4.3-.7.7-1.2 1.3-1.6.6-.4 1.3-.5 2.1-.5s1.5.1 2 .5c.7.4 1.1 1 1.5 1.6.3.7.5 1.5.5 2.4 0 .9-.2 1.7-.5 2.3-.4.7-.8 1.2-1.4 1.6-.6.4-1.3.6-2 .6Zm0-1.2c.6 0 1.1-.2 1.5-.5.4-.3.7-.7.8-1.2a4.7 4.7 0 0 0 0-3.3c-.1-.5-.4-.9-.8-1.2-.4-.3-.9-.4-1.5-.4s-1 .1-1.5.4c-.4.3-.6.7-.8 1.3a4.6 4.6 0 0 0 0 3.3c.2.4.4.8.8 1.1.4.3 1 .5 1.5.5ZM244 310.9v11.6h-1.5v-11.6h1.4Zm6.5 2.9v1.1h-4.7v-1.1h4.7Zm-3.3 8.7v-10c0-.4 0-.8.3-1.2.3-.3.6-.6 1-.7.3-.2.7-.3 1.1-.3a3.4 3.4 0 0 1 1.3.2l-.4 1.2h-.3l-.4-.1c-.5 0-.8 0-1 .3-.2.2-.3.6-.3 1v9.6h-1.3Z" fill="#000"/><rect x="257.1" y="305.5" width="73" height="23" rx="2" fill="#F6F6F9"/><path d="M263.7 317.3v5.2h-1.4v-11.6h1.4v4.2h.1c.2-.4.5-.8 1-1a3 3 0 0 1 1.6-.4c.6 0 1 0 1.5.3s.8.6 1 1.1c.3.5.4 1.1.4 1.9v5.5H268V317c0-.6-.2-1.2-.5-1.6a2 2 0 0 0-1.5-.5c-.5 0-.8 0-1.2.2a2 2 0 0 0-.8.9c-.2.3-.3.7-.3 1.3Zm13.6 1.6v-5.1h1.3v8.7h-1.3V321l-1 1.2c-.5.3-1 .4-1.7.4a3 3 0 0 1-1.4-.3c-.5-.3-.8-.7-1-1.1-.3-.5-.4-1.1-.4-1.9v-5.5h1.3v5.4c0 .7.2 1.2.6 1.6.3.3.8.5 1.4.5a2.3 2.3 0 0 0 1.8-1c.3-.4.4-.8.4-1.4Zm3.8 3.6v-8.7h1.3v1.3h.1c.2-.4.5-.8.9-1 .4-.3.9-.4 1.4-.4.6 0 1.1 0 1.5.4.4.2.7.6.9 1 .3-.4.6-.8 1-1a3 3 0 0 1 1.7-.4c.8 0 1.4.2 2 .7.4.5.7 1.2.7 2.3v5.8h-1.4v-5.8c0-.7-.2-1.1-.5-1.4a2 2 0 0 0-1.3-.4c-.6 0-1 .1-1.4.5a2 2 0 0 0-.5 1.4v5.7h-1.4v-6c0-.5-.1-.9-.4-1.2-.4-.3-.8-.4-1.3-.4-.3 0-.7 0-1 .2l-.7.8c-.2.3-.3.7-.3 1.1v5.5h-1.3Zm13.9 0v-8.7h1.3v8.7H295Zm.7-10.2a1 1 0 0 1-.7-.2.9.9 0 0 1-.3-.7c0-.2.1-.5.3-.6.2-.2.4-.3.7-.3.2 0 .5 0 .7.3l.2.6c0 .3 0 .5-.2.7a1 1 0 0 1-.7.2Zm6.4 10.4a3.4 3.4 0 0 1-3.2-2.1c-.4-.7-.5-1.5-.5-2.4 0-1 .1-1.8.5-2.4.3-.7.7-1.2 1.3-1.6.5-.4 1.2-.5 2-.5.5 0 1 0 1.3.2.3.2.6.4.7.7l.4.6h.2v-4.3h1.3v11.6h-1.3v-1.3h-.2l-.4.6-.8.6c-.3.2-.7.3-1.3.3Zm.2-1.2c.5 0 1-.2 1.3-.4.4-.3.7-.7.9-1.2.2-.5.3-1.1.3-1.8 0-.6-.1-1.2-.3-1.7-.2-.5-.5-.8-.8-1.1-.4-.3-.9-.4-1.4-.4-.6 0-1 .1-1.4.4-.4.3-.7.7-.9 1.2a4.8 4.8 0 0 0 0 3.4c.2.4.5.8.9 1.1.3.3.8.5 1.4.5Zm6.4 1v-8.7h1.4v8.7h-1.4Zm.7-10.2a1 1 0 0 1-.7-.2.9.9 0 0 1-.2-.7c0-.2 0-.5.2-.6.2-.2.5-.3.7-.3.3 0 .5 0 .7.3.2.1.3.4.3.6 0 .3-.1.5-.3.7a1 1 0 0 1-.7.2Zm7 1.5v1.1h-4.6v-1.1h4.5Zm-3.3-2.1h1.4v8.3l.1.9c.1.1.3.3.5.3l.5.1H316.2l.3 1.2a2.7 2.7 0 0 1-1 .1c-.4 0-.8 0-1.1-.2-.4-.2-.7-.4-1-.8-.2-.3-.3-.7-.3-1.2v-8.7Zm6.1 14a3 3 0 0 1-1 0l.4-1.3.8.1c.3 0 .5-.1.7-.3.2-.2.4-.5.5-1l.3-.7-3.2-8.7h1.4l2.4 7h.1l2.4-7h1.5l-3.7 10-.6 1-.9.8-1 .2ZM337.3 322.5v-8.7h1.4v8.7h-1.4Zm.7-10.2a1 1 0 0 1-.6-.2.9.9 0 0 1-.3-.7c0-.2 0-.5.3-.6.1-.2.4-.3.6-.3.3 0 .5 0 .7.3.2.1.3.4.3.6 0 .3-.1.5-.3.7a1 1 0 0 1-.7.2Zm9.3 3.4-1.2.4-.3-.6-.6-.5-1-.2c-.5 0-1 .1-1.3.4-.4.2-.5.5-.5 1 0 .2 0 .5.3.7l1.2.5 1.3.3c.7.2 1.3.5 1.7.9.4.4.6.9.6 1.5 0 .5-.2 1-.4 1.3-.3.4-.7.7-1.2 1-.6.2-1.1.3-1.8.3a4 4 0 0 1-2.2-.6c-.6-.4-1-1-1.1-1.7l1.2-.3c.2.5.4.8.7 1 .4.3.8.4 1.4.4.6 0 1-.1 1.4-.4.4-.3.6-.6.6-1a1 1 0 0 0-.3-.7 2 2 0 0 0-1-.5l-1.5-.3c-.8-.2-1.3-.5-1.7-1-.4-.3-.6-.8-.6-1.4 0-.5.2-1 .4-1.3.3-.4.7-.7 1.2-1a4 4 0 0 1 1.6-.2c.9 0 1.6.1 2 .5.6.4 1 1 1.1 1.5Z" fill="#000"/><rect x="355.1" y="305.5" width="30" height="23" rx="2" fill="#F6F6F9"/><path d="m368 318.4-7.3 3.7v-1.4l5.6-2.7v-.2.1l-5.6-2.7v-1.4l7.4 3.7v1Zm3.4-1.5v-1.2h7v1.2h-7Zm0 3.4V319h7v1.3h-7ZM396.1 313.8v1.1h-4.5v-1.1h4.5Zm-3.2-2.1h1.4v8.3l.1.9c.2.1.3.3.5.3l.5.1H396l.3 1.2a2.7 2.7 0 0 1-1 .1c-.4 0-.7 0-1.1-.2-.4-.2-.7-.4-1-.8-.1-.3-.3-.7-.3-1.2v-8.7Zm6.8 5.6v5.2h-1.4v-11.6h1.4v4.2h.1c.2-.4.5-.8 1-1a3 3 0 0 1 1.6-.4c.6 0 1 0 1.5.3s.8.6 1 1.1c.3.5.4 1.1.4 1.9v5.5H404V317c0-.6-.2-1.2-.5-1.6a2 2 0 0 0-1.5-.5c-.5 0-.8 0-1.2.2a2 2 0 0 0-.8.9c-.2.3-.3.7-.3 1.3Zm10.7 5.4c-.6 0-1-.1-1.5-.3-.5-.2-.8-.5-1.1-1-.3-.3-.4-.8-.4-1.4 0-.5 0-.9.3-1.2.2-.3.4-.6.8-.7l1-.4a13.6 13.6 0 0 1 2.6-.4l.7-.2c.2 0 .2-.2.2-.4 0-.6-.1-1-.4-1.4-.3-.3-.8-.5-1.4-.5-.7 0-1.2.2-1.5.5-.4.2-.6.5-.8.9l-1.3-.5c.3-.5.6-1 1-1.2.3-.3.8-.5 1.2-.7a5.2 5.2 0 0 1 2.3 0c.4 0 .7.2 1 .4.4.2.7.5 1 .9.2.4.3 1 .3 1.6v5.8H413v-1.2l-.5.6-.8.6-1.3.2Zm.2-1.2c.5 0 1-.1 1.3-.3a2.1 2.1 0 0 0 1.1-1.9v-1.2l-.3.2-.7.1a28.3 28.3 0 0 1-2.3.4l-.7.5c-.2.2-.3.4-.3.8 0 .5.2.8.6 1 .3.3.7.4 1.3.4Zm7.6-4.3v5.3h-1.4v-8.7h1.3v1.3h.1c.2-.4.5-.8 1-1 .4-.3 1-.4 1.6-.4.6 0 1 0 1.5.3s.8.6 1 1.1c.3.5.4 1.1.4 1.9v5.5h-1.3V317c0-.6-.2-1.2-.5-1.6-.4-.3-.9-.5-1.5-.5-.4 0-.8 0-1.2.2a2 2 0 0 0-.8.9l-.2 1.3ZM483.2 313.8v1.1h-4.7v-1.1h4.7Zm-3.3 8.7v-10c0-.4.2-.8.4-1.2.2-.3.5-.6 1-.7.3-.2.7-.3 1-.3a3.4 3.4 0 0 1 1.4.2l-.4 1.2h-.3l-.5-.1c-.4 0-.7 0-1 .3l-.2 1v9.6h-1.4Zm8.4.2c-.8 0-1.5-.2-2-.6-.7-.4-1.1-.9-1.5-1.6-.3-.6-.5-1.4-.5-2.3 0-1 .2-1.7.5-2.4.4-.7.8-1.2 1.4-1.6.6-.4 1.3-.5 2.1-.5s1.5.1 2 .5c.7.4 1.1 1 1.5 1.6.3.7.5 1.5.5 2.4 0 .9-.2 1.7-.5 2.3-.4.7-.8 1.2-1.4 1.6-.6.4-1.3.6-2.1.6Zm0-1.2c.6 0 1-.2 1.5-.5.4-.3.6-.7.8-1.2a4.7 4.7 0 0 0 0-3.3c-.1-.5-.4-.9-.8-1.2-.4-.3-.9-.4-1.5-.4s-1 .1-1.5.4c-.4.3-.7.7-.8 1.3a4.6 4.6 0 0 0 0 3.3c.1.4.4.8.8 1.1.4.3.9.5 1.5.5Zm6 1v-8.7h1.3v1.3c.2-.4.5-.8 1-1 .4-.3.8-.5 1.4-.5a14.1 14.1 0 0 1 .7 0v1.4h-.3a3 3 0 0 0-.6 0c-.4 0-.8 0-1 .2a2 2 0 0 0-1 1.8v5.5h-1.5Z" fill="#000"/><rect x="431.1" y="305.5" width="41" height="23" rx="2" fill="#F6F6F9"/><path d="M440 322.7c-.7 0-1.4-.2-2-.5-.6-.2-1-.6-1.4-1.1-.3-.5-.5-1-.5-1.7a3 3 0 0 1 1-2.4c.4-.3.8-.5 1.2-.5v-.1c-.5-.2-1-.5-1.3-1-.3-.4-.5-1-.5-1.6a3.2 3.2 0 0 1 1.7-2.7 4 4 0 0 1 1.9-.4 4 4 0 0 1 1.8.4c.5.3 1 .6 1.2 1.1a2.9 2.9 0 0 1 0 3.2c-.4.5-.8.8-1.3 1 .4.1.8.3 1 .6.4.3.7.6.9 1l.3 1.4a3 3 0 0 1-.5 1.7c-.3.5-.8.9-1.4 1.1-.6.3-1.3.5-2 .5Zm0-1.3c.6 0 1 0 1.4-.2.4-.2.7-.5.9-.8.2-.3.3-.6.3-1 0-.5-.1-.9-.3-1.2-.2-.4-.5-.6-1-.8-.3-.2-.8-.3-1.2-.3a3 3 0 0 0-1.4.3c-.4.2-.7.4-.9.8a2 2 0 0 0-.3 1.1c0 .5 0 .8.3 1.1.2.3.5.6.9.8l1.4.2Zm0-5.5c.5 0 .8-.1 1.2-.3a1.9 1.9 0 0 0 1-1.7 2 2 0 0 0-.3-1c-.1-.3-.4-.6-.7-.7-.3-.2-.7-.3-1.1-.3-.5 0-.9.1-1.2.3-.3.1-.6.4-.7.7a2 2 0 0 0-.3 1c0 .4 0 .7.3 1 .1.3.4.6.7.7.4.2.7.3 1.2.3Zm10 6.8c-.9 0-1.6-.3-2.2-.7-.6-.5-1-1.2-1.4-2-.3-1-.5-2-.5-3.3 0-1.3.2-2.3.5-3.2.3-1 .8-1.6 1.4-2 .6-.6 1.3-.8 2.2-.8.8 0 1.6.2 2.2.7.6.5 1 1.2 1.3 2 .4 1 .5 2 .5 3.3 0 1.2-.1 2.3-.5 3.2-.3 1-.7 1.6-1.3 2-.6.5-1.4.8-2.2.8Zm0-1.3c.8 0 1.5-.4 2-1.2.4-.8.7-2 .7-3.5 0-1-.1-1.9-.4-2.6-.2-.7-.5-1.2-.9-1.6a2 2 0 0 0-1.4-.6c-.9 0-1.5.4-2 1.3-.5.8-.7 2-.7 3.5 0 1 .1 1.8.3 2.6.2.7.5 1.2 1 1.6.3.3.8.5 1.4.5Zm12.1-1v-.7l.3-1.2c.2-.3.4-.6.8-.8.3-.2.7-.3 1.2-.3s.9 0 1.2.3c.4.2.6.5.8.8.2.4.2.8.2 1.2v.6c0 .4 0 .8-.2 1.2a2 2 0 0 1-2 1.2c-.5 0-1-.1-1.3-.4l-.7-.8-.3-1.2Zm1.2-.7v.6c0 .4 0 .7.2 1 .2.2.5.4.9.4s.7-.2.8-.4c.2-.3.3-.6.3-1v-.6c0-.3-.1-.7-.3-1-.1-.2-.4-.4-.8-.4s-.7.2-.9.5l-.2.9Zm-7-6v-.7c0-.4.1-.8.3-1.1a2.1 2.1 0 0 1 2-1.2c.5 0 .9.1 1.2.3.4.2.6.5.8.9.2.3.2.7.2 1.1v.7c0 .4 0 .8-.2 1.1a2 2 0 0 1-2 1.2c-.5 0-1-.1-1.3-.3-.3-.2-.5-.5-.7-.9-.2-.3-.3-.7-.3-1.1Zm1.2-.7v.7c0 .3 0 .6.2 1 .2.2.5.3.9.3s.7-.1.8-.4c.2-.3.3-.6.3-1v-.6c0-.3 0-.6-.3-.9-.1-.3-.4-.4-.8-.4s-.7.1-.9.4l-.2 1Zm-.7 9.5 8-11.6h1.2l-8 11.6h-1.2Z" fill="#000"/><rect x="505.1" y="305.5" width="50" height="23" rx="2" fill="#F6F6F9"/><path d="M514 322.7a4 4 0 0 1-1.8-.4c-.6-.3-1-.7-1.3-1.1a3 3 0 0 1-.6-1.6h1.4c0 .5.3 1 .7 1.3.5.3 1 .5 1.6.5a2.4 2.4 0 0 0 2.1-1.2c.2-.4.3-.9.3-1.4 0-.5 0-1-.3-1.3a2.5 2.5 0 0 0-2.2-1.3 3.6 3.6 0 0 0-2 .6l-1.4-.2.7-5.7h6v1.2h-4.8l-.4 3.4 1-.4c.3-.2.7-.2 1.1-.2a3.6 3.6 0 0 1 3.2 1.9c.3.6.5 1.2.5 2a4 4 0 0 1-.5 2c-.3.6-.8 1-1.4 1.4-.5.3-1.2.5-2 .5Zm10.6-.2v-8.7h1.3v1.3c.3-.4.6-.8 1-1 .4-.3.9-.4 1.4-.4.6 0 1 0 1.5.4.4.2.7.6.9 1 .3-.4.6-.8 1-1a3 3 0 0 1 1.7-.4c.8 0 1.4.2 1.9.7.5.5.7 1.2.7 2.3v5.8h-1.3v-5.8c0-.7-.2-1.1-.5-1.4a2 2 0 0 0-1.3-.4c-.6 0-1 .1-1.4.5a2 2 0 0 0-.5 1.4v5.7h-1.4v-6c0-.5-.1-.9-.5-1.2-.3-.3-.7-.4-1.2-.4-.3 0-.7 0-1 .2l-.7.8c-.2.3-.3.7-.3 1.1v5.5h-1.3Zm13.9 0v-8.7h1.3v8.7h-1.3Zm.7-10.2a1 1 0 0 1-.7-.2.9.9 0 0 1-.3-.7c0-.2.1-.5.3-.6.2-.2.4-.3.7-.3.2 0 .5 0 .6.3.2.1.3.4.3.6 0 .3 0 .5-.3.7a1 1 0 0 1-.6.2Zm4.4 5v5.2h-1.3v-8.7h1.3v1.3c.3-.4.6-.8 1-1 .4-.3 1-.4 1.6-.4.6 0 1.1 0 1.6.3.4.3.8.6 1 1.1.3.5.4 1.1.4 1.9v5.5h-1.3V317c0-.6-.2-1.2-.6-1.6-.3-.3-.8-.5-1.4-.5-.5 0-.9 0-1.2.2a2 2 0 0 0-.8.9c-.2.3-.3.7-.3 1.3Z" fill="#000"/><defs><filter id="a" x="0" y="1" width="576" height="389.5" filterUnits="userSpaceOnUse" color-interpolation-filters="sRGB"><feFlood flood-opacity="0" result="BackgroundImageFix"/><feColorMatrix in="SourceAlpha" values="0 0 0 0 0 0 0 0 0 0 0 0 0 0 0 0 0 0 127 0" result="hardAlpha"/><feMorphology radius="4" in="SourceAlpha" result="effect1_dropShadow_227_648"/><feOffset dy="12"/><feGaussianBlur stdDeviation="21"/><feColorMatrix values="0 0 0 0 0.0941176 0 0 0 0 0.152941 0 0 0 0 0.294118 0 0 0 0.12 0"/><feBlend in2="BackgroundImageFix" result="effect1_dropShadow_227_648"/><feColorMatrix in="SourceAlpha" values="0 0 0 0 0 0 0 0 0 0 0 0 0 0 0 0 0 0 127 0" result="hardAlpha"/><feMorphology radius="6" in="SourceAlpha" result="effect2_dropShadow_227_648"/><feOffset dy="8"/><feGaussianBlur stdDeviation="9"/><feColorMatrix values="0 0 0 0 0.0941176 0 0 0 0 0.152941 0 0 0 0 0.294118 0 0 0 0.12 0"/><feBlend in2="effect1_dropShadow_227_648" result="effect2_dropShadow_227_648"/><feBlend in="SourceGraphic" in2="effect2_dropShadow_227_648" result="shape"/></filter><filter id="b" x="139" y="91.5" width="221" height="112" filterUnits="userSpaceOnUse" color-interpolation-filters="sRGB"><feFlood flood-opacity="0" result="BackgroundImageFix"/><feColorMatrix in="SourceAlpha" values="0 0 0 0 0 0 0 0 0 0 0 0 0 0 0 0 0 0 127 0" result="hardAlpha"/><feOffset dy="2"/><feGaussianBlur stdDeviation="3"/><feComposite in2="hardAlpha" operator="out"/><feColorMatrix values="0 0 0 0 0 0 0 0 0 0 0 0 0 0 0 0 0 0 0.25 0"/><feBlend in2="BackgroundImageFix" result="effect1_dropShadow_227_648"/><feBlend in="SourceGraphic" in2="effect1_dropShadow_227_648" result="shape"/></filter><filter id="c" x="124.1" y="227" width="489" height="204.5" filterUnits="userSpaceOnUse" color-interpolation-filters="sRGB"><feFlood flood-opacity="0" result="BackgroundImageFix"/><feColorMatrix in="SourceAlpha" values="0 0 0 0 0 0 0 0 0 0 0 0 0 0 0 0 0 0 127 0" result="hardAlpha"/><feMorphology radius="4" in="SourceAlpha" result="effect1_dropShadow_227_648"/><feOffset dy="12"/><feGaussianBlur stdDeviation="21"/><feColorMatrix values="0 0 0 0 0.0941176 0 0 0 0 0.152941 0 0 0 0 0.294118 0 0 0 0.12 0"/><feBlend in2="BackgroundImageFix" result="effect1_dropShadow_227_648"/><feColorMatrix in="SourceAlpha" values="0 0 0 0 0 0 0 0 0 0 0 0 0 0 0 0 0 0 127 0" result="hardAlpha"/><feMorphology radius="6" in="SourceAlpha" result="effect2_dropShadow_227_648"/><feOffset dy="8"/><feGaussianBlur stdDeviation="9"/><feColorMatrix values="0 0 0 0 0.0941176 0 0 0 0 0.152941 0 0 0 0 0.294118 0 0 0 0.12 0"/><feBlend in2="effect1_dropShadow_227_648" result="effect2_dropShadow_227_648"/><feBlend in="SourceGraphic" in2="effect2_dropShadow_227_648" result="shape"/></filter></defs></svg>