<svg width="623" height="445" fill="none" xmlns="http://www.w3.org/2000/svg"><g filter="url(#a)"><rect x="70" y="96.5" width="515" height="298" rx="4" fill="#fff"/></g><path d="M100.4 128.9h2l3 5.3h.1l3-5.3h2l-4.1 7v4.6h-1.8v-4.6l-4.2-7Zm11.6 11.6v-8.7h1.7v8.7H112Zm1-10a1 1 0 0 1-.9-.4 1 1 0 0 1-.3-.7c0-.3.1-.5.3-.7.3-.2.5-.3.8-.3.3 0 .6.1.8.3.2.2.3.4.3.7 0 .3-.1.5-.3.7a1 1 0 0 1-.8.3Zm6.8 10.2c-.9 0-1.6-.2-2.2-.6-.6-.3-1.1-.9-1.5-1.5-.3-.7-.5-1.5-.5-2.4 0-.9.2-1.7.5-2.4.4-.7.8-1.2 1.5-1.6a4.3 4.3 0 0 1 3.6-.3 3.5 3.5 0 0 1 2 2.1c.2.6.3 1.3.3 2v.6h-6.9v-1.2h5.3c0-.5-.1-.9-.3-1.2a2 2 0 0 0-2-1.1c-.4 0-.8 0-1.2.3-.3.2-.6.5-.8 1-.2.3-.3.7-.3 1.1v1c0 .6.1 1.1.3 1.5a2.6 2.6 0 0 0 2.2 1.3c.3 0 .6 0 .9-.2.3 0 .5-.2.7-.4l.4-.7 1.6.3c-.1.5-.3 1-.7 1.3-.3.3-.7.6-1.2.8-.5.2-1 .3-1.7.3Zm7.3-11.8v11.6h-1.7v-11.6h1.7Zm5.6 11.8a3.4 3.4 0 0 1-3.2-2.1c-.3-.7-.5-1.5-.5-2.4 0-1 .2-1.8.5-2.5a3.4 3.4 0 0 1 3.2-2c.5 0 1 0 1.3.2l.8.7.4.6h.1v-4.3h1.7v11.6h-1.7v-1.4h-.1l-.4.7-.8.6c-.4.2-.8.3-1.3.3Zm.4-1.5a2 2 0 0 0 1.2-.4c.3-.2.6-.6.8-1l.2-1.7c0-.6 0-1.1-.2-1.6-.2-.4-.5-.8-.8-1a2 2 0 0 0-1.3-.4 2 2 0 0 0-1.2.4c-.4.3-.6.6-.8 1a4.5 4.5 0 0 0 0 3.1c.2.6.4 1 .8 1.2.3.3.7.4 1.3.4Zm10.6 4.6v-12h1.6v1.4h.2c0-.2.2-.4.4-.6.2-.3.4-.5.8-.7.3-.2.7-.2 1.3-.2a3.4 3.4 0 0 1 3.2 2c.3.7.4 1.5.4 2.5 0 .9-.1 1.7-.4 2.4-.4.7-.8 1.2-1.3 1.5-.6.4-1.2.6-2 .6-.4 0-.9-.1-1.2-.3l-.8-.6-.4-.7h-.1v4.7h-1.7Zm1.6-7.7c0 .7.1 1.2.3 1.7.2.4.4.8.8 1 .3.3.7.4 1.2.4s1-.1 1.3-.4c.3-.3.6-.6.7-1 .2-.6.3-1 .3-1.7 0-.5 0-1-.2-1.5s-.5-.8-.8-1.1a2 2 0 0 0-1.3-.4 2 2 0 0 0-1.2.4c-.4.2-.6.6-.8 1-.2.5-.3 1-.3 1.6Zm12 4.6c-.9 0-1.6-.2-2.2-.6-.6-.3-1.1-.9-1.5-1.5-.3-.7-.5-1.5-.5-2.4 0-.9.2-1.7.5-2.4.4-.7.8-1.2 1.5-1.6a4.3 4.3 0 0 1 3.6-.3 3.5 3.5 0 0 1 2 2.1c.2.6.3 1.3.3 2v.6h-6.9v-1.2h5.3c0-.5-.1-.9-.3-1.2a2 2 0 0 0-2-1.1c-.4 0-.8 0-1.2.3-.3.2-.6.5-.8 1-.2.3-.3.7-.3 1.1v1c0 .6.1 1.1.3 1.5a2.6 2.6 0 0 0 2.2 1.3c.3 0 .6 0 .9-.2.3 0 .5-.2.7-.4l.4-.7 1.6.3c-.1.5-.3 1-.7 1.3-.3.3-.7.6-1.2.8-.5.2-1 .3-1.7.3Zm5.6-.2v-8.7h1.7v1.4c.2-.5.5-.9.9-1.1.4-.3.9-.5 1.4-.5a8 8 0 0 1 .7 0v1.7h-.9c-.4 0-.8 0-1 .2a1.9 1.9 0 0 0-1 1.7v5.3h-1.8Zm10.8-8.7v1.3h-4.9v-1.3h5Zm-3.5 8.7v-9.7c0-.6 0-1 .3-1.4.3-.4.6-.6 1-.8a3 3 0 0 1 1.2-.3 4 4 0 0 1 1.5.3l-.4 1.3h-.3l-.5-.1c-.4 0-.7.1-.9.3-.2.2-.2.5-.2.9v9.5h-1.7Zm8.6.2a3.8 3.8 0 0 1-3.6-2.1c-.3-.7-.4-1.5-.4-2.4 0-1 .1-1.7.5-2.4a3.8 3.8 0 0 1 3.5-2.1 3.8 3.8 0 0 1 3.6 2.1c.3.7.5 1.5.5 2.4 0 .9-.2 1.7-.5 2.3a3.8 3.8 0 0 1-3.6 2.2Zm0-1.4c.6 0 1-.2 1.3-.5.4-.3.6-.6.8-1a4.4 4.4 0 0 0 0-3c-.2-.6-.4-1-.8-1.3a2 2 0 0 0-1.3-.4 2 2 0 0 0-1.3.4c-.4.3-.6.7-.8 1.1-.2.5-.2 1-.2 1.6 0 .5 0 1 .2 1.5s.4.8.8 1.1c.3.3.8.4 1.3.4Zm6 1.2v-8.7h1.6v1.4h.1c.2-.5.5-.9.9-1.1.4-.3.8-.5 1.3-.5a8 8 0 0 1 .8 0v1.7h-.9c-.4 0-.8 0-1.1.2a1.9 1.9 0 0 0-1 1.7v5.3h-1.7Zm6.1 0v-8.7h1.7v1.4c.2-.5.5-.9 1-1.1.4-.3.9-.4 1.4-.4.6 0 1.1 0 1.5.4.4.2.7.6.9 1l1-1a3 3 0 0 1 1.7-.4c.8 0 1.4.2 2 .7.4.5.7 1.2.7 2.2v5.9H201v-5.7c0-.6-.2-1-.5-1.3-.3-.2-.7-.4-1.1-.4-.6 0-1 .2-1.3.5-.3.4-.5.8-.5 1.3v5.6H196v-5.8c0-.5-.1-.9-.4-1.1-.3-.3-.7-.5-1.2-.5l-.9.3c-.2.1-.5.4-.6.7-.2.3-.3.6-.3 1v5.4H191Zm16.7.2-1.5-.3c-.4-.2-.8-.5-1-1-.3-.3-.4-.8-.4-1.4 0-.5 0-.9.2-1.2.2-.3.5-.6.8-.7a4 4 0 0 1 1-.5l1.3-.2 1.3-.1.7-.2.2-.5c0-.5-.1-.9-.4-1.2-.3-.2-.7-.4-1.3-.4-.5 0-1 .2-1.3.4a2 2 0 0 0-.7.8l-1.6-.3a3 3 0 0 1 2.1-2 5 5 0 0 1 2.6-.1c.4 0 .8.2 1.1.4.4.2.7.6.9 1 .2.4.3.9.3 1.5v5.8h-1.6v-1.2h-.1l-.5.7-.9.5-1.2.2Zm.4-1.4c.4 0 .8 0 1.2-.2a2 2 0 0 0 1-1.7v-1.2l-.3.2-.6.1-.7.1h-.5l-.9.3c-.3.1-.5.2-.6.4a1 1 0 0 0-.3.8c0 .4.2.7.5 1l1.2.2Zm7.9-4v5.2h-1.7v-8.7h1.6v1.4h.1c.2-.5.5-.8 1-1.1a3 3 0 0 1 1.6-.4c.6 0 1.1 0 1.5.3.5.3.8.6 1 1.1.3.5.5 1.1.5 1.8v5.6h-1.7v-5.3c0-.7-.2-1.2-.5-1.5-.4-.4-.8-.6-1.4-.6-.4 0-.7.1-1 .3l-.8.7-.2 1.2Zm11.5 5.4a4 4 0 0 1-2.2-.6c-.6-.4-1-1-1.4-1.6-.3-.7-.5-1.4-.5-2.3 0-1 .2-1.7.5-2.4.4-.7.8-1.2 1.5-1.6a4 4 0 0 1 2-.5 4 4 0 0 1 1.9.3c.5.3 1 .6 1.2 1 .3.5.5 1 .6 1.6h-1.7a2 2 0 0 0-.6-1c-.3-.4-.7-.5-1.3-.5-.5 0-.9.1-1.2.4-.4.2-.6.6-.8 1a4 4 0 0 0-.3 1.6c0 .7 0 1.2.2 1.7.2.4.5.8.9 1 .3.3.7.4 1.2.4l.9-.1.7-.6c.1-.2.3-.4.3-.8h1.7a3.2 3.2 0 0 1-1.8 2.6 4 4 0 0 1-1.8.4Zm9.2 0c-.9 0-1.6-.2-2.2-.6-.7-.3-1.1-.9-1.5-1.5-.3-.7-.5-1.5-.5-2.4 0-.9.2-1.7.5-2.4.4-.7.8-1.2 1.4-1.6.6-.3 1.3-.5 2.2-.5a3.5 3.5 0 0 1 3.5 2.4c.2.5.3 1.2.3 2v.5h-7v-1.2h5.4c0-.5-.1-.9-.3-1.2a2 2 0 0 0-2-1.1c-.4 0-.8 0-1.2.3-.3.2-.6.5-.8 1-.2.3-.3.7-.3 1.1v1c0 .6.1 1.1.3 1.5.2.4.5.7.9 1 .4.2.8.3 1.3.3.3 0 .6 0 .9-.2l.7-.4.4-.7 1.6.3c-.1.5-.3 1-.7 1.3-.3.3-.7.6-1.2.8-.5.2-1 .3-1.7.3Z" fill="#1B1E22"/><path d="M261 142a7.5 7.5 0 1 0 0-15 7.5 7.5 0 0 0 0 15ZM261 137.5v-3M261 131.5h0" stroke="#A1A5B1" stroke-width="1.5" stroke-linecap="round" stroke-linejoin="round"/><path d="M412.3 139.2a5.3 5.3 0 1 0 0-10.7 5.3 5.3 0 0 0 0 10.7ZM419 140.5l-2.9-2.9" stroke="#6A717D" stroke-opacity=".4" stroke-width="2" stroke-linecap="round" stroke-linejoin="round"/><path d="M435.2 132.6H434a2 2 0 0 0-.8-1.3c-.2-.1-.4-.3-.7-.3a2.6 2.6 0 0 0-2.1.2l-1 1.1c-.2.5-.3 1.1-.3 1.8s.1 1.3.3 1.8c.3.5.6.9 1 1.1.4.3.8.4 1.3.4h.8l.7-.4a2 2 0 0 0 .8-1.3h1.3a3.5 3.5 0 0 1-1.2 2.1c-.3.3-.7.5-1 .6a4 4 0 0 1-1.4.2c-.8 0-1.4-.2-2-.5-.6-.4-1-.9-1.4-1.6-.4-.6-.5-1.4-.5-2.4 0-.9.1-1.7.5-2.4a3.7 3.7 0 0 1 3.4-2c.5 0 .9 0 1.3.2a3.4 3.4 0 0 1 1.9 1.5l.4 1.2Zm5.6 3.2V132h1.3v6.5H441v-1.1h-.1a2 2 0 0 1-.7.8c-.4.3-.8.4-1.3.4-.4 0-.8-.1-1-.3a2 2 0 0 1-.8-.8 3 3 0 0 1-.3-1.4V132h1.3v4c0 .4 0 .8.3 1 .3.3.6.4 1 .4a1.6 1.6 0 0 0 1.3-.7c.2-.2.2-.5.2-1Zm8-2.2-1.2.2c0-.2-.2-.3-.3-.5l-.4-.3-.6-.1c-.4 0-.7 0-1 .2l-.3.6c0 .3 0 .4.2.6l.8.3 1 .2c.7.2 1.1.4 1.4.7.3.3.5.6.5 1.1 0 .4-.2.7-.4 1-.2.4-.5.6-1 .8l-1.3.2c-.8 0-1.4-.1-1.8-.4a2 2 0 0 1-.9-1.4l1.3-.2c0 .4.2.6.4.8l1 .2c.4 0 .7 0 1-.3.2-.1.3-.3.3-.6 0-.2 0-.4-.2-.5-.1-.2-.4-.3-.7-.3l-1-.3c-.7-.1-1.2-.3-1.4-.6-.3-.3-.5-.7-.5-1.2 0-.4.1-.7.3-1l1-.7 1.2-.2c.8 0 1.3.1 1.7.4.4.3.7.7.8 1.3Zm4.5-1.6v1h-3.6v-1h3.6Zm-2.6-1.6h1.3v6.7c.1.2.2.2.4.3h.8l.2 1-.3.1a2.5 2.5 0 0 1-1.4 0c-.3-.2-.6-.4-.7-.7-.2-.2-.3-.6-.3-1v-6.4Zm6.7 8.2a2.8 2.8 0 0 1-2.7-1.6 4 4 0 0 1-.3-1.7c0-.7 0-1.3.3-1.8a2.8 2.8 0 0 1 2.7-1.6 2.8 2.8 0 0 1 2.7 1.6c.2.5.4 1 .4 1.8a4 4 0 0 1-.4 1.7 2.8 2.8 0 0 1-2.7 1.6Zm0-1c.4 0 .7-.1 1-.4.3-.2.5-.4.6-.8l.2-1.1-.2-1.2c-.1-.3-.3-.6-.6-.8-.3-.3-.6-.4-1-.4s-.7.1-1 .4c-.3.2-.4.4-.6.8l-.2 1.2.2 1.1c.2.4.3.6.6.8.3.3.6.4 1 .4Zm4.5.9V132h1.2v1l.7-.8a2 2 0 0 1 1.2-.3c.4 0 .8 0 1 .3.4.2.6.5.7.8l.8-.8c.4-.2.8-.3 1.3-.3s1 .2 1.4.5c.4.4.6 1 .6 1.7v4.4h-1.3v-4.3c0-.4-.1-.7-.4-1l-.8-.2c-.4 0-.8.1-1 .4-.2.2-.3.5-.3 1v4.1h-1.3v-4.4c0-.3-.1-.6-.3-.8-.3-.2-.6-.3-1-.3-.1 0-.4 0-.6.2-.2 0-.3.3-.5.5l-.2.8v4H462Zm13.8 0V132h1.2v1c.2-.4.4-.6.7-.8.3-.2.6-.3 1-.3a5 5 0 0 1 .6 0v1.2h-.7l-.8.1a1.4 1.4 0 0 0-.8 1.3v4h-1.2Zm6.4.1c-.4 0-.8 0-1.1-.2-.4-.1-.6-.4-.8-.7a2 2 0 0 1-.3-1c0-.4 0-.7.2-1 .2-.2.3-.4.6-.5.2-.2.5-.3.8-.3l1-.2a383.5 383.5 0 0 1 1.4-.3c.1 0 .2-.1.2-.3 0-.4-.1-.7-.4-.9-.2-.2-.5-.3-.9-.3s-.8.1-1 .3l-.5.6-1.2-.3a2.3 2.3 0 0 1 1.6-1.5 3.7 3.7 0 0 1 2 0l.8.3.6.7c.2.3.2.7.2 1.2v4.3h-1.2v-.9l-.4.5a2 2 0 0 1-.7.4l-.9.1Zm.3-1c.3 0 .6 0 .9-.2l.6-.5.2-.8v-.8l-.3.1a44.8 44.8 0 0 1-2 .4c-.2 0-.4.2-.5.3l-.2.6c0 .3.2.5.4.7l.9.2Zm6-3v3.9H487V132h1.3v1l.7-.8c.4-.2.8-.3 1.3-.3.4 0 .8 0 1.1.3.4.1.6.4.8.8.2.3.3.8.3 1.3v4.2h-1.3v-4c0-.5-.1-.9-.3-1.1-.3-.3-.6-.4-1-.4s-.6 0-.9.2c-.2 0-.4.3-.5.5l-.2 1Zm8.6 6.5c-.6 0-1 0-1.4-.2-.4-.2-.7-.3-.9-.6l-.5-.7 1-.4.4.4.5.3.9.2a2 2 0 0 0 1.2-.4c.3-.2.4-.6.4-1.1v-1.3l-.4.5-.6.4-1 .2c-.5 0-1-.1-1.3-.4-.5-.2-.8-.6-1-1a4 4 0 0 1-.4-1.8c0-.7.1-1.3.4-1.8.2-.5.5-.9 1-1.1.4-.3.8-.4 1.4-.4.4 0 .7 0 1 .2l.5.4.4.5v-1h1.3v6.6c0 .6-.1 1-.4 1.4-.2.4-.6.7-1 .8l-1.5.3Zm0-3.8c.3 0 .6 0 .9-.2.2-.2.4-.4.5-.8.2-.3.2-.7.2-1.1l-.1-1.2-.6-.8c-.3-.2-.6-.2-1-.2-.3 0-.7 0-1 .3-.2.1-.4.4-.5.8l-.2 1c0 .5 0 .9.2 1.2.1.3.3.6.6.8.2.2.6.2 1 .2Zm7.4 1.3c-.6 0-1.2-.1-1.6-.4-.5-.3-.9-.6-1.1-1.2a4 4 0 0 1-.4-1.7c0-.7.1-1.3.4-1.8.2-.5.6-1 1-1.2a3.2 3.2 0 0 1 2.7-.2 2.6 2.6 0 0 1 1.6 1.5c.2.5.2 1 .2 1.6v.4H502v-1h4c0-.3 0-.6-.2-.8a1.5 1.5 0 0 0-1.4-.9c-.4 0-.7.1-1 .3-.2.2-.5.4-.6.7a2 2 0 0 0-.2.9v.7c0 .5 0 .8.2 1.1.2.3.4.6.7.7.3.2.6.3 1 .3l.6-.1c.2 0 .4-.2.5-.3l.4-.6 1.2.3-.6.9c-.2.3-.5.5-.9.6-.4.2-.8.2-1.3.2Z" fill="#1B1E22"/><path d="m533 132 5 5 5-5" stroke="#1B1E22" stroke-width="2" stroke-linecap="round" stroke-linejoin="round"/><rect x="398.5" y="121" width="156" height="27" rx="3.5" stroke="#D7DEE5"/><path d="M204.3 162.5a104 104 0 1 1-29.7 203.7l11.9-39.9a62.4 62.4 0 1 0 17.8-122.2v-41.6Z" fill="#0176ED"/><path d="M100.3 266.5a104 104 0 0 0 74.4 99.7l11.8-39.9a62.4 62.4 0 0 1-44.7-59.8h-41.6Z" fill="#8F94A9"/><path d="M204.3 162.5a104 104 0 0 0-73.6 30.5l29.4 29.4a62.4 62.4 0 0 1 44.2-18.3v-41.6Z" fill="#D3D5E1"/><path d="M130.7 193a104 104 0 0 0-30.4 73.5h41.5a62.4 62.4 0 0 1 18.3-44.1L130.7 193Z" fill="#B1B5C5"/><path d="M278 275.6c-.5 0-1 0-1.5-.3-.4-.2-.8-.5-1-.9-.3-.4-.4-.8-.5-1.3h1.6c0 .4.2.7.4.9.3.2.7.3 1 .3.4 0 .6 0 .9-.2l.6-.6.2-.8-.2-1-.6-.5c-.3-.2-.6-.2-.9-.2a2 2 0 0 0-.8.1l-.6.4-1.4-.2.5-4.5h5v1.3H277l-.3 2.3.8-.5 1-.2a2.7 2.7 0 0 1 2.3 1.4c.3.5.4 1 .4 1.5a2.8 2.8 0 0 1-1.5 2.6c-.5.3-1 .4-1.6.4Zm7.8 0c-.4 0-.8 0-1.2-.2-.4-.1-.8-.4-1-.7-.4-.3-.7-.8-.8-1.3a7.6 7.6 0 0 1 0-4c0-.6.3-1 .6-1.5a3 3 0 0 1 2.5-1.2c.6 0 1 0 1.5.3a2.7 2.7 0 0 1 1.5 2.1h-1.6c0-.3-.2-.6-.5-.8-.2-.2-.5-.3-.9-.3-.6 0-1 .3-1.4.8-.3.5-.5 1.3-.5 2.2l.6-.7.8-.4.9-.1a2.6 2.6 0 0 1 2.3 1.3c.2.5.4 1 .4 1.5 0 .6-.2 1.1-.4 1.6-.3.4-.7.8-1.1 1-.5.3-1 .4-1.7.4Zm0-1.3c.3 0 .6 0 .8-.2a1.6 1.6 0 0 0 .8-1.5c0-.3 0-.6-.2-.8a1.6 1.6 0 0 0-2-.7c-.2 0-.4.2-.5.4a1.7 1.7 0 0 0 .3 2.6c.2.2.5.2.8.2Zm9.3-.4v-.5c0-.3 0-.6.2-1a1.7 1.7 0 0 1 1.6-.9c.4 0 .8.1 1 .3.3.2.5.4.6.7l.3.9v.5l-.3.9c-.1.3-.3.5-.6.7-.3.2-.6.2-1 .2s-.7 0-1-.2c-.3-.2-.5-.4-.6-.7a2 2 0 0 1-.2-1Zm1-.5v.5l.2.6c.1.2.3.3.6.3s.5-.1.6-.3l.1-.6v-.5l-.1-.6c-.1-.2-.3-.3-.6-.3s-.4 0-.6.3l-.1.6Zm-5.5-4.5v-.5l.2-1 .7-.6c.3-.2.6-.3 1-.3s.7.1 1 .3c.3.2.5.4.6.7.2.3.2.6.2 1v.4c0 .3 0 .6-.2 1l-.6.6c-.3.2-.6.2-1 .2s-.8 0-1-.2l-.7-.7a2 2 0 0 1-.2-1Zm1.2-.5v.5l.1.6c.1.2.3.3.6.3s.4-.1.5-.3l.2-.6v-.5l-.1-.6c-.1-.2-.3-.3-.6-.3s-.5.1-.6.3l-.1.6Zm-.7 7.1 6-8.7h1l-6 8.7h-1Z" fill="#fff"/><path d="M127 320.5v-1.1l3-3 .8-.8.4-.7.2-.6-.2-.7-.5-.5-.8-.2-.7.2c-.3.1-.4.3-.5.5-.2.2-.2.5-.2.8H127c0-.6.1-1 .4-1.5.2-.4.6-.7 1-1l1.5-.2c.6 0 1.1 0 1.6.3.4.2.8.5 1 .9.3.4.4.8.4 1.3 0 .3 0 .6-.2 1a4 4 0 0 1-.7 1l-1.3 1.4-1.5 1.5h3.8v1.4h-6Zm10.7.2a3 3 0 0 1-1.8-.6c-.5-.3-.9-.8-1.2-1.5-.2-.7-.4-1.5-.4-2.5s.2-1.7.4-2.4c.3-.7.7-1.2 1.2-1.5a3 3 0 0 1 1.8-.5 3 3 0 0 1 1.8.5c.5.3.9.8 1.2 1.5.2.7.4 1.5.4 2.4 0 1-.2 1.8-.4 2.5-.3.7-.7 1.2-1.2 1.5a3 3 0 0 1-1.8.6Zm0-1.4c.6 0 1-.2 1.3-.8.3-.5.5-1.3.5-2.4a6 6 0 0 0-.2-1.7c-.2-.5-.4-.8-.7-1-.2-.3-.5-.4-.9-.4-.5 0-1 .2-1.3.8-.3.5-.5 1.3-.5 2.3l.2 1.8c.2.5.4.8.7 1 .2.3.5.4 1 .4Zm9.4-.4v-.5l.3-1a1.7 1.7 0 0 1 1.6-.9c.4 0 .7.1 1 .3.3.2.5.4.6.7.2.3.2.6.2.9v.5c0 .3 0 .6-.2.9-.1.3-.3.5-.6.7-.3.2-.6.2-1 .2s-.7 0-1-.2c-.3-.2-.5-.4-.6-.7a2 2 0 0 1-.3-1Zm1.2-.5v.5l.1.6c.1.2.3.3.6.3s.5-.1.6-.3l.1-.6v-.5l-.1-.6c-.1-.2-.3-.3-.6-.3s-.5 0-.6.3l-.1.6Zm-5.6-4.5v-.5c0-.3 0-.6.2-1l.7-.6c.2-.2.6-.3 1-.3s.7.1 1 .3c.2.2.5.4.6.7l.2 1v.4c0 .3 0 .6-.2 1l-.6.6c-.3.2-.6.2-1 .2s-.8 0-1-.2l-.7-.7a2 2 0 0 1-.2-1Zm1.1-.5v.5c0 .2 0 .4.2.6.1.2.3.3.6.3.2 0 .4-.1.5-.3l.2-.6v-.5c0-.2 0-.4-.2-.6 0-.2-.3-.3-.5-.3-.3 0-.5.1-.6.3l-.2.6Zm-.6 7.1 6-8.7h1l-6 8.7h-1ZM118.6 235.8v8.7H117v-7.2l-2.1 1.3v-1.4l2.2-1.4h1.5Zm2.2 8.7v-1.1l3-3 .7-.8.5-.7.1-.6c0-.3 0-.5-.2-.7 0-.2-.3-.4-.5-.5l-.7-.2-.8.2-.5.5-.2.8h-1.5c0-.6.2-1 .4-1.5l1-1 1.6-.2c.6 0 1.1 0 1.5.3.5.2.8.5 1 .9.3.4.4.8.4 1.3l-.1 1-.7 1-1.3 1.4-1.5 1.5h3.8v1.4h-6Zm12.1-1.6v-.5c0-.3 0-.6.2-1a1.7 1.7 0 0 1 1.7-.9c.4 0 .7.1 1 .3l.6.7.2.9v.5c0 .3 0 .6-.2.9l-.6.7c-.3.2-.6.2-1 .2s-.8 0-1-.2l-.7-.7a2 2 0 0 1-.2-1Zm1.1-.5v.5c0 .2 0 .4.2.6 0 .2.3.3.6.3.2 0 .4-.1.5-.3l.2-.6v-.5c0-.2 0-.4-.2-.6 0-.2-.3-.3-.5-.3-.3 0-.5 0-.6.3l-.2.6Zm-5.5-4.5v-.5c0-.3 0-.6.2-1l.6-.6c.3-.2.6-.3 1-.3s.8.1 1 .3l.7.7.2 1v.4l-.2 1-.7.6c-.2.2-.6.2-1 .2s-.7 0-1-.2c-.3-.2-.5-.4-.6-.7a2 2 0 0 1-.2-1Zm1-.5v.5l.3.6c0 .2.3.3.5.3.3 0 .5-.1.6-.3l.1-.6v-.5l-.1-.6c-.1-.2-.3-.3-.6-.3-.2 0-.4.1-.5.3-.2.2-.2.4-.2.6Zm-.5 7.1 6-8.7h1l-6 8.7h-1ZM164.6 185.8v8.7H163v-7.2l-2.1 1.3v-1.4l2.2-1.4h1.5Zm2.2 8.7v-1.1l3-3 .7-.8.5-.7.1-.6c0-.3 0-.5-.2-.7 0-.2-.3-.4-.5-.5l-.7-.2-.8.2-.5.5-.2.8h-1.5c0-.6.2-1 .4-1.5l1-1 1.6-.2c.6 0 1.1 0 1.5.3.5.2.8.5 1 .9.3.4.4.8.4 1.3l-.1 1-.7 1-1.3 1.4-1.5 1.5h3.8v1.4h-6Zm12.1-1.6v-.5c0-.3 0-.6.2-1a1.7 1.7 0 0 1 1.7-.9c.4 0 .7.1 1 .3l.6.7.2.9v.5c0 .3 0 .6-.2.9l-.6.7c-.3.2-.6.2-1 .2s-.8 0-1-.2l-.7-.7a2 2 0 0 1-.2-1Zm1.1-.5v.5c0 .2 0 .4.2.6 0 .2.3.3.6.3.2 0 .4-.1.5-.3l.2-.6v-.5c0-.2 0-.4-.2-.6 0-.2-.3-.3-.5-.3-.3 0-.5 0-.6.3l-.2.6Zm-5.5-4.5v-.5c0-.3 0-.6.2-1l.6-.6c.3-.2.6-.3 1-.3s.8.1 1 .3l.7.7.2 1v.4l-.2 1-.7.6c-.2.2-.6.2-1 .2s-.7 0-1-.2c-.3-.2-.5-.4-.6-.7a2 2 0 0 1-.2-1Zm1-.5v.5l.3.6c0 .2.3.3.5.3.3 0 .5-.1.6-.3l.1-.6v-.5l-.1-.6c-.1-.2-.3-.3-.6-.3-.2 0-.4.1-.5.3-.2.2-.2.4-.2.6Zm-.5 7.1 6-8.7h1l-6 8.7h-1Z" fill="#1B1E22"/><path d="M347.8 178.4h2.1l3.7 9h.1l3.8-9h2V190H358v-8.4l-3.5 8.4H353l-3.4-8.4h-.2v8.4h-1.6v-11.6Zm17.9 11.8a3.8 3.8 0 0 1-3.6-2.1c-.3-.7-.5-1.5-.5-2.4 0-1 .2-1.7.5-2.4a3.8 3.8 0 0 1 3.6-2.1 3.8 3.8 0 0 1 3.6 2.1c.3.7.4 1.5.4 2.4 0 .9-.1 1.7-.5 2.3a3.8 3.8 0 0 1-3.5 2.2Zm0-1.4c.5 0 1-.2 1.3-.5.4-.3.6-.6.8-1l.2-1.6c0-.6 0-1.1-.2-1.6-.2-.4-.4-.8-.8-1a2 2 0 0 0-1.3-.5 2 2 0 0 0-1.3.4c-.4.3-.7.7-.8 1.1a4.6 4.6 0 0 0 0 3c.1.6.4 1 .8 1.2.3.3.7.4 1.3.4Zm7.6-4v5.2h-1.7v-8.7h1.7v1.4c.3-.5.6-.8 1-1.1a3 3 0 0 1 1.7-.4c.5 0 1 0 1.5.3s.8.6 1 1.1c.3.5.4 1.1.4 1.8v5.6h-1.7v-5.3c0-.7-.1-1.2-.5-1.5-.3-.4-.7-.6-1.3-.6-.4 0-.8.1-1 .3-.4.2-.6.4-.8.7l-.3 1.2Zm12-3.5v1.3h-4.8v-1.3h4.8Zm-3.5-2.1h1.7v8.2l.1.8.4.3.5.1a2 2 0 0 0 .6 0l.3 1.3-.4.1a3.3 3.3 0 0 1-2-.1l-.9-.8c-.2-.3-.3-.8-.3-1.3v-8.6Zm7.2 5.6v5.2h-1.7v-11.6h1.7v4.3h.1c.2-.5.5-.8 1-1.1a3 3 0 0 1 1.6-.4c.6 0 1.1 0 1.6.3.4.3.8.6 1 1.1.3.5.4 1.1.4 1.8v5.6H393v-5.3c0-.7-.2-1.2-.5-1.5-.3-.4-.8-.6-1.4-.6-.4 0-.7.1-1 .3-.4.2-.6.4-.8.7l-.3 1.2Zm9.7-6.4V190H397v-11.6h1.7Zm3.3 14.9a3.5 3.5 0 0 1-1.1-.2l.4-1.4.8.1c.3 0 .5-.1.6-.3.2-.1.4-.4.6-.8l.2-.6-3.2-8.8h1.8l2.2 6.7 2.3-6.7h1.8l-3.6 9.9a4 4 0 0 1-.6 1.1c-.3.3-.6.6-1 .7a3 3 0 0 1-1.2.3Zm13.4-3.3h-1.9l4.2-11.6h2L424 190H422l-3.2-9.5h-.1l-3.3 9.5Zm.3-4.6h6v1.5h-6v-1.5Zm16.1-4.1-3.1 8.7h-1.9l-3.1-8.7h1.8l2.2 6.7h.1l2.2-6.7h1.8Zm5 8.9c-.8 0-1.5-.2-2.1-.6-.7-.3-1.1-.9-1.5-1.5-.3-.7-.5-1.5-.5-2.4 0-.9.2-1.7.5-2.4.4-.7.8-1.2 1.4-1.6.6-.3 1.4-.5 2.2-.5.5 0 1 0 1.4.2a3.5 3.5 0 0 1 2.1 2.1c.2.6.3 1.3.3 2v.6h-7V185h5.4c0-.5-.1-.9-.3-1.2a2 2 0 0 0-2-1.1c-.4 0-.8 0-1.2.3-.3.2-.6.5-.8 1-.2.3-.3.7-.3 1.1v1c0 .6.1 1.1.3 1.5.2.4.5.7.9 1 .4.2.8.3 1.3.3.3 0 .6 0 .9-.2.3 0 .5-.2.7-.4l.4-.7 1.6.3a3 3 0 0 1-.7 1.3c-.3.3-.7.6-1.2.8-.5.2-1 .3-1.7.3Zm5.7-.2v-8.7h1.7v1.4c.2-.5.5-.9.9-1.1.4-.3.9-.5 1.4-.5a8 8 0 0 1 .7 0v1.7h-.9c-.4 0-.8 0-1 .2a1.9 1.9 0 0 0-1 1.7v5.3h-1.8Zm8.6.2-1.5-.3c-.4-.2-.8-.5-1-1-.3-.3-.4-.8-.4-1.4 0-.5 0-.9.3-1.2.1-.3.4-.6.7-.7a4 4 0 0 1 1.1-.5l1.2-.2 1.3-.1.7-.2.2-.5c0-.5-.1-.9-.4-1.2-.3-.2-.7-.4-1.2-.4-.6 0-1 .2-1.4.4a2 2 0 0 0-.7.8l-1.6-.3a3 3 0 0 1 2.1-2 5 5 0 0 1 2.6-.1c.4 0 .8.2 1.1.4.4.2.7.6.9 1 .2.4.3.9.3 1.5v5.8h-1.6v-1.2h-.1a2.4 2.4 0 0 1-1.3 1.2l-1.3.2Zm.4-1.4c.5 0 .9 0 1.2-.2a2 2 0 0 0 1-1.7v-1.2l-.3.2-.6.1-.7.1h-.5l-.9.3c-.2.1-.5.2-.6.4a1 1 0 0 0-.3.8c0 .4.2.7.5 1l1.2.2Zm9.8 4.7c-.6 0-1.2-.1-1.7-.3-.5-.2-1-.4-1.3-.7a3 3 0 0 1-.7-1l1.5-.6.4.5.7.5 1.2.2c.6 0 1.1-.2 1.6-.5.4-.3.6-.8.6-1.5v-1.7h-.1l-.5.6c-.1.3-.4.5-.7.6a3 3 0 0 1-1.3.3c-.7 0-1.4-.2-2-.5-.5-.3-.9-.8-1.2-1.5-.3-.6-.5-1.4-.5-2.3 0-1 .2-1.7.5-2.4.3-.6.7-1.2 1.3-1.5.5-.4 1.2-.5 1.9-.5.5 0 1 0 1.3.2l.8.7.4.6h.1v-1.4h1.7v8.9a3 3 0 0 1-.5 1.8 3 3 0 0 1-1.5 1.1c-.5.2-1.2.4-2 .4Zm0-5c.5 0 1-.2 1.3-.4.3-.2.6-.5.7-1a4.3 4.3 0 0 0 0-3.1c-.1-.4-.4-.8-.7-1a2 2 0 0 0-1.3-.4 2 2 0 0 0-1.2.4c-.4.3-.6.6-.8 1-.2.5-.3 1-.3 1.6 0 .6.1 1 .3 1.5.2.4.4.8.8 1 .3.2.7.4 1.2.4Zm10 1.7c-.8 0-1.6-.2-2.2-.6-.6-.3-1-.9-1.4-1.5-.4-.7-.5-1.5-.5-2.4 0-.9.1-1.7.5-2.4.3-.7.8-1.2 1.4-1.6.6-.3 1.3-.5 2.1-.5.5 0 1 0 1.4.2a3.5 3.5 0 0 1 2.2 2.1c.2.6.3 1.3.3 2v.6h-7V185h5.3c0-.5 0-.9-.3-1.2a2 2 0 0 0-1.9-1.1c-.5 0-.9 0-1.2.3-.4.2-.7.5-.9 1l-.2 1.1v1c0 .6 0 1.1.3 1.5l.8 1c.4.2.8.3 1.3.3.4 0 .7 0 1-.2.2 0 .4-.2.6-.4l.5-.7 1.6.3c-.2.5-.4 1-.7 1.3l-1.3.8c-.5.2-1 .3-1.7.3Z" fill="#55586D"/><rect x="346.5" y="203" width="16" height="16" rx="8" fill="#C7F0D5"/><path d="M354.5 214v-6M351.6 211l2.9-3 3 3" stroke="#158D38" stroke-width="1.5" stroke-linecap="round" stroke-linejoin="round"/><path d="M376.7 206.3v8.7h-1.4v-7.4l-2.1 1.4v-1.3l2.2-1.4h1.3Zm2.1 7v-1l3.8-6h.8v1.5h-.5l-2.7 4.3h5.2v1.2h-6.6Zm4.2 1.7v-8.7h1.2v8.7H383Zm8.4-1.6v-.5c0-.3 0-.6.2-.9l.6-.7 1-.2c.4 0 .7 0 1 .2l.6.7.2.9v.5l-.2.9a1.6 1.6 0 0 1-1.6.9c-.4 0-.7-.1-1-.3l-.6-.6a2 2 0 0 1-.2-1Zm1-.5v.5c0 .2 0 .4.2.6.1.2.3.3.6.3s.5 0 .6-.3l.2-.6v-.5c0-.2 0-.5-.2-.7-.1-.2-.3-.3-.6-.3s-.5.1-.6.3l-.2.7Zm-5.4-4.5v-.5l.2-.9a1.6 1.6 0 0 1 1.6-1c.4 0 .7.2 1 .3l.6.7.2 1v.4l-.2.9a1.6 1.6 0 0 1-1.6.9c-.4 0-.7-.1-1-.3l-.6-.6a2 2 0 0 1-.2-1Zm1-.5v.5c0 .2 0 .4.2.6.1.2.3.3.6.3s.5 0 .6-.3l.2-.6v-.5c0-.2 0-.5-.2-.7-.1-.2-.3-.3-.6-.3s-.5.1-.6.3l-.2.7Zm-.6 7.1 6-8.7h1l-6 8.7h-1Zm13-4.4a8.8 8.8 0 0 1 1.7-5.4h1l-.5 1a9.7 9.7 0 0 0-.8 2.9 10.5 10.5 0 0 0 1.4 7H402a8.8 8.8 0 0 1-1.6-5.5Zm6.7 3v-5.8h1.1v5.7h-1.1Zm-2.3-2.4v-1.1h5.8v1.1h-5.8Zm7.5 2v-1l3.8-6h.8v1.6h-.5l-2.7 4.3h5.2v1.2h-6.6Zm4.2 1.8v-8.7h1.2v8.7h-1.2Zm6.9.1c-.7 0-1.3-.1-1.7-.5-.5-.3-.9-.9-1.1-1.5a7 7 0 0 1-.4-2.5c0-1 .1-1.7.4-2.4.2-.7.6-1.2 1-1.5.6-.4 1.1-.5 1.8-.5s1.2.1 1.7.5c.5.3.9.9 1.1 1.5.3.7.4 1.5.4 2.4a7 7 0 0 1-.4 2.5c-.2.6-.6 1.2-1 1.5-.6.4-1.1.5-1.8.5Zm0-1c.6 0 1-.4 1.4-1a5 5 0 0 0 .5-2.5l-.2-1.8c-.2-.5-.4-.9-.7-1.1-.3-.3-.6-.4-1-.4-.6 0-1 .3-1.4.8a5 5 0 0 0-.5 2.5c0 .8 0 1.4.2 1.9s.4.9.7 1.1c.3.3.6.4 1 .4Zm5.9-1.3v-1.6h.2l2.6-2.7h1.5l-3 3.1h-.1l-1.2 1.2ZM428 215v-8.7h1.3v8.7H428Zm4.2 0-2.4-3.1.9-.9 3 4h-1.5Zm5 2.6c-.5 0-1 0-1.4-.2l-.9-.6-.5-.7 1-.4c.2 0 .3.2.4.4l.5.3.9.2a2 2 0 0 0 1.2-.4c.3-.2.5-.6.5-1.1v-1.3h-.1l-.4.5-.5.4-1 .2c-.5 0-1-.1-1.4-.4-.4-.2-.8-.6-1-1a4 4 0 0 1-.4-1.8c0-.7.2-1.3.4-1.8s.6-.9 1-1.1c.4-.3.9-.4 1.4-.4.4 0 .7 0 1 .2l.6.4.3.5v-1h1.3v6.6c0 .6-.1 1-.4 1.4-.2.4-.6.7-1 .8l-1.5.3Zm0-3.8c.3 0 .6 0 .9-.2l.6-.8.2-1.1-.2-1.2-.6-.8c-.3-.2-.6-.2-1-.2-.3 0-.6 0-.9.3-.3.1-.4.4-.6.8l-.2 1 .2 1.2.6.8c.3.2.6.2 1 .2Zm7-2.4c0 1 0 2-.3 3-.3.8-.7 1.7-1.3 2.4h-1.1l.6-1a9.8 9.8 0 0 0 .7-2.9 10.6 10.6 0 0 0-1.3-7h1.1a8.8 8.8 0 0 1 1.7 5.5Z" fill="#178D39"/><path d="M460.5 208.5v1h-3.7v-1h3.7Zm-2.7 6.5v-7.3c0-.4 0-.8.3-1 .1-.3.4-.5.7-.6.3-.2.6-.2 1-.2a2.9 2.9 0 0 1 1 .1l-.3 1H459.9c-.3 0-.5 0-.6.2-.2.2-.2.4-.2.7v7.1h-1.3Zm4 0v-6.5h1.2v1c.2-.4.4-.6.7-.8.3-.2.7-.3 1-.3a5 5 0 0 1 .6 0v1.2h-.7l-.8.1a1.4 1.4 0 0 0-.7 1.3v4h-1.3Zm7.1.1a2.8 2.8 0 0 1-2.7-1.6 4 4 0 0 1-.3-1.7c0-.7 0-1.3.3-1.8a2.8 2.8 0 0 1 2.7-1.6 2.8 2.8 0 0 1 2.7 1.6c.2.5.4 1 .4 1.8a4 4 0 0 1-.4 1.7 2.8 2.8 0 0 1-2.7 1.6Zm0-1c.4 0 .7-.1 1-.4.3-.2.5-.4.6-.8l.2-1.1c0-.5 0-.8-.2-1.2-.1-.3-.3-.6-.6-.8-.3-.3-.6-.4-1-.4s-.7.1-1 .4l-.6.8-.2 1.2.2 1.1.6.8c.3.3.6.4 1 .4Zm4.5.9v-6.5h1.2v1l.8-.8a2 2 0 0 1 1-.3c.5 0 .9 0 1.2.3.3.2.5.5.6.8h.1l.7-.8c.4-.2.8-.3 1.3-.3.6 0 1 .2 1.4.5.4.4.6 1 .6 1.7v4.4H481v-4.3c0-.4-.1-.7-.4-1l-.8-.2c-.4 0-.8.1-1 .4-.2.2-.3.5-.3 1v4.1h-1.3v-4.4c0-.3-.1-.6-.3-.8-.3-.2-.5-.3-.9-.3-.2 0-.5 0-.7.2-.2 0-.3.3-.5.5l-.1.8v4h-1.3Zm15-8.7v8.7h-1.2v-8.7h1.2Zm3.7 8.8c-.5 0-.8 0-1.2-.2-.3-.1-.6-.4-.8-.7a2 2 0 0 1-.3-1c0-.4.1-.7.3-1l.5-.5c.3-.2.5-.3.8-.3a383.5 383.5 0 0 1 2.4-.4c.2-.1.2-.2.2-.4 0-.4 0-.7-.3-.9-.2-.2-.5-.3-1-.3-.4 0-.7.1-1 .3l-.5.6-1.1-.3a2.3 2.3 0 0 1 1.5-1.5 3.7 3.7 0 0 1 2 0c.3 0 .6.1.8.3.3.2.5.4.6.7.2.3.3.7.3 1.2v4.3H494v-.9c0 .2-.2.3-.4.5a2 2 0 0 1-.6.4l-1 .1Zm.2-1c.4 0 .7 0 1-.2l.5-.5c.2-.3.2-.5.2-.8v-.8l-.2.1a44.8 44.8 0 0 1-2 .4c-.2 0-.4.2-.5.3l-.2.6c0 .3.1.5.3.7l1 .2Zm9.6-4-1.2.2c0-.2 0-.3-.2-.5l-.4-.3-.7-.1c-.3 0-.6 0-.9.2l-.3.6c0 .3 0 .4.2.6l.8.3 1 .2 1.4.7c.3.3.4.6.4 1.1 0 .4 0 .7-.3 1-.2.4-.6.6-1 .8l-1.4.2c-.7 0-1.3-.1-1.7-.4a2 2 0 0 1-.9-1.4l1.2-.2c.1.4.3.6.5.8l1 .2c.4 0 .7 0 1-.3.2-.1.3-.3.3-.6 0-.2 0-.4-.2-.5-.2-.2-.4-.3-.7-.3l-1.1-.3c-.6-.1-1-.3-1.4-.6-.3-.3-.4-.7-.4-1.2 0-.4.1-.7.3-1 .2-.3.5-.5 1-.7l1.2-.2c.7 0 1.3.1 1.7.4.4.3.7.7.8 1.3Zm4.6-1.6v1h-3.6v-1h3.6Zm-2.6-1.6h1.2v6.2l.1.5.3.3H506.4l.2 1-.3.1a2.5 2.5 0 0 1-1.5 0l-.7-.7-.2-1V207Zm8 10.6a2.7 2.7 0 0 1-.9-.2l.3-1h.6c.2 0 .4 0 .5-.2.2 0 .3-.3.4-.6l.1-.4-2.4-6.6h1.4l1.7 5 1.7-5h1.4l-2.7 7.4a3 3 0 0 1-.5.8c-.2.3-.4.5-.7.6l-1 .2Zm8.6-2.4a2.8 2.8 0 0 1-2.7-1.6 4 4 0 0 1-.5-1.7c0-.7.2-1.3.4-1.8.3-.5.6-1 1-1.2a3.2 3.2 0 0 1 2.7-.2 2.6 2.6 0 0 1 1.6 1.5c.2.5.3 1 .3 1.6v.4H518v-1h4c0-.3-.1-.6-.3-.8a1.5 1.5 0 0 0-1.4-.9c-.4 0-.7.1-1 .3l-.6.7a2 2 0 0 0-.2.9v.7c0 .5 0 .8.2 1.1.2.3.4.6.7.7.3.2.6.3 1 .3l.6-.1c.2 0 .4-.2.5-.3l.4-.6 1.2.3-.5.9c-.3.3-.6.5-1 .6-.3.2-.8.2-1.2.2Zm6 0c-.3 0-.7 0-1-.2-.4-.1-.6-.4-.8-.7a2 2 0 0 1-.3-1c0-.4 0-.7.2-1 .1-.2.3-.4.6-.5.2-.2.5-.3.8-.3a391.5 391.5 0 0 1 2.4-.4l.1-.4c0-.4 0-.7-.3-.9-.2-.2-.5-.3-1-.3-.3 0-.7.1-1 .3l-.4.6-1.2-.3a2.3 2.3 0 0 1 1.5-1.5 3.7 3.7 0 0 1 2 0c.3 0 .6.1.8.3l.7.7.2 1.2v4.3h-1.2v-.9l-.5.5a2 2 0 0 1-.6.4l-1 .1Zm.4-1c.3 0 .6 0 .9-.2a1.5 1.5 0 0 0 .7-1.3v-.8l-.2.1a44.7 44.7 0 0 1-2 .4c-.2 0-.4.2-.5.3l-.2.6c0 .3.1.5.4.7l.9.2Zm4.6.9v-6.5h1.2v1h.1c.1-.4.3-.6.6-.8.3-.2.7-.3 1-.3a5 5 0 0 1 .6 0v1.2h-.6l-.9.1a1.4 1.4 0 0 0-.7 1.3v4h-1.3Z" fill="#898EA4"/><rect x="346.5" y="248" width="16" height="16" rx="2" fill="#0176ED"/><path d="M372.5 262v-1.2l6.1-9h-6.2v-1.4h8.3v1.1l-6 9h6.1v1.5h-8.3Zm14 .2a3.8 3.8 0 0 1-3.6-2.1c-.3-.7-.4-1.5-.4-2.4 0-1 .1-1.7.5-2.4a3.8 3.8 0 0 1 3.5-2.1 3.8 3.8 0 0 1 3.6 2.1c.3.7.5 1.5.5 2.4 0 .9-.2 1.7-.5 2.3a3.8 3.8 0 0 1-3.6 2.2Zm0-1.4c.6 0 1-.2 1.4-.5.3-.3.6-.6.7-1a4.4 4.4 0 0 0 0-3c-.1-.6-.4-1-.7-1.3a2 2 0 0 0-1.4-.4 2 2 0 0 0-1.3.4l-.8 1.1-.2 1.6c0 .5 0 1 .2 1.5s.5.8.8 1.1c.4.3.8.4 1.3.4Zm7.7-4v5.2h-1.7v-8.7h1.6v1.4h.1c.2-.5.6-.8 1-1.1a3 3 0 0 1 1.6-.4c.6 0 1.1 0 1.6.3.4.3.8.6 1 1.1.3.5.4 1.1.4 1.8v5.6H398v-5.3c0-.7-.2-1.2-.5-1.5-.3-.4-.8-.6-1.4-.6-.4 0-.7.1-1 .3-.3.2-.6.4-.7.7l-.3 1.2Zm11.6 5.4c-.8 0-1.6-.2-2.2-.6-.6-.3-1-.9-1.4-1.5-.4-.7-.5-1.5-.5-2.4 0-.9.1-1.7.5-2.4.3-.7.8-1.2 1.4-1.6.6-.3 1.3-.5 2.1-.5.5 0 1 0 1.4.2a3.5 3.5 0 0 1 2.2 2.1c.2.6.3 1.3.3 2v.6h-7V257h5.3c0-.5 0-.9-.3-1.2a2 2 0 0 0-1.9-1.1c-.5 0-.9 0-1.2.3-.4.2-.7.5-.9 1l-.2 1.1v1c0 .6 0 1.1.3 1.5l.8 1c.4.2.8.3 1.3.3.4 0 .7 0 1-.2.2 0 .4-.2.6-.4l.5-.7 1.6.3c-.2.5-.4 1-.7 1.3l-1.3.8c-.5.2-1 .3-1.7.3Zm11-.2H415l4.2-11.6h2l4.2 11.6h-1.8l-3.3-9.5h-.1l-3.3 9.5Zm.3-4.6h6v1.5h-6v-1.5Z" fill="#1B1E22"/><rect x="346.5" y="279" width="16" height="16" rx="2" fill="#8F94A9"/><path d="M372.5 293v-1.2l6.1-9h-6.2v-1.4h8.3v1.1l-6 9h6.1v1.5h-8.3Zm14 .2a3.8 3.8 0 0 1-3.6-2.1c-.3-.7-.4-1.5-.4-2.4 0-1 .1-1.7.5-2.4a3.8 3.8 0 0 1 3.5-2.1 3.8 3.8 0 0 1 3.6 2.1c.3.7.5 1.5.5 2.4 0 .9-.2 1.7-.5 2.3a3.8 3.8 0 0 1-3.6 2.2Zm0-1.4c.6 0 1-.2 1.4-.5.3-.3.6-.6.7-1a4.4 4.4 0 0 0 0-3c-.1-.6-.4-1-.7-1.3a2 2 0 0 0-1.4-.4 2 2 0 0 0-1.3.4l-.8 1.1-.2 1.6c0 .5 0 1 .2 1.5s.5.8.8 1.1c.4.3.8.4 1.3.4Zm7.7-4v5.2h-1.7v-8.7h1.6v1.4h.1c.2-.5.6-.8 1-1.1a3 3 0 0 1 1.6-.4c.6 0 1.1 0 1.6.3.4.3.8.6 1 1.1.3.5.4 1.1.4 1.8v5.6H398v-5.3c0-.7-.2-1.2-.5-1.5-.3-.4-.8-.6-1.4-.6-.4 0-.7.1-1 .3-.3.2-.6.4-.7.7l-.3 1.2Zm11.6 5.4c-.8 0-1.6-.2-2.2-.6-.6-.3-1-.9-1.4-1.5-.4-.7-.5-1.5-.5-2.4 0-.9.1-1.7.5-2.4.3-.7.8-1.2 1.4-1.6.6-.3 1.3-.5 2.1-.5.5 0 1 0 1.4.2a3.5 3.5 0 0 1 2.2 2.1c.2.6.3 1.3.3 2v.6h-7V288h5.3c0-.5 0-.9-.3-1.2a2 2 0 0 0-1.9-1.1c-.5 0-.9 0-1.2.3-.4.2-.7.5-.9 1l-.2 1.1v1c0 .6 0 1.1.3 1.5l.8 1c.4.2.8.3 1.3.3.4 0 .7 0 1-.2.2 0 .4-.2.6-.4l.5-.7 1.6.3c-.2.5-.4 1-.7 1.3l-1.3.8c-.5.2-1 .3-1.7.3Zm10-.2v-11.6h4.3c.8 0 1.5.1 2 .4a2.8 2.8 0 0 1 1.7 2.6c0 .5-.1 1-.3 1.2-.2.4-.4.6-.7.8l-1 .5c.4.1.8.2 1.1.5.4.2.7.5 1 1 .2.4.3.9.3 1.5a2.9 2.9 0 0 1-1.7 2.7c-.6.3-1.3.4-2.2.4h-4.5Zm1.8-1.5h2.5c.9 0 1.5-.2 1.8-.5.4-.3.6-.7.6-1.2a2 2 0 0 0-1.1-1.8l-1.2-.2h-2.6v3.7Zm0-5.1h2.3c.4 0 .8 0 1.1-.2l.8-.7.2-1c0-.4-.1-.8-.5-1.2-.3-.3-.8-.4-1.5-.4h-2.4v3.5Z" fill="#1B1E22"/><rect x="346.5" y="310" width="16" height="16" rx="2" fill="#B1B5C5"/><path d="M372.5 324v-1.2l6.1-9h-6.2v-1.4h8.3v1.1l-6 9h6.1v1.5h-8.3Zm14 .2a3.8 3.8 0 0 1-3.6-2.1c-.3-.7-.4-1.5-.4-2.4 0-1 .1-1.7.5-2.4a3.8 3.8 0 0 1 3.5-2.1 3.8 3.8 0 0 1 3.6 2.1c.3.7.5 1.5.5 2.4 0 .9-.2 1.7-.5 2.3a3.8 3.8 0 0 1-3.6 2.2Zm0-1.4c.6 0 1-.2 1.4-.5.3-.3.6-.6.7-1a4.4 4.4 0 0 0 0-3c-.1-.6-.4-1-.7-1.3a2 2 0 0 0-1.4-.4 2 2 0 0 0-1.3.4l-.8 1.1-.2 1.6c0 .5 0 1 .2 1.5s.5.8.8 1.1c.4.3.8.4 1.3.4Zm7.7-4v5.2h-1.7v-8.7h1.6v1.4h.1c.2-.5.6-.8 1-1.1a3 3 0 0 1 1.6-.4c.6 0 1.1 0 1.6.3.4.3.8.6 1 1.1.3.5.4 1.1.4 1.8v5.6H398v-5.3c0-.7-.2-1.2-.5-1.5-.3-.4-.8-.6-1.4-.6-.4 0-.7.1-1 .3-.3.2-.6.4-.7.7l-.3 1.2Zm11.6 5.4c-.8 0-1.6-.2-2.2-.6-.6-.3-1-.9-1.4-1.5-.4-.7-.5-1.5-.5-2.4 0-.9.1-1.7.5-2.4.3-.7.8-1.2 1.4-1.6.6-.3 1.3-.5 2.1-.5.5 0 1 0 1.4.2a3.5 3.5 0 0 1 2.2 2.1c.2.6.3 1.3.3 2v.6h-7V319h5.3c0-.5 0-.9-.3-1.2a2 2 0 0 0-1.9-1.1c-.5 0-.9 0-1.2.3-.4.2-.7.5-.9 1l-.2 1.1v1c0 .6 0 1.1.3 1.5l.8 1c.4.2.8.3 1.3.3.4 0 .7 0 1-.2.2 0 .4-.2.6-.4l.5-.7 1.6.3c-.2.5-.4 1-.7 1.3l-1.3.8c-.5.2-1 .3-1.7.3Zm19.7-8h-1.8a2.7 2.7 0 0 0-2-2.2 3.5 3.5 0 0 0-2.8.3c-.5.3-1 .8-1.3 1.5-.3.6-.4 1.4-.4 2.4s.1 1.7.4 2.4c.4.6.8 1.1 1.3 1.5a3.6 3.6 0 0 0 2.8.4l1-.5a2.7 2.7 0 0 0 1-1.8h1.8a4.7 4.7 0 0 1-1.6 2.9l-1.4.8-1.8.3c-1 0-2-.3-2.7-.8a5 5 0 0 1-1.9-2 7 7 0 0 1-.7-3.2 7 7 0 0 1 .7-3.2 5 5 0 0 1 4.6-2.8c.6 0 1.2 0 1.7.3a4.6 4.6 0 0 1 2.5 2c.3.5.5 1 .6 1.6Z" fill="#1B1E22"/><rect x="346.5" y="341" width="16" height="16" rx="2" fill="#D3D5E1"/><path d="M372.8 355v-11.6h4.1c1 0 1.7.1 2.3.5.6.3 1 .7 1.3 1.3.3.6.5 1.2.5 2 0 .6-.2 1.3-.5 1.9-.3.5-.7 1-1.3 1.3-.6.3-1.4.5-2.3.5h-2.8v-1.5h2.7c.5 0 1 0 1.4-.3.3-.2.6-.4.7-.8.2-.3.3-.7.3-1.2 0-.4-.1-.8-.3-1.1-.1-.4-.4-.6-.8-.8a3 3 0 0 0-1.4-.3h-2.2V355h-1.7Zm10 0v-8.7h1.8v8.7h-1.7Zm1-10a1 1 0 0 1-.8-.4 1 1 0 0 1-.3-.7c0-.3 0-.5.3-.7.2-.2.4-.3.7-.3.3 0 .6.1.8.3.2.2.3.4.3.7 0 .3-.1.5-.3.7a1 1 0 0 1-.8.3Zm4.8-1.6V355h-1.7v-11.6h1.7Zm6 11.8a3.8 3.8 0 0 1-3.6-2.1c-.4-.7-.5-1.5-.5-2.4 0-1 .1-1.7.5-2.4a3.8 3.8 0 0 1 3.5-2.1 3.8 3.8 0 0 1 3.6 2.1c.3.7.5 1.5.5 2.4 0 .9-.2 1.7-.5 2.3a3.8 3.8 0 0 1-3.6 2.2Zm0-1.4c.5 0 .9-.2 1.2-.5.4-.3.7-.6.8-1a4.4 4.4 0 0 0 0-3c-.1-.6-.4-1-.8-1.3a2 2 0 0 0-1.3-.4 2 2 0 0 0-1.3.4c-.4.3-.6.7-.8 1.1l-.2 1.6c0 .5 0 1 .2 1.5s.4.8.8 1.1c.4.3.8.4 1.3.4Zm10-7.5v1.3h-4.8v-1.3h4.8Zm-3.5-2.1h1.7v8.2l.1.8c.1.1.2.3.4.3l.5.1a2 2 0 0 0 .6 0l.3 1.3-.4.1a3.3 3.3 0 0 1-2-.1l-.9-.8c-.2-.3-.3-.8-.3-1.3v-8.6ZM452.5 262.2c-.8 0-1.4-.2-2-.4-.5-.3-1-.7-1.3-1.2a3 3 0 0 1-.6-1.6h1.8c0 .5.2.9.6 1.2.4.3.9.5 1.5.5a2.2 2.2 0 0 0 2-1.2c.2-.3.3-.8.3-1.2 0-.5-.1-1-.3-1.3-.2-.4-.5-.7-.9-.9-.3-.2-.8-.3-1.2-.3a3.3 3.3 0 0 0-2 .7l-1.5-.3.6-5.8h6.4v1.5h-5l-.3 3.2 1-.5c.3-.2.8-.2 1.2-.2a3.6 3.6 0 0 1 3.2 1.8c.3.6.5 1.3.5 2a3.7 3.7 0 0 1-2 3.4c-.6.4-1.3.6-2 .6Zm10.1 0-1.5-.3c-.5-.2-1-.5-1.4-1-.4-.4-.7-1-1-1.6-.2-.8-.3-1.7-.3-2.7 0-1 0-2 .3-2.7a6 6 0 0 1 .8-2c.4-.6.9-1 1.4-1.3.6-.3 1.2-.4 1.9-.4a4 4 0 0 1 1.8.4c.5.3 1 .7 1.3 1.1.3.5.6 1 .6 1.7h-1.7c-.1-.5-.3-.9-.7-1.2a2 2 0 0 0-1.3-.5c-.9 0-1.6.4-2 1.2-.5.7-.8 1.7-.8 3h.1a3.1 3.1 0 0 1 1.8-1.3c.3-.2.7-.2 1.1-.2.7 0 1.3.1 1.8.5.6.3 1 .7 1.4 1.3.3.6.4 1.3.4 2a4 4 0 0 1-.5 2c-.3.6-.8 1.1-1.4 1.4-.6.4-1.3.6-2.1.6Zm0-1.5 1.2-.3.8-1c.2-.3.3-.7.3-1.2 0-.4 0-.8-.3-1.2-.2-.4-.4-.7-.8-.9-.3-.2-.7-.3-1.2-.3a2.3 2.3 0 0 0-1.7.7l-.5.8-.1 1a2.5 2.5 0 0 0 1 2c.4.3.9.4 1.3.4Zm12.2-.9v-.6c0-.4 0-.8.3-1.2.1-.4.4-.7.8-.9.3-.2.8-.3 1.3-.3s.9 0 1.3.3c.3.2.6.5.7.9l.3 1.2v.6c0 .5 0 .9-.3 1.2a2.2 2.2 0 0 1-2 1.2c-.6 0-1 0-1.3-.3-.4-.2-.7-.5-.8-.9-.2-.3-.3-.7-.3-1.2Zm1.3-.6v.6c0 .3 0 .6.2.9.2.3.5.4.9.4.3 0 .6-.1.8-.4l.2-.9v-.6c0-.3 0-.6-.2-.9-.2-.2-.4-.4-.8-.4s-.7.2-.9.4l-.2.9Zm-7.2-6v-.7l.3-1.2.8-.8c.4-.3.8-.4 1.3-.4s1 .1 1.3.4l.8.8.3 1.2v.7l-.3 1.2-.8.8c-.4.3-.8.4-1.3.4s-1-.1-1.3-.3l-.8-1c-.2-.3-.3-.7-.3-1.1Zm1.4-.7v.7c0 .3 0 .6.2.8.1.3.4.4.8.4s.6 0 .8-.4c.2-.2.2-.5.2-.8v-.7c0-.3 0-.6-.2-.8-.1-.3-.4-.4-.8-.4s-.6 0-.8.4c-.2.2-.2.5-.2.8Zm-.8 9.5 8-11.6h1.3l-8 11.6h-1.3ZM448.6 293v-1.3l4-4a22.2 22.2 0 0 0 1.6-2.2c.2-.3.2-.6.2-1 0-.3 0-.7-.3-1l-.7-.6c-.3-.2-.7-.2-1-.2-.5 0-.8 0-1.1.2-.4.2-.6.4-.8.7l-.2 1.1h-1.7c0-.7.2-1.3.5-1.8s.8-1 1.3-1.3c.6-.2 1.3-.4 2-.4s1.4.2 2 .4c.5.3 1 .7 1.2 1.2.3.5.5 1 .5 1.7 0 .4 0 .9-.3 1.3-.1.4-.4.8-.8 1.4l-1.6 1.8-2.4 2.4h5.3v1.6h-7.7Zm13.9.2c-1 0-1.7-.2-2.3-.7a4.4 4.4 0 0 1-1.5-2c-.3-1-.5-2-.5-3.3 0-1.3.2-2.4.5-3.2.4-1 .9-1.6 1.5-2 .6-.6 1.4-.8 2.3-.8.9 0 1.6.2 2.3.7.6.5 1.1 1.2 1.4 2 .4 1 .5 2 .5 3.3 0 1.3-.1 2.3-.5 3.2a3.8 3.8 0 0 1-3.8 2.8Zm0-1.5c.8 0 1.4-.4 1.8-1.2.5-.7.7-1.9.7-3.3 0-1-.1-1.8-.3-2.5-.2-.6-.5-1.1-.9-1.5-.4-.3-.8-.5-1.3-.5-.8 0-1.4.4-1.9 1.2-.4.7-.6 1.8-.6 3.3 0 1 0 1.8.3 2.4.2.7.5 1.2.8 1.6.4.3.9.5 1.4.5Zm12.3-.9v-.6l.3-1.2c.2-.4.5-.7.8-.9.4-.2.8-.3 1.3-.3s1 0 1.3.3c.3.2.6.5.8.9l.3 1.2v.6c0 .5-.1.9-.3 1.2a2.2 2.2 0 0 1-2.1 1.2c-.5 0-1 0-1.3-.3-.3-.2-.6-.5-.8-.9-.2-.3-.3-.7-.3-1.2Zm1.4-.6v.6c0 .3 0 .6.2.9.1.3.4.4.8.4s.7-.1.8-.4c.2-.3.2-.6.2-.9v-.6c0-.3 0-.6-.2-.9-.1-.2-.4-.4-.8-.4s-.6.2-.8.4c-.2.3-.2.6-.2.9Zm-7.2-6v-.7c0-.4 0-.8.3-1.2.1-.3.4-.6.8-.8.3-.3.7-.4 1.3-.4.5 0 .9.1 1.2.4.4.2.7.5.8.8l.3 1.2v.7c0 .4 0 .8-.3 1.2-.1.3-.4.6-.8.9-.3.2-.7.3-1.2.3-.6 0-1-.1-1.3-.4-.4-.2-.7-.5-.8-.8l-.3-1.2Zm1.3-.7v.7c0 .3 0 .6.2.8.2.3.5.4.9.4.3 0 .6 0 .7-.4.2-.2.3-.5.3-.8v-.7c0-.3 0-.6-.2-.8-.2-.3-.5-.4-.8-.4-.4 0-.7 0-.9.4l-.2.8Zm-.8 9.5 8-11.6h1.4l-8 11.6h-1.4ZM453 312.4V324h-1.7v-9.9h-.1l-2.8 1.8v-1.6l3-2h1.6Zm3.2 11.6v-1.3l4-4a21.7 21.7 0 0 0 1.6-2.2l.2-1c0-.3-.1-.7-.3-1l-.7-.6c-.3-.2-.7-.2-1.1-.2-.4 0-.8 0-1 .2-.4.2-.6.4-.8.7-.2.4-.3.7-.3 1.1h-1.6c0-.7.1-1.3.5-1.8.3-.5.7-1 1.3-1.3.6-.2 1.2-.4 2-.4a4 4 0 0 1 1.9.4c.5.3 1 .7 1.3 1.2.3.5.5 1 .5 1.7 0 .4-.1.9-.3 1.3-.1.4-.4.8-.8 1.4l-1.7 1.8-2.3 2.4h5.2v1.6h-7.6Zm15.9-2.2v-.6c0-.4 0-.8.2-1.2.2-.4.5-.7.8-.9.4-.2.8-.3 1.3-.3.6 0 1 0 1.3.3.4.2.6.5.8.9l.3 1.2v.6c0 .5-.1.9-.3 1.2a2.2 2.2 0 0 1-2 1.2c-.6 0-1 0-1.4-.3-.3-.2-.6-.5-.8-.9l-.2-1.2Zm1.3-.6v.6c0 .3 0 .6.2.9.2.3.5.4.8.4.4 0 .7-.1.8-.4l.3-.9v-.6l-.3-.9c-.1-.2-.4-.4-.8-.4-.3 0-.6.2-.8.4l-.2.9Zm-7.2-6v-.7l.3-1.2c.2-.3.4-.6.8-.8.4-.3.8-.4 1.3-.4s1 .1 1.3.4l.8.8.2 1.2v.7c0 .4 0 .8-.2 1.2l-.8.9c-.4.2-.8.3-1.3.3s-1-.1-1.3-.4c-.4-.2-.6-.5-.8-.8l-.3-1.2Zm1.3-.7v.7c0 .3.1.6.3.8.1.3.4.4.8.4s.6 0 .8-.4l.2-.8v-.7c0-.3 0-.6-.2-.8-.2-.3-.4-.4-.8-.4s-.7 0-.8.4c-.2.2-.3.5-.3.8Zm-.7 9.5 8-11.6h1.3l-8 11.6h-1.3ZM453 343.4V355h-1.7v-9.9h-.1l-2.8 1.8v-1.6l3-2h1.6Zm3.2 11.6v-1.3l4-4a21.7 21.7 0 0 0 1.6-2.2l.2-1c0-.3-.1-.7-.3-1l-.7-.6c-.3-.2-.7-.2-1.1-.2-.4 0-.8 0-1 .2-.4.2-.6.4-.8.7-.2.4-.3.7-.3 1.1h-1.6c0-.7.1-1.3.5-1.8.3-.5.7-1 1.3-1.3.6-.2 1.2-.4 2-.4a4 4 0 0 1 1.9.4c.5.3 1 .7 1.3 1.2.3.5.5 1 .5 1.7 0 .4-.1.9-.3 1.3-.1.4-.4.8-.8 1.4l-1.7 1.8-2.3 2.4h5.2v1.6h-7.6Zm15.9-2.2v-.6c0-.4 0-.8.2-1.2.2-.4.5-.7.8-.9.4-.2.8-.3 1.3-.3.6 0 1 0 1.3.3.4.2.6.5.8.9l.3 1.2v.6c0 .5-.1.9-.3 1.2a2.2 2.2 0 0 1-2 1.2c-.6 0-1 0-1.4-.3-.3-.2-.6-.5-.8-.9l-.2-1.2Zm1.3-.6v.6c0 .3 0 .6.2.9.2.3.5.4.8.4.4 0 .7-.1.8-.4l.3-.9v-.6l-.3-.9c-.1-.2-.4-.4-.8-.4-.3 0-.6.2-.8.4l-.2.9Zm-7.2-6v-.7l.3-1.2c.2-.3.4-.6.8-.8.4-.3.8-.4 1.3-.4s1 .1 1.3.4l.8.8.2 1.2v.7c0 .4 0 .8-.2 1.2l-.8.9c-.4.2-.8.3-1.3.3s-1-.1-1.3-.4c-.4-.2-.6-.5-.8-.8l-.3-1.2Zm1.3-.7v.7c0 .3.1.6.3.8.1.3.4.4.8.4s.6 0 .8-.4l.2-.8v-.7c0-.3 0-.6-.2-.8-.2-.3-.4-.4-.8-.4s-.7 0-.8.4c-.2.2-.3.5-.3.8Zm-.7 9.5 8-11.6h1.3l-8 11.6h-1.3ZM503.6 262v-1.3l4-4a22.2 22.2 0 0 0 1.6-2.2c.2-.3.2-.6.2-1 0-.3 0-.7-.3-1l-.7-.6c-.3-.2-.7-.2-1-.2-.5 0-.8 0-1.1.2-.4.2-.6.4-.8.7l-.2 1.1h-1.7c0-.7.2-1.3.5-1.8.3-.6.8-1 1.3-1.3.6-.2 1.3-.4 2-.4s1.4.2 2 .4c.5.3 1 .7 1.2 1.2.3.5.5 1 .5 1.7 0 .4 0 .9-.3 1.3-.1.4-.4.8-.8 1.4l-1.6 1.8-2.4 2.4h5.3v1.6h-7.7Zm9.3-2.3v-1.4l5-8h1.2v2.2h-.7l-3.6 5.6v.1h6.9v1.5h-8.8Zm5.6 2.3v-11.6h1.6V262h-1.6Zm9.2.2c-.9 0-1.7-.2-2.3-.7a4.4 4.4 0 0 1-1.5-2c-.3-1-.5-2-.5-3.3 0-1.3.2-2.4.5-3.2.4-1 .9-1.6 1.5-2 .6-.6 1.4-.8 2.3-.8.9 0 1.7.2 2.3.7.6.5 1.1 1.2 1.5 2 .3 1 .5 2 .5 3.3 0 1.3-.2 2.3-.5 3.2-.4 1-.9 1.6-1.5 2-.6.6-1.4.8-2.3.8Zm0-1.5c.8 0 1.4-.4 1.8-1.2.5-.7.7-1.9.7-3.3 0-1 0-1.8-.3-2.5-.2-.6-.5-1.1-.9-1.5-.3-.3-.8-.5-1.3-.5-.8 0-1.4.4-1.8 1.2-.5.7-.7 1.8-.7 3.3 0 1 0 1.8.3 2.4.2.7.5 1.2.8 1.6.4.3.9.5 1.4.5Zm7.9-1.7v-2h.2l3.5-3.7h2l-4 4.2h-.2l-1.5 1.5Zm-1.6 3v-11.6h1.7V262H534Zm5.5 0-3.1-4.1 1.2-1.2 4 5.3h-2Zm6.7 3.5c-.7 0-1.3-.1-1.8-.3-.5-.2-.9-.4-1.2-.7a3 3 0 0 1-.7-1l1.5-.6.4.5c.1.2.4.4.7.5l1.1.2c.7 0 1.2-.2 1.6-.5.4-.3.7-.8.7-1.5v-1.7h-.2c0 .2-.2.4-.4.6-.2.3-.4.5-.8.6a3 3 0 0 1-1.3.3 3.4 3.4 0 0 1-3.2-2c-.3-.6-.4-1.4-.4-2.3 0-1 .1-1.7.4-2.4.4-.6.8-1.2 1.3-1.5.6-.4 1.2-.5 2-.5.5 0 1 0 1.2.2.4.2.6.4.8.7l.5.6v-1.4h1.7v8.9a3 3 0 0 1-.5 1.8 3 3 0 0 1-1.4 1.1c-.6.2-1.3.4-2 .4Zm0-5c.5 0 .9-.2 1.2-.4.4-.2.6-.5.8-1a4.2 4.2 0 0 0 0-3.1c-.2-.4-.4-.8-.8-1a2 2 0 0 0-1.2-.4 2 2 0 0 0-1.3.4l-.8 1-.2 1.6c0 .6 0 1 .2 1.5.2.4.5.8.8 1 .4.2.8.4 1.3.4ZM507.6 293.2c-.9 0-1.6-.2-2.2-.5-.6-.2-1.1-.6-1.5-1.1-.3-.5-.5-1-.5-1.7a3 3 0 0 1 1.2-2.4c.3-.3.7-.5 1.1-.5v-.1c-.5-.1-1-.5-1.3-1-.4-.4-.6-1-.6-1.6 0-.6.2-1.1.5-1.6s.8-.8 1.3-1c.6-.4 1.2-.5 2-.5.7 0 1.3.1 1.8.4.6.3 1 .7 1.4 1.1.3.5.5 1 .5 1.6 0 .6-.2 1.2-.6 1.7-.3.4-.8.8-1.3.9.4.1.8.3 1.1.6.4.3.7.6.9 1a3 3 0 0 1-.2 3c-.4.6-.9 1-1.5 1.2-.6.3-1.3.5-2.1.5Zm0-1.5c.4 0 .8 0 1.2-.2.4-.2.6-.4.8-.7a2 2 0 0 0 0-2.1l-.8-.7-1.2-.3c-.5 0-1 .1-1.3.3l-.8.7c-.2.3-.3.7-.3 1 0 .5 0 .8.3 1.1.2.3.4.5.8.7l1.3.2Zm0-5.4c.3 0 .7 0 1-.2a1.8 1.8 0 0 0 1-1.6c0-.4-.1-.7-.3-1-.2-.3-.4-.5-.7-.6-.3-.2-.7-.3-1-.3-.5 0-.8.1-1.1.3a1.7 1.7 0 0 0-1 1.6l.3 1 .7.6 1 .2Zm10 6.9c-.8 0-1.5-.2-2.1-.5-.6-.2-1.1-.6-1.5-1.1-.3-.5-.5-1-.5-1.7a3 3 0 0 1 1.2-2.4c.3-.3.7-.5 1.2-.5v-.1c-.6-.1-1-.5-1.4-1-.4-.4-.6-1-.5-1.6 0-.6.1-1.1.4-1.6.3-.5.8-.8 1.3-1 .6-.4 1.2-.5 2-.5.7 0 1.3.1 1.9.4.5.3 1 .7 1.3 1.1.3.5.5 1 .5 1.6 0 .6-.2 1.2-.6 1.7-.3.4-.8.8-1.3.9.4.1.8.3 1.1.6a3 3 0 0 1 1.2 2.4c0 .6-.2 1.2-.5 1.7-.4.5-.9.9-1.5 1.1-.6.3-1.3.5-2.1.5Zm0-1.5c.5 0 1 0 1.3-.2.4-.2.6-.4.8-.7a2 2 0 0 0 0-2.1l-.8-.7-1.2-.3c-.5 0-1 .1-1.3.3l-.8.7c-.2.3-.3.7-.3 1 0 .5 0 .8.3 1.1.2.3.4.5.8.7l1.3.2Zm0-5.4c.4 0 .8 0 1-.2a1.8 1.8 0 0 0 1-1.6c0-.4 0-.7-.2-1-.2-.3-.4-.5-.7-.6-.3-.2-.6-.3-1-.3s-.8.1-1.1.3a1.7 1.7 0 0 0-1 1.6l.3 1 .7.6 1 .2Zm7.8 3.7v-2h.3l3.5-3.7h2l-4 4.2h-.2l-1.6 1.5Zm-1.5 3v-11.6h1.7V293h-1.7Zm5.5 0-3.2-4.1 1.2-1.2 4 5.3h-2Zm6.7 3.5c-.7 0-1.3-.1-1.8-.3-.5-.2-1-.4-1.2-.7a3 3 0 0 1-.7-1l1.4-.6.4.5.7.5 1.2.2c.6 0 1.2-.2 1.6-.5.4-.3.6-.8.6-1.5v-1.7h-.1l-.4.6c-.2.3-.5.5-.8.6a3 3 0 0 1-1.3.3c-.7 0-1.3-.2-1.9-.5-.5-.3-1-.8-1.3-1.5-.3-.6-.5-1.4-.5-2.3 0-1 .2-1.7.5-2.4a3.4 3.4 0 0 1 3.2-2c.5 0 1 0 1.3.2l.8.7.4.6h.1v-1.4h1.7v8.9a3 3 0 0 1-.5 1.8 3 3 0 0 1-1.4 1.1c-.6.2-1.3.4-2 .4Zm0-5c.4 0 .9-.2 1.2-.4.3-.2.6-.5.8-1l.2-1.5c0-.6 0-1.1-.2-1.6-.2-.4-.5-.8-.8-1a2 2 0 0 0-1.3-.4 2 2 0 0 0-1.2.4c-.4.3-.6.6-.8 1-.2.5-.3 1-.3 1.6 0 .6.1 1 .3 1.5.2.4.4.8.8 1 .3.2.7.4 1.3.4ZM507.5 324.2c-.8 0-1.4-.2-2-.4-.5-.3-1-.7-1.3-1.2a3 3 0 0 1-.6-1.6h1.8c0 .5.2.9.6 1.2.4.3.9.5 1.5.5a2.2 2.2 0 0 0 2-1.2c.2-.3.3-.8.3-1.2 0-.5-.1-1-.3-1.3-.2-.4-.5-.7-.9-.9-.3-.2-.8-.3-1.2-.3a3.3 3.3 0 0 0-2 .7l-1.5-.3.6-5.8h6.4v1.5h-5l-.3 3.2 1-.5c.3-.2.8-.2 1.2-.2a3.6 3.6 0 0 1 3.2 1.8c.3.6.5 1.3.5 2a3.7 3.7 0 0 1-2 3.4c-.6.4-1.3.6-2 .6Zm6-.2v-1.3l4-4a21.7 21.7 0 0 0 1.6-2.2c.2-.3.2-.6.2-1 0-.3 0-.7-.2-1l-.8-.6c-.3-.2-.6-.2-1-.2-.5 0-.8 0-1.1.2-.3.2-.6.4-.7.7-.2.4-.3.7-.3 1.1h-1.7a3.3 3.3 0 0 1 1.8-3c.6-.3 1.3-.5 2-.5s1.4.2 2 .4c.5.3 1 .7 1.2 1.2.4.5.5 1 .5 1.7 0 .4 0 .9-.2 1.3l-.9 1.4-1.6 1.8-2.3 2.4h5.2v1.6h-7.7Zm11.4-3v-2h.3l3.5-3.7h2l-4 4.2h-.2l-1.6 1.5Zm-1.5 3v-11.6h1.7V324h-1.7Zm5.5 0-3.1-4.1 1.1-1.2 4 5.3h-2Zm6.7 3.5c-.7 0-1.3-.1-1.8-.3-.5-.2-1-.4-1.2-.7a3 3 0 0 1-.7-1l1.4-.6.4.5.7.5 1.2.2c.6 0 1.2-.2 1.6-.5.4-.3.6-.8.6-1.5v-1.7l-.5.6c-.2.3-.5.5-.8.6a3 3 0 0 1-1.3.3c-.7 0-1.3-.2-1.9-.5-.5-.3-1-.8-1.3-1.5-.3-.6-.5-1.4-.5-2.3 0-1 .2-1.7.5-2.4a3.4 3.4 0 0 1 3.2-2c.5 0 1 0 1.3.2l.8.7.4.6h.2v-1.4h1.6v8.9a3 3 0 0 1-.5 1.8 3 3 0 0 1-1.4 1.1c-.6.2-1.3.4-2 .4Zm0-5c.5 0 .9-.2 1.2-.4.3-.2.6-.5.8-1 .2-.4.2-1 .2-1.5 0-.6 0-1.1-.2-1.6-.2-.4-.4-.8-.8-1a2 2 0 0 0-1.2-.4 2 2 0 0 0-1.3.4c-.4.3-.6.6-.8 1-.2.5-.2 1-.2 1.6 0 .6 0 1 .2 1.5.2.4.5.8.8 1 .3.2.8.4 1.3.4ZM507.5 355.2c-.8 0-1.4-.2-2-.4-.5-.3-1-.7-1.3-1.2a3 3 0 0 1-.6-1.6h1.8c0 .5.2.9.6 1.2.4.3.9.5 1.5.5a2.2 2.2 0 0 0 2-1.2c.2-.3.3-.8.3-1.2 0-.5-.1-1-.3-1.3-.2-.4-.5-.7-.9-.9-.3-.2-.8-.3-1.2-.3a3.3 3.3 0 0 0-2 .7l-1.5-.3.6-5.8h6.4v1.5h-5l-.3 3.2 1-.5c.3-.2.8-.2 1.2-.2a3.6 3.6 0 0 1 3.2 1.8c.3.6.5 1.3.5 2a3.7 3.7 0 0 1-2 3.4c-.6.4-1.3.6-2 .6Zm6-.2v-1.3l4-4a21.7 21.7 0 0 0 1.6-2.2c.2-.3.2-.6.2-1 0-.3 0-.7-.2-1l-.8-.6c-.3-.2-.6-.2-1-.2-.5 0-.8 0-1.1.2-.3.2-.6.4-.7.7-.2.4-.3.7-.3 1.1h-1.7a3.3 3.3 0 0 1 1.8-3c.6-.3 1.3-.5 2-.5s1.4.2 2 .4c.5.3 1 .7 1.2 1.2.4.5.5 1 .5 1.7 0 .4 0 .9-.2 1.3l-.9 1.4-1.6 1.8-2.3 2.4h5.2v1.6h-7.7Zm11.4-3v-2h.3l3.5-3.7h2l-4 4.2h-.2l-1.6 1.5Zm-1.5 3v-11.6h1.7V355h-1.7Zm5.5 0-3.1-4.1 1.1-1.2 4 5.3h-2Zm6.7 3.5c-.7 0-1.3-.1-1.8-.3-.5-.2-1-.4-1.2-.7a3 3 0 0 1-.7-1l1.4-.6.4.5.7.5 1.2.2c.6 0 1.2-.2 1.6-.5.4-.3.6-.8.6-1.5v-1.7l-.5.6c-.2.3-.5.5-.8.6a3 3 0 0 1-1.3.3c-.7 0-1.3-.2-1.9-.5-.5-.3-1-.8-1.3-1.5-.3-.6-.5-1.4-.5-2.3 0-1 .2-1.7.5-2.4a3.4 3.4 0 0 1 3.2-2c.5 0 1 0 1.3.2l.8.7.4.6h.2v-1.4h1.6v8.9a3 3 0 0 1-.5 1.8 3 3 0 0 1-1.4 1.1c-.6.2-1.3.4-2 .4Zm0-5c.5 0 .9-.2 1.2-.4.3-.2.6-.5.8-1 .2-.4.2-1 .2-1.5 0-.6 0-1.1-.2-1.6-.2-.4-.4-.8-.8-1a2 2 0 0 0-1.2-.4 2 2 0 0 0-1.3.4c-.4.3-.6.6-.8 1-.2.5-.2 1-.2 1.6 0 .6 0 1 .2 1.5.2.4.5.8.8 1 .3.2.8.4 1.3.4Z" fill="#1B1E22"/><g filter="url(#b)"><rect x="38" y="42.3" width="424" height="84.2" rx="4" fill="#fff"/></g><rect x="58" y="62.5" width="44" height="44" rx="4" fill="#F6F6F9"/><path d="M72 76.5h16a2 2 0 0 1 2 2v12a2 2 0 0 1-2 2H72a2 2 0 0 1-2-2v-12c0-1.1.9-2 2-2Z" stroke="#1B1E22" stroke-width="2" stroke-linecap="round" stroke-linejoin="round"/><path d="m90 78.5-10 7-10-7" stroke="#1B1E22" stroke-width="2" stroke-linecap="round" stroke-linejoin="round"/><circle cx="101.5" cy="64" r="5.5" fill="#77BE69"/><path d="M120.5 78.6c-.4 0-.9 0-1.3-.2s-.8-.4-1.2-.8a4 4 0 0 1-.9-1.5 9.6 9.6 0 0 1 0-4.7c.2-.7.4-1.3.8-1.8.3-.4.7-.8 1.2-1 .4-.3 1-.4 1.6-.4.6 0 1.1.1 1.6.3A3.3 3.3 0 0 1 124 71h-1.5a2 2 0 0 0-.6-1c-.3-.2-.7-.4-1.2-.4a2 2 0 0 0-1.8 1 5 5 0 0 0-.6 2.7A2.8 2.8 0 0 1 120 72a3 3 0 0 1 1-.2 3.2 3.2 0 0 1 2.7 1.6 3.6 3.6 0 0 1 0 3.5c-.3.6-.7 1-1.2 1.3-.5.3-1.2.4-1.9.4Zm0-1.3a2 2 0 0 0 1-.2c.4-.2.6-.5.8-.8.2-.3.3-.7.3-1.1 0-.4-.1-.8-.3-1a2 2 0 0 0-.7-.8 2 2 0 0 0-1-.3 2 2 0 0 0-1.5.6l-.5.7a2.2 2.2 0 0 0 .8 2.7l1.1.2Zm6.9-3.3v4.5h-1.5V68.3h1.5v3.8c.2-.4.5-.7.9-1 .3-.2.8-.3 1.4-.3.5 0 1 0 1.4.3.4.2.7.5 1 1l.2 1.5v4.9H131v-4.7c0-.5-.2-1-.5-1.3-.3-.3-.7-.4-1.2-.4a2 2 0 0 0-1 .2l-.6.6-.2 1Zm12.8 4.7c-.4 0-.9-.1-1.3-.3-.4-.2-.7-.4-.9-.8-.2-.3-.3-.8-.3-1.3 0-.4 0-.7.2-1l.7-.7 1-.4 1-.1 1.1-.2.6-.1c.2-.1.2-.3.2-.4 0-.5-.1-.8-.3-1-.3-.3-.6-.4-1.1-.4-.5 0-1 0-1.2.3l-.6.7-1.4-.3a2.7 2.7 0 0 1 1.8-1.7 4.3 4.3 0 0 1 2.3-.1c.4 0 .7.2 1 .4.3.2.5.4.7.8.2.3.3.8.3 1.3v5.1h-1.4v-1l-.5.5-.8.5-1 .2Zm.4-1.2c.4 0 .7-.1 1-.3a1.7 1.7 0 0 0 1-1.5v-1l-.4.2-.5.1a66.1 66.1 0 0 1-1.8.4l-.6.3a1 1 0 0 0-.2.7c0 .3.2.6.4.8.3.2.7.3 1 .3Zm8.6 4c-.6 0-1.1 0-1.6-.2a3 3 0 0 1-1-.6c-.3-.3-.5-.6-.6-1l1.2-.4.4.4.6.5 1 .1c.6 0 1-.1 1.4-.4.4-.3.6-.7.6-1.3v-1.5h-.1l-.4.5-.7.6-1.1.2c-.6 0-1.2-.2-1.7-.4a3 3 0 0 1-1.1-1.3c-.3-.6-.4-1.2-.4-2 0-.9.1-1.6.4-2.1.3-.6.6-1 1.1-1.4a3 3 0 0 1 1.7-.4c.4 0 .8 0 1.1.2l.7.5.4.6v-1.2h1.5v7.8c0 .6-.1 1.2-.4 1.6-.3.4-.7.7-1.3 1l-1.7.2Zm0-4.3c.4 0 .8-.1 1-.3.4-.2.6-.5.7-1 .2-.3.3-.7.3-1.3 0-.5-.1-1-.3-1.3a2 2 0 0 0-.6-1c-.3-.2-.7-.3-1.1-.3-.5 0-.8.1-1.1.4-.3.2-.6.5-.7 1-.2.3-.2.7-.2 1.2s0 1 .2 1.3c.1.4.4.7.7 1 .3.1.6.3 1 .3Zm8.7 1.5c-.8 0-1.4-.2-2-.5-.5-.4-.9-.8-1.2-1.4-.3-.6-.4-1.3-.4-2 0-.9.1-1.6.4-2.2a3.3 3.3 0 0 1 3.2-1.8c.7 0 1.3.1 1.8.5.6.3 1 .7 1.3 1.3.3.6.4 1.3.4 2.1s-.1 1.5-.4 2a3.3 3.3 0 0 1-3.1 2Zm0-1.3c.4 0 .8-.1 1.1-.4.3-.2.5-.5.7-1l.2-1.3c0-.5 0-1-.2-1.3-.2-.4-.4-.8-.7-1-.3-.3-.7-.4-1.1-.4-.5 0-.9.1-1.2.4-.3.2-.5.6-.7 1a4 4 0 0 0-.2 1.3c0 .5 0 1 .2 1.4l.7 1c.3.2.7.3 1.2.3Z" fill="#6A6C75"/><path d="M117.4 101.5V89.9h7V91h-5.6v4h5.3v1.2h-5.3v4h5.7v1.2h-7Zm16.5-8.7-3.2 8.7h-1.4l-3.2-8.7h1.5l2.4 7 2.5-7h1.4Zm5.1 8.9c-.8 0-1.5-.2-2.1-.6-.6-.3-1.1-.9-1.4-1.5-.4-.7-.5-1.5-.5-2.4 0-.9.1-1.7.5-2.4.3-.6.8-1.2 1.3-1.6.6-.3 1.3-.5 2.1-.5.5 0 1 0 1.4.2a3.3 3.3 0 0 1 2 2c.2.6.4 1.3.4 2.1v.6h-6.8v-1.2h5.4c0-.5-.1-.9-.3-1.3a2.2 2.2 0 0 0-2-1.2c-.6 0-1 .1-1.5.4-.4.2-.7.6-.9 1a3 3 0 0 0-.3 1.3v.8c0 .7.1 1.2.4 1.7.2.4.5.8 1 1 .3.3.8.4 1.3.4.4 0 .7 0 1-.2.3 0 .5-.2.7-.4.3-.2.4-.5.5-.8l1.3.4c-.1.4-.3.8-.7 1.1-.3.4-.7.6-1.2.8-.4.2-1 .3-1.6.3Zm7-5.5v5.3h-1.3v-8.7h1.3V94h.1c.2-.4.5-.8 1-1 .4-.3.9-.4 1.6-.4.5 0 1 0 1.5.3.4.3.8.6 1 1.1.3.5.4 1.1.4 1.9v5.5h-1.3V96c0-.6-.2-1.2-.6-1.6-.3-.3-.8-.5-1.4-.5-.5 0-.8 0-1.2.2a2 2 0 0 0-.8.9c-.2.3-.3.7-.3 1.3Zm11.9-3.4v1.1h-4.6v-1.1h4.6Zm-3.3-2.1h1.4V99c0 .4 0 .7.2.9 0 .1.2.3.4.3l.5.1H157.7l.3 1.2a2.7 2.7 0 0 1-1 .1c-.4 0-.7 0-1.1-.2-.4-.2-.7-.4-.9-.8-.2-.3-.4-.7-.4-1.2v-8.7Zm13.6 2V94h-4.6v-1.1h4.6Zm-3.2-2h1.3V99c0 .4 0 .7.2.9 0 .1.2.3.4.3l.6.1h.6l.2 1.2a2.7 2.7 0 0 1-1 .1c-.4 0-.7 0-1-.2-.5-.2-.8-.4-1-.8-.2-.3-.3-.7-.3-1.2v-8.7Zm5.2 10.8v-8.7h1.3V94c.2-.4.5-.8 1-1 .3-.3.8-.5 1.3-.5a15.3 15.3 0 0 1 .7 0V94a4 4 0 0 0-.8 0c-.4 0-.8 0-1.1.2a2 2 0 0 0-1 1.8v5.5h-1.4Zm6 0v-8.7h1.3v8.7H176Zm.6-10.2a1 1 0 0 1-.7-.2.9.9 0 0 1-.2-.7c0-.2 0-.5.2-.6.2-.2.5-.3.7-.3.3 0 .5 0 .7.3.2.1.3.4.3.6 0 .3-.1.5-.3.7a1 1 0 0 1-.7.2Zm6.7 13.7a5 5 0 0 1-1.7-.3 3.6 3.6 0 0 1-2-1.5l1.2-.7.4.5.8.5c.3.2.7.3 1.3.3.7 0 1.2-.2 1.7-.5.5-.4.7-1 .7-1.6v-1.8h-.1l-.4.6-.8.6c-.4.2-.8.3-1.4.3-.7 0-1.3-.2-1.9-.5-.5-.4-1-.9-1.3-1.5a5 5 0 0 1-.5-2.3c0-.9.2-1.7.5-2.3.3-.7.7-1.2 1.3-1.6.6-.4 1.2-.5 2-.5.5 0 1 0 1.3.2l.8.7.4.6h.1v-1.4h1.3v9a3 3 0 0 1-.5 1.8 3 3 0 0 1-1.3 1c-.6.2-1.3.4-2 .4Zm0-4.8c.4 0 .9-.2 1.3-.4l.8-1c.2-.5.3-1 .3-1.7s0-1.2-.3-1.7c-.2-.5-.4-.9-.8-1.1-.4-.3-.8-.4-1.4-.4a2.3 2.3 0 0 0-2.3 1.6L181 97c0 .6 0 1.1.2 1.6.2.4.5.8.9 1 .4.3.8.5 1.4.5Zm9.7 4.8a5 5 0 0 1-1.7-.3 3.6 3.6 0 0 1-1.9-1.5l1.1-.7.5.5c.1.2.4.4.7.5.3.2.8.3 1.3.3.7 0 1.3-.2 1.7-.5.5-.4.7-1 .7-1.6v-1.8l-.5.6-.8.6c-.3.2-.8.3-1.3.3-.7 0-1.4-.2-2-.5-.5-.4-1-.9-1.2-1.5a5 5 0 0 1-.5-2.3c0-.9.1-1.7.4-2.3.4-.7.8-1.2 1.4-1.6.5-.4 1.2-.5 1.9-.5.6 0 1 0 1.4.2l.7.7.4.6h.2v-1.4h1.3v9a3 3 0 0 1-.5 1.8 3 3 0 0 1-1.4 1c-.6.2-1.2.4-1.9.4Zm0-4.8a2.3 2.3 0 0 0 2.2-1.4c.2-.5.3-1 .3-1.7s-.1-1.2-.3-1.7c-.2-.5-.5-.9-.9-1.1-.3-.3-.8-.4-1.3-.4a2.3 2.3 0 0 0-2.3 1.6c-.2.4-.3 1-.3 1.6 0 .6.1 1.1.3 1.6.2.4.5.8.8 1 .4.3.9.5 1.5.5Zm9.9 1.5c-.9 0-1.6-.2-2.2-.6-.6-.3-1-.9-1.4-1.5-.3-.7-.5-1.5-.5-2.4 0-.9.2-1.7.5-2.4a3.7 3.7 0 0 1 3.4-2.2c.5 0 1 .1 1.4.3a3.3 3.3 0 0 1 2 2c.3.6.4 1.3.4 2.1v.6H200v-1.2h5.3c0-.5 0-.9-.3-1.3a2.2 2.2 0 0 0-2-1.2c-.6 0-1 .1-1.4.4-.4.2-.7.6-1 1a3 3 0 0 0-.2 1.3v.8c0 .7 0 1.2.3 1.7.2.4.6.8 1 1 .4.3.8.4 1.4.4.3 0 .7 0 1-.2l.7-.4.5-.8 1.3.4-.7 1.1c-.3.4-.7.6-1.2.8-.5.2-1 .3-1.6.3Zm5.6-.2v-8.7h1.3V94h.1c.2-.4.5-.8.9-1 .4-.3.9-.5 1.4-.5a15.2 15.2 0 0 1 .7 0V94a4 4 0 0 0-.8 0c-.4 0-.8 0-1.1.2a2 2 0 0 0-1 1.8v5.5h-1.5Zm9.4.2c-.9 0-1.6-.2-2.2-.6-.6-.3-1-.9-1.4-1.5-.3-.7-.5-1.5-.5-2.4 0-.9.2-1.7.5-2.4a3.7 3.7 0 0 1 3.4-2.2c.5 0 1 .1 1.4.3a3.3 3.3 0 0 1 2 2c.3.6.4 1.3.4 2.1v.6H215v-1.2h5.3c0-.5 0-.9-.3-1.3a2.2 2.2 0 0 0-2-1.2c-.6 0-1 .1-1.4.4-.4.2-.7.6-1 1a3 3 0 0 0-.2 1.3v.8c0 .7 0 1.2.3 1.7.2.4.6.8 1 1 .4.3.8.4 1.4.4.3 0 .7 0 1-.2l.7-.4.5-.8 1.3.4-.7 1.1c-.3.4-.7.6-1.2.8-.5.2-1 .3-1.6.3Zm9 0a3.4 3.4 0 0 1-3.3-2.1c-.3-.7-.5-1.5-.5-2.4 0-1 .2-1.8.5-2.4.3-.7.8-1.2 1.3-1.6.6-.4 1.2-.5 2-.5.5 0 1 0 1.3.2l.8.7.4.6h.1v-4.3h1.3v11.6h-1.3v-1.3h-.1l-.4.6-.8.6c-.4.2-.8.3-1.4.3Zm.1-1.2c.6 0 1-.2 1.4-.4.4-.3.6-.7.8-1.2.2-.5.3-1.1.3-1.8 0-.6 0-1.2-.3-1.7-.2-.5-.4-.8-.8-1.1-.4-.3-.8-.4-1.4-.4-.5 0-1 .1-1.4.4-.4.3-.7.7-.8 1.2a4.8 4.8 0 0 0 0 3.4c.2.4.4.8.8 1.1.4.3.9.5 1.4.5Zm7.5 1a1 1 0 0 1-.8-.2 1 1 0 0 1-.3-.7c0-.3.1-.6.3-.8.2-.2.5-.3.8-.3.2 0 .5.1.7.3.2.2.3.5.3.8 0 .2 0 .3-.2.5l-.3.4a1 1 0 0 1-.5 0Zm0-6.4a1 1 0 0 1-.8-.3 1 1 0 0 1-.3-.7c0-.3.1-.5.3-.7.2-.2.5-.3.8-.3.2 0 .5 0 .7.3.2.2.3.4.3.7 0 .2 0 .3-.2.5 0 .2-.2.3-.3.4a1 1 0 0 1-.5.1Zm9.8-5.2v11.6h-2V89.9h2Zm5.9 11.8c-.9 0-1.6-.2-2.2-.6-.6-.4-1.1-.9-1.5-1.6-.3-.6-.5-1.4-.5-2.3 0-1 .2-1.7.5-2.4.4-.7.9-1.2 1.5-1.6.6-.4 1.3-.5 2.2-.5.8 0 1.6.1 2.2.5.6.4 1.1 1 1.5 1.6.3.7.5 1.5.5 2.4 0 .9-.2 1.7-.5 2.3-.4.7-.9 1.2-1.5 1.6-.6.4-1.4.6-2.2.6Zm0-1.7c.5 0 .9-.1 1.2-.4.3-.2.5-.6.7-1l.2-1.4c0-.6 0-1-.2-1.5-.2-.4-.4-.8-.7-1-.3-.3-.7-.4-1.2-.4s-.9.1-1.2.4c-.3.2-.5.6-.7 1l-.2 1.5c0 .5 0 1 .2 1.4.2.4.4.8.7 1 .3.3.7.4 1.2.4Zm7.5 1.5-2.5-8.7h2.1l1.5 6.1h.1l1.6-6.1h2l1.6 6h.1l1.5-6h2.1l-2.4 8.7h-2.2l-1.6-5.9h-.1l-1.7 5.9H258Zm16.8 3.3a4.2 4.2 0 0 1-1.3-.2l.4-1.6h.8l.7-.1.4-.7.2-.5-3.2-9h2.2l2 6.7h.1l2-6.6h2.2l-3.5 9.8a4 4 0 0 1-.6 1.1c-.3.4-.6.6-1 .8-.4.2-.9.3-1.4.3Zm8-3.3v-8.7h2v8.7h-2Zm1-10c-.3 0-.6 0-.9-.3a1 1 0 0 1-.3-.8c0-.3.1-.6.3-.8l.9-.3c.3 0 .6.1.8.3.3.2.4.5.4.8 0 .3-.1.6-.4.8-.2.2-.5.3-.8.3Zm7 10.2c-.9 0-1.6-.2-2.3-.6-.6-.3-1.1-.9-1.4-1.5-.4-.7-.6-1.5-.6-2.4 0-1 .2-1.7.6-2.4a3.9 3.9 0 0 1 3.6-2.1c.5 0 1 0 1.5.2l1.3.8c.3.4.6.8.8 1.4.3.5.4 1.2.4 2v.6h-7.2v-1.4h5.2c0-.4 0-.7-.3-1-.1-.3-.4-.6-.7-.8a2 2 0 0 0-1-.2 2 2 0 0 0-1.1.3c-.3.2-.6.4-.7.8-.2.3-.3.6-.3 1v1.2c0 .6 0 1 .3 1.4l.7.8 1.2.3c.3 0 .6 0 .8-.2.3 0 .5-.2.7-.3l.4-.7 1.9.3a3 3 0 0 1-.7 1.3c-.3.4-.8.7-1.3.9a5 5 0 0 1-1.8.3Zm7.7-11.8v11.6h-2V89.9h2Zm5.3 11.8a3.3 3.3 0 0 1-3.1-2.1c-.3-.7-.5-1.5-.5-2.5s.2-1.7.5-2.4.8-1.2 1.3-1.5a3.3 3.3 0 0 1 3-.3l.9.6.4.7h.1V90h2v11.6h-2v-1.4l-.5.7a2.5 2.5 0 0 1-2 .9Zm.6-1.7c.4 0 .8-.2 1.1-.4.3-.2.5-.6.7-1 .2-.4.2-.9.2-1.5 0-.5 0-1-.2-1.4-.2-.5-.4-.8-.7-1-.3-.2-.7-.4-1.1-.4-.5 0-.9.2-1.2.4-.3.2-.5.6-.7 1l-.2 1.4c0 .6.1 1 .3 1.5.1.4.3.8.6 1 .4.2.7.4 1.2.4Zm11 1.5v-8.7h1.3v8.7h-1.4Zm.6-10.2a1 1 0 0 1-.7-.2.9.9 0 0 1-.2-.7c0-.2 0-.5.2-.6.2-.2.4-.3.7-.3.3 0 .5 0 .7.3.2.1.3.4.3.6 0 .3-.1.5-.3.7a1 1 0 0 1-.7.2Zm4.5 5v5.2H319v-8.7h1.3V94h.1c.2-.4.5-.8 1-1 .4-.3 1-.4 1.6-.4.6 0 1 0 1.5.3s.8.6 1 1.1c.3.5.4 1.1.4 1.9v5.5h-1.3V96c0-.6-.2-1.2-.5-1.6-.4-.3-.9-.5-1.5-.5-.4 0-.8 0-1.2.2a2 2 0 0 0-.7.9c-.2.3-.3.7-.3 1.3Zm12.2 5.2v-1.3l6-8.6h-6V90h8.6v1.3l-6 8.5h6v1.8h-8.6Zm14.4.2c-.9 0-1.6-.2-2.3-.6-.6-.4-1-.9-1.4-1.6-.4-.6-.5-1.4-.5-2.3 0-1 .1-1.7.5-2.4.3-.7.8-1.2 1.4-1.6.7-.4 1.4-.5 2.3-.5.8 0 1.5.1 2.2.5.6.4 1 1 1.4 1.6.4.7.5 1.5.5 2.4 0 .9-.1 1.7-.5 2.3-.3.7-.8 1.2-1.4 1.6-.7.4-1.4.6-2.2.6Zm0-1.7c.4 0 .8-.1 1.1-.4.3-.2.6-.6.7-1 .2-.4.3-.9.3-1.4 0-.6-.1-1-.3-1.5-.1-.4-.4-.8-.7-1-.3-.3-.7-.4-1.1-.4-.5 0-.9.1-1.2.4-.3.2-.6.6-.7 1-.2.4-.2 1-.2 1.5s0 1 .2 1.4c.1.4.4.8.7 1 .3.3.7.4 1.2.4Zm8-3.6v5.1h-2.1v-8.7h2v1.5c.3-.5.6-1 1-1.2a3 3 0 0 1 1.7-.4c.6 0 1 0 1.5.3s.8.7 1 1.2c.3.5.4 1 .4 1.7v5.6h-2v-5.2c0-.6-.2-1-.5-1.4-.3-.3-.7-.5-1.2-.5a2 2 0 0 0-1 .2c-.2.2-.5.4-.6.7-.2.3-.3.7-.3 1Zm11.5 5.3c-.9 0-1.6-.2-2.3-.6-.6-.3-1-.9-1.4-1.5-.4-.7-.5-1.5-.5-2.4 0-1 .1-1.7.5-2.4a3.9 3.9 0 0 1 3.6-2.1c.5 0 1 0 1.5.2l1.3.8c.4.4.6.8.9 1.4.2.5.3 1.2.3 2v.6h-7.2v-1.4h5.2c0-.4 0-.7-.2-1l-.7-.8a2 2 0 0 0-1-.2 2 2 0 0 0-1.2.3c-.3.2-.6.4-.7.8-.2.3-.3.6-.3 1v1.2c0 .6 0 1 .3 1.4.2.3.4.6.8.8.3.2.7.3 1.1.3.3 0 .6 0 .8-.2.3 0 .5-.2.7-.3l.4-.7 1.9.3a3 3 0 0 1-.7 1.3c-.3.4-.8.7-1.3.9a5 5 0 0 1-1.8.3Zm19.6-8h-2a2.6 2.6 0 0 0-1-1.5c-.3-.2-.5-.4-.9-.5l-1-.1a3 3 0 0 0-1.6.5c-.5.3-1 .8-1.2 1.4-.3.6-.4 1.3-.4 2.2 0 .9.1 1.6.4 2.2.3.6.7 1.1 1.2 1.4.5.3 1 .5 1.6.5.4 0 .7 0 1-.2.3 0 .6-.2.8-.4a2.4 2.4 0 0 0 1-1.6h2.1a4.6 4.6 0 0 1-1.5 2.9c-.4.4-1 .6-1.5.9-.6.2-1.2.3-1.9.3-1 0-2-.3-2.7-.8a5 5 0 0 1-2-2 7 7 0 0 1-.6-3.2c0-1.3.2-2.3.7-3.2a5 5 0 0 1 4.6-2.8c.7 0 1.3.1 1.8.3.6.2 1 .4 1.5.8.4.3.8.8 1 1.3.4.5.6 1 .6 1.7Zm3 7.9a1 1 0 0 1-.7-.3 1 1 0 0 1-.3-.7c0-.3.1-.6.3-.8.2-.2.4-.3.7-.3.3 0 .5.1.7.3.2.2.3.5.3.8v.5l-.5.4a1 1 0 0 1-.5 0Z" fill="#1B1E22"/><path d="m437 67.5-10 10M427 67.5l10 10" stroke="#B1B5C5" stroke-width="2" stroke-linecap="round" stroke-linejoin="round"/><defs><filter id="a" x="32" y="70.5" width="591" height="374" filterUnits="userSpaceOnUse" color-interpolation-filters="sRGB"><feFlood flood-opacity="0" result="BackgroundImageFix"/><feColorMatrix in="SourceAlpha" values="0 0 0 0 0 0 0 0 0 0 0 0 0 0 0 0 0 0 127 0" result="hardAlpha"/><feMorphology radius="4" in="SourceAlpha" result="effect1_dropShadow_228_852"/><feOffset dy="12"/><feGaussianBlur stdDeviation="21"/><feColorMatrix values="0 0 0 0 0.0941176 0 0 0 0 0.152941 0 0 0 0 0.294118 0 0 0 0.12 0"/><feBlend in2="BackgroundImageFix" result="effect1_dropShadow_228_852"/><feColorMatrix in="SourceAlpha" values="0 0 0 0 0 0 0 0 0 0 0 0 0 0 0 0 0 0 127 0" result="hardAlpha"/><feMorphology radius="6" in="SourceAlpha" result="effect2_dropShadow_228_852"/><feOffset dy="8"/><feGaussianBlur stdDeviation="9"/><feColorMatrix values="0 0 0 0 0.0941176 0 0 0 0 0.152941 0 0 0 0 0.294118 0 0 0 0.12 0"/><feBlend in2="effect1_dropShadow_228_852" result="effect2_dropShadow_228_852"/><feBlend in="SourceGraphic" in2="effect2_dropShadow_228_852" result="shape"/></filter><filter id="b" x="0" y="16.3" width="500" height="160.2" filterUnits="userSpaceOnUse" color-interpolation-filters="sRGB"><feFlood flood-opacity="0" result="BackgroundImageFix"/><feColorMatrix in="SourceAlpha" values="0 0 0 0 0 0 0 0 0 0 0 0 0 0 0 0 0 0 127 0" result="hardAlpha"/><feMorphology radius="4" in="SourceAlpha" result="effect1_dropShadow_228_852"/><feOffset dy="12"/><feGaussianBlur stdDeviation="21"/><feColorMatrix values="0 0 0 0 0.0941176 0 0 0 0 0.152941 0 0 0 0 0.294118 0 0 0 0.12 0"/><feBlend in2="BackgroundImageFix" result="effect1_dropShadow_228_852"/><feColorMatrix in="SourceAlpha" values="0 0 0 0 0 0 0 0 0 0 0 0 0 0 0 0 0 0 127 0" result="hardAlpha"/><feMorphology radius="6" in="SourceAlpha" result="effect2_dropShadow_228_852"/><feOffset dy="8"/><feGaussianBlur stdDeviation="9"/><feColorMatrix values="0 0 0 0 0.0941176 0 0 0 0 0.152941 0 0 0 0 0.294118 0 0 0 0.12 0"/><feBlend in2="effect1_dropShadow_228_852" result="effect2_dropShadow_228_852"/><feBlend in="SourceGraphic" in2="effect2_dropShadow_228_852" result="shape"/></filter></defs></svg>