<svg width="127" height="42" viewBox="0 0 127 42" fill="none" xmlns="http://www.w3.org/2000/svg">
<path d="M14.633 0.485878C9.80504 1.07226 5.53987 3.64257 2.87414 7.55178C1.44254 9.65298 0.613202 11.8421 0.267644 14.3831C0.080056 15.8295 0.080056 16.7775 0.267644 18.1946C1.07724 24.3418 5.40164 29.4531 11.4341 31.4077C13.1125 31.955 14.4849 32.1603 16.5089 32.17C20.0138 32.17 22.6697 31.4273 25.2959 29.7072C26.3128 29.0427 27.9715 27.479 28.7416 26.4724C29.8178 25.0553 30.6668 23.13 31.1408 21.0288C31.3283 20.2079 31.358 19.7583 31.358 17.8232C31.3678 16.5821 31.3283 15.4093 31.2888 15.2041L31.2099 14.8425H23.8643H16.5089V17.0414V19.2403H21.6922H26.8756V19.5237C26.8756 20.1297 26.3721 21.7618 25.8784 22.7586C25.4144 23.6871 25.2663 23.8825 24.3185 24.811C22.8474 26.2574 21.6132 26.9317 19.3819 27.5279C18.5328 27.7526 18.2465 27.7722 16.6569 27.782C15.334 27.782 14.6922 27.7429 14.1591 27.6158C11.7698 27.0685 9.88402 26.0619 8.33395 24.508C7.33677 23.4916 6.81349 22.7782 6.19149 21.537C5.22393 19.6019 4.89812 18.0285 4.98697 15.7318C5.05609 13.8652 5.3819 12.6142 6.22111 10.9821C8.17598 7.15108 12.0956 4.76647 16.4496 4.77624C19.2141 4.78601 21.2973 5.49944 23.6273 7.23904L24.4271 7.8352L24.6443 7.60065C24.7726 7.47359 25.4341 6.77971 26.1351 6.06628L27.3989 4.76647L27.0632 4.42441C26.609 3.9553 25.207 2.93891 24.3382 2.44048C22.9066 1.61955 20.9221 0.915892 19.2733 0.6227C18.1577 0.42724 15.6696 0.349056 14.633 0.485878Z" fill="#989EA8"/>
<path d="M100.924 16.5039V31.5543L103.224 31.5348L105.515 31.5055L105.505 31.2807C105.505 31.1634 105.495 24.4005 105.485 16.2595L105.465 1.45338H103.195H100.924V16.5039Z" fill="#989EA8"/>
<path d="M41.7449 11.8129C40.2738 12.0475 38.8521 12.5557 37.6674 13.2789C36.7097 13.8555 35.4262 15.0283 34.8239 15.8688C34.192 16.7386 33.5305 18.1654 33.2245 19.2893C32.9875 20.1689 32.9678 20.4328 32.9678 21.9769C32.9678 23.5308 32.9875 23.7751 33.2343 24.6547C33.9156 27.1273 35.3373 29.0917 37.46 30.4794C39.2076 31.6131 40.6293 32.0431 42.8705 32.1115C45.2104 32.1897 46.8789 31.7988 48.6067 30.7726C50.9763 29.3555 52.5757 27.2837 53.2964 24.7134C53.642 23.4624 53.7309 21.3514 53.4939 20.1103C52.5658 15.214 48.666 11.9205 43.6109 11.7641C42.91 11.7445 42.0609 11.7641 41.7449 11.8129ZM44.855 15.9763C46.3359 16.4063 47.6885 17.5399 48.3895 18.957C48.9325 20.0614 49.1201 20.9605 49.0609 22.2701C48.9325 24.9968 47.422 27.0687 44.9438 27.8994C44.1836 28.1535 42.3472 28.1535 41.587 27.8994C40.5898 27.5671 40.0665 27.2348 39.2964 26.4725C38.082 25.2802 37.4501 23.736 37.4403 21.9964C37.4403 19.8562 38.4671 17.794 40.0566 16.7483C40.728 16.3085 41.6067 15.9469 42.3077 15.8199C42.9692 15.7026 44.1737 15.7808 44.855 15.9763Z" fill="#989EA8"/>
<path d="M64.4126 11.813C60.8188 12.2625 57.6496 14.6471 56.2871 17.9113C55.6947 19.3382 55.4775 20.5696 55.5367 22.2701C55.596 24.0195 55.8823 25.202 56.5932 26.6191C58.0149 29.4533 60.651 31.3981 63.8696 32.004C65.0939 32.2288 67.4832 32.1506 68.589 31.8477C73.0516 30.6456 76.0036 26.9905 76.211 22.4558C76.3591 19.3089 75.352 16.7581 73.1306 14.5983C71.7582 13.2594 70.0403 12.3505 68.1348 11.9595C67.2363 11.7739 65.3506 11.6957 64.4126 11.813ZM67.6708 16.0544C70.0897 16.8949 71.699 19.2502 71.699 21.9476C71.699 23.0324 71.4719 23.9413 70.9684 24.9675C70.6031 25.6907 70.3859 25.9838 69.7836 26.5507C68.6284 27.6355 67.3844 28.1339 65.8442 28.1339C64.2547 28.1339 63.0896 27.6355 61.8654 26.4236C61.2434 25.8177 60.9867 25.4756 60.7102 24.9088C59.4958 22.3581 59.9698 19.2893 61.8654 17.4324C63.455 15.8785 65.6468 15.3606 67.6708 16.0544Z" fill="#989EA8"/>
<path d="M86.3805 11.8617C82.3918 12.6143 79.1534 15.8296 78.3043 19.8756C77.9193 21.713 78.1069 23.9901 78.798 25.7394C79.7162 28.0947 81.5131 30.0493 83.7937 31.1635C87.0617 32.776 90.7148 32.4242 93.0744 30.2741L93.5089 29.8734L93.578 30.1471C93.6964 30.5869 93.5385 32.6294 93.3213 33.4406C92.8177 35.4245 91.5639 36.6852 89.6189 37.1739C88.9376 37.3498 87.6245 37.3693 86.884 37.213C85.5413 36.9393 84.1294 35.8741 83.2606 34.4765L82.7966 33.724L81.0194 34.4472C80.0519 34.8479 79.1731 35.2095 79.0744 35.2486C78.9066 35.317 78.9263 35.3952 79.3311 36.1673C80.5554 38.5226 82.6583 40.2328 85.2945 40.9854C88.8191 42.0018 92.8276 41.0636 95.1577 38.6692C96.4905 37.3107 97.2902 35.6297 97.7148 33.3135C97.8728 32.4828 97.8925 31.3589 97.9221 22.3873L97.9517 12.3993H95.7797H93.6175V13.1811C93.6175 13.6111 93.5977 13.9629 93.5681 13.9629C93.5385 13.9629 93.1732 13.6893 92.7486 13.357C91.8995 12.6924 90.8925 12.1842 89.9447 11.9595C89.0265 11.7347 87.3086 11.6858 86.3805 11.8617ZM90.073 16.0544C91.4651 16.5332 92.4623 17.4421 93.1732 18.8983C94.1901 20.9604 94.1407 23.2571 93.0448 25.3387C91.3763 28.5052 87.0914 29.0916 84.475 26.5115C83.2705 25.329 82.6583 23.8239 82.6583 22.0159C82.6583 18.8788 84.633 16.3476 87.4962 15.8198C88.1576 15.6928 89.3424 15.8003 90.073 16.0544Z" fill="#989EA8"/>
<path d="M115.635 11.8323C115.279 11.8812 114.559 12.0669 114.026 12.2428C110.688 13.3765 108.329 16.24 107.667 19.9733C107.45 21.2047 107.539 23.472 107.835 24.6155C108.665 27.7428 110.748 30.2154 113.512 31.3491C116.978 32.7857 120.937 32.3361 123.81 30.1861C124.56 29.629 125.992 28.2217 126.199 27.8308C126.288 27.6744 126.1 27.518 124.59 26.5212C123.642 25.9055 122.832 25.3973 122.793 25.3973C122.753 25.3973 122.625 25.5146 122.516 25.6612C121.727 26.6678 120.72 27.4301 119.633 27.8503C119.11 28.0458 118.873 28.0751 117.659 28.0751C116.494 28.0751 116.188 28.036 115.714 27.8601C114.588 27.4496 113.532 26.5701 112.92 25.5341C112.772 25.2898 112.673 25.0748 112.693 25.0552C112.703 25.0455 115.822 23.7652 119.604 22.2113L126.476 19.4064L126.278 18.8591C124.422 13.7967 120.433 11.158 115.635 11.8323ZM118.814 15.9175C119.614 16.1618 120.413 16.7091 120.848 17.315C121.035 17.5691 121.174 17.7939 121.154 17.8134C121.026 17.9112 112.061 21.5858 111.942 21.5858C111.814 21.5858 111.893 20.6965 112.081 19.983C112.357 18.908 112.801 18.1262 113.611 17.3248C114.687 16.24 115.862 15.7318 117.323 15.7318C117.916 15.722 118.38 15.7806 118.814 15.9175Z" fill="#989EA8"/>
</svg>
