<svg width="601" height="301" viewBox="0 0 601 301" fill="none" xmlns="http://www.w3.org/2000/svg">
<path d="M0.585693 8.26015V16.1869H15.1653H29.7449V53.1314V90.0758H39.2287H48.7126V53.1314V16.1869H63.1506H77.5887V8.26015V0.333369H39.0872H0.585693V8.26015Z" fill="#989EA8"/>
<path d="M82.5995 0.531538C82.4863 0.616468 82.4014 20.8297 82.4014 45.4028V90.0758H91.4605H100.52V72.0141C100.52 61.2846 100.633 52.9898 100.803 51.5743C101.624 44.8366 104.002 40.3636 107.682 38.5801C110.768 37.0796 115.411 37.1929 118.327 38.8632C120.054 39.854 121.186 41.4394 122.12 44.2137C122.743 46.0539 122.743 46.2237 122.828 68.0507L122.913 90.0758H131.944H141.003V69.7493C141.003 42.7699 140.776 39.9673 138.144 34.6167C137.238 32.7765 136.473 31.7291 134.803 30.0871C131.83 27.1146 128.83 25.4443 124.272 24.1986C121.78 23.5192 116.062 23.5192 113.542 24.1986C109.381 25.3027 103.804 28.7565 101.397 31.7008L100.548 32.7482L100.52 16.5266V0.333369H91.6587C86.7611 0.333369 82.6845 0.418298 82.5995 0.531538Z" fill="#989EA8"/>
<path d="M172.88 23.5475C163.453 25.0196 155.837 29.9173 151.025 37.6175C143.947 48.9132 144.23 67.3713 151.676 78.5537C155.441 84.2157 161.216 88.4622 167.897 90.4722C171.946 91.6612 173.927 91.916 179.504 91.8877C183.808 91.8877 185.28 91.7744 187.714 91.2365C196.236 89.4247 202.549 85.1499 206.852 78.2989C207.956 76.5437 209.57 72.9483 210.192 70.8817L210.391 70.2589H200.935H191.451L190.687 71.8159C188.252 76.6003 182.845 78.8934 176.504 77.8459C169.426 76.6569 165.434 72.2689 164.359 64.5403L164.189 63.1814L187.205 63.1248L210.221 63.0399L210.192 57.5194C210.164 53.0465 210.051 51.4611 209.57 49.1397C207.956 41.496 205.153 36.0605 200.454 31.4743C196.66 27.7374 191.876 25.2178 186.299 23.9722C183.808 23.406 175.428 23.1512 172.88 23.5475ZM182.703 37.3344C185.931 38.2121 188.733 40.5901 190.375 43.8457C191.111 45.3462 191.961 48.3187 191.961 49.5077V50.1588H178.089C162.179 50.1588 163.764 50.5269 164.812 47.158C166.001 43.3362 167.699 40.7033 170.077 39.0614C173.474 36.7399 178.117 36.0888 182.703 37.3344Z" fill="#989EA8"/>
<path d="M16.1025 149.017C7.60957 173.477 0.645335 193.662 0.588715 193.86C0.503785 194.2 2.17407 194.256 10.0725 194.256H19.6413L23.18 183.215L26.7188 172.175L43.6764 172.259L60.6624 172.316L64.2294 183.215L67.7965 194.115L77.62 194.2C83.0272 194.228 87.4435 194.2 87.4435 194.143C87.4435 194.03 65.9563 132.286 56.6707 105.703L56.246 104.514H43.9029H31.5315L16.1025 149.017ZM49.6498 137.75C52.7073 147.375 55.2835 155.443 55.3684 155.642C55.4816 155.981 53.6132 156.038 43.5632 156.038C34.0227 156.038 31.6447 155.953 31.7579 155.67C31.8146 155.472 34.4474 147.29 37.5898 137.495C40.7322 127.671 43.365 119.461 43.4499 119.235C43.6764 118.725 42.9687 116.63 49.6498 137.75Z" fill="#989EA8"/>
<path d="M91.6901 149.385V194.256H100.608H109.525V149.385V104.514H100.608H91.6901V149.385Z" fill="#989EA8"/>
<path d="M269.759 112.441V120.367H284.197H298.636V157.312V194.256H308.119H317.603V157.312V120.367L332.126 120.311L346.621 120.226L346.706 112.356L346.762 104.514H308.261H269.759V112.441Z" fill="#989EA8"/>
<path d="M447.036 113.063L447.121 121.641H456.039H464.956L465.041 113.063L465.098 104.514H456.039H446.979L447.036 113.063Z" fill="#989EA8"/>
<path d="M141.091 127.756C136.335 128.464 131.635 130.163 128.436 132.258C123.057 135.796 119.547 141.487 118.726 148.026L118.528 149.527H127.728H136.929L137.127 148.139C137.41 146.073 138.713 143.582 140.1 142.364C143.299 139.646 150.716 139.165 154.34 141.487C156.944 143.129 158.445 146.271 158.7 150.659L158.869 153.094L154.934 153.433C147.036 154.141 137.807 155.727 132.23 157.34C128.946 158.274 124.501 160.483 122.321 162.266C119.943 164.219 117.933 167.164 116.971 170.023C116.348 171.976 116.235 172.826 116.206 175.855C116.178 181.573 117.622 185.112 121.529 189.019C125.803 193.294 131.126 195.332 138.684 195.587C148.65 195.955 155.387 193.039 160.143 186.358L161.474 184.489L161.644 188.453C161.729 190.633 161.899 192.841 162.012 193.322L162.238 194.256H169.882H177.526L177.356 193.52C176.931 191.822 176.308 186.952 176.054 183.187C175.912 180.951 175.77 172.741 175.77 164.956C175.77 150.319 175.601 147.205 174.61 143.582C173.591 139.873 172.515 138.061 169.542 135.089C166.541 132.088 164.73 130.899 161.106 129.54C156.944 127.983 154.991 127.671 148.593 127.586C145.394 127.53 142.025 127.615 141.091 127.756ZM158.7 167.56C158.275 174.553 155.472 179.422 150.603 181.772C148.48 182.791 148.423 182.791 144.771 182.791C141.402 182.791 140.949 182.734 139.534 182.055C137.382 181.036 136.165 179.932 135.4 178.261C134.466 176.308 134.495 174.411 135.457 172.486C136.901 169.598 140.921 167.815 149.018 166.399C151.367 166.003 154.227 165.493 155.387 165.267C156.548 165.069 157.822 164.871 158.19 164.842L158.869 164.814L158.7 167.56Z" fill="#989EA8"/>
<path d="M216.678 128.124C215.433 128.322 213.592 128.775 212.573 129.115C209.091 130.304 204.873 133.22 202.948 135.796L201.957 137.127L201.816 133.192L201.674 129.285H193.181H184.688L184.603 161.757L184.547 194.256H193.606H202.665V175.204C202.665 159.86 202.75 155.698 203.09 153.632C204.052 147.658 206.119 144.204 209.742 142.477C211.13 141.826 211.639 141.741 214.413 141.741C217.386 141.741 217.641 141.798 219.424 142.676C221.859 143.865 223.416 145.592 224.237 148.083C224.888 149.951 224.888 150.065 224.973 172.09L225.058 194.256H233.947H242.865V172.514C242.865 150.036 242.723 146.158 241.704 142.449C239.864 135.626 234.202 130.304 226.955 128.577C223.841 127.841 219.538 127.643 216.678 128.124Z" fill="#989EA8"/>
<path d="M430.022 128.153C424.785 129.313 421.104 131.606 418.273 135.485L416.829 137.467L416.745 133.305L416.66 129.143H408.195H399.702V161.7V194.256H408.591H417.481L417.622 177.044C417.707 162.974 417.82 159.407 418.188 157.312C419.547 149.696 422.548 145.733 428.238 144.091C430.277 143.497 436.109 143.242 438.43 143.666L439.619 143.865V136.108V128.351L438.373 128.039C436.675 127.615 432.258 127.671 430.022 128.153Z" fill="#989EA8"/>
<path d="M507.619 128.011C502.127 128.775 497.315 131.295 493.719 135.287L491.992 137.212V133.163V129.143H483.499H475.006V161.7V194.256H483.924H492.842V176.619C492.842 166.937 492.983 157.736 493.125 156.179C493.832 148.706 495.871 144.629 499.862 142.676C501.646 141.798 501.901 141.741 504.873 141.741C507.704 141.741 508.129 141.826 509.601 142.534C511.781 143.61 513.621 145.535 514.385 147.517C515.291 149.951 515.461 154.226 515.489 175.204V194.256H524.407H533.325V173.93C533.325 147.092 533.07 143.78 530.805 139.193C527.38 132.314 520.783 128.294 512.29 127.898C510.705 127.813 508.61 127.87 507.619 128.011Z" fill="#989EA8"/>
<path d="M561.493 128.124C547.933 130.785 539.27 143.157 539.27 159.916C539.27 169.429 541.62 177.016 546.432 182.961C549.376 186.584 554.133 189.613 558.945 190.916C562.201 191.765 568.995 191.765 572.194 190.916C575.818 189.925 578.139 188.538 581.112 185.593L583.716 183.017V188.283C583.688 191.454 583.547 194.398 583.32 195.672C581.989 203.004 578.253 206.26 571.118 206.26C565.173 206.26 561.295 203.967 560.049 199.72L559.625 198.22H550.764H541.903L542.129 199.664C543.771 210.053 551.698 216.791 564.324 218.603C566.957 218.971 574.346 218.971 577.12 218.575C583.716 217.697 588.642 215.545 592.549 211.865C597.305 207.364 599.768 201.532 600.419 193.265C600.561 191.397 600.702 176.195 600.702 159.492V129.144H592.634H584.594L584.509 133.107L584.424 137.07L583.009 135.457C579.866 131.776 576.412 129.455 572.534 128.407C570.213 127.785 564.041 127.643 561.493 128.124ZM573.553 142.336C576.865 143.327 579.272 145.507 581.027 149.074C582.244 151.565 582.754 153.547 583.179 157.368C584.169 166.739 580.489 174.807 574.204 177.016C571.685 177.893 567.75 177.695 565.485 176.591C562.173 174.977 559.625 171.467 558.351 166.796C557.615 164.163 557.586 155.84 558.322 153.207C560.616 144.827 566.872 140.354 573.553 142.336Z" fill="#989EA8"/>
<path d="M332.522 129.342C332.239 129.625 332.296 167.645 332.607 172.882C332.919 178.516 333.457 181.347 334.702 183.98C338.043 191.001 344.667 195.162 353.189 195.587C360.691 195.955 366.749 193.634 371.618 188.509L373.657 186.33V190.293V194.256H382.15H390.643V161.7V129.144H381.725H372.807V147.743C372.807 158.274 372.666 167.475 372.524 168.919C371.788 175.459 369.212 179.479 364.513 181.319C362.418 182.14 358.822 182.111 356.529 181.234C354.293 180.356 352.198 178.29 351.264 175.996L350.584 174.298L350.443 151.791L350.301 129.285L341.497 129.2C336.656 129.172 332.636 129.228 332.522 129.342Z" fill="#989EA8"/>
<path d="M447.178 129.342C447.064 129.427 446.979 144.091 446.979 161.898V194.256H456.039H465.098L465.041 161.757L464.956 129.285L456.152 129.2C451.311 129.172 447.291 129.228 447.178 129.342Z" fill="#989EA8"/>
<path d="M0.585693 253.566V298.437H9.64487H18.704V253.566V208.694H9.64487H0.585693V253.566Z" fill="#989EA8"/>
<path d="M193.942 217.187V225.68H202.86H211.778V217.187V208.694H202.86H193.942V217.187Z" fill="#989EA8"/>
<path d="M158.555 225.397V233.324H153.742H148.93V240.118V246.913H153.742H158.555V264.663C158.555 283.602 158.697 286.179 159.971 289.349C161.924 294.36 165.831 297.757 171.295 299.201C173.701 299.852 182.109 299.881 184.883 299.258L186.723 298.833L186.808 292.18L186.865 285.528L183.836 285.556C180.269 285.556 179.136 285.159 177.976 283.461C176.504 281.366 176.39 279.894 176.39 262.681V246.913H181.628H186.865V240.118V233.324H181.628H176.39V225.397V217.47H167.473H158.555V225.397Z" fill="#989EA8"/>
<path d="M227.631 225.397V233.324H222.819H218.006L218.062 240.033L218.147 246.771L222.875 246.856L227.603 246.913L227.716 265.682C227.829 286.575 227.858 286.745 229.783 290.736C231.057 293.369 233.803 296.314 236.096 297.559C239.267 299.229 241.56 299.654 247.307 299.654C250.562 299.654 253.025 299.484 254.101 299.258L255.8 298.861L255.885 292.152L255.941 285.443L253.393 285.612C250.364 285.811 248.779 285.329 247.476 283.829C245.665 281.791 245.636 281.621 245.523 263.389L245.438 246.913H250.676H255.941V240.118V233.324H250.704H245.466V225.397V217.47H236.549H227.631V225.397Z" fill="#989EA8"/>
<path d="M337.757 225.397V233.324H332.944H328.131L328.188 240.033L328.273 246.771L333.001 246.856L337.7 246.913L337.842 265.682C337.955 282.074 338.012 284.678 338.436 286.547C339.937 293.03 344.381 297.644 350.638 299.201C353.129 299.824 361.594 299.852 364.227 299.258L365.925 298.861L366.01 292.18L366.067 285.471L363.519 285.641C360.603 285.811 359.018 285.358 357.772 284.055C355.819 282.017 355.592 279.752 355.592 261.549V246.913H360.829H366.067V240.118V233.324H360.829H355.592V225.397V217.47H346.674H337.757V225.397Z" fill="#989EA8"/>
<path d="M114.052 231.625C103.549 232.645 95.3673 237.401 92.4514 244.223C90.951 247.762 90.4697 252.688 91.2907 255.972C92.0551 258.973 93.4706 261.634 95.4523 263.729C99.444 268.004 103.719 269.9 115.099 272.392C124.838 274.543 128.179 276.383 128.688 279.865C129.113 282.612 127.442 285.074 124.357 286.32C122.97 286.858 122.205 286.943 119.063 286.971C114.958 286.971 113.231 286.575 111.136 285.131C109.069 283.716 107.597 280.658 107.597 277.855V276.638H98.3682H89.1392L89.3373 278.535C89.5921 281.054 90.4131 284.65 91.1775 286.377C92.8194 290.227 96.1883 293.907 100.067 296.144C110.994 302.4 130.84 301.523 140.012 294.36C143.353 291.784 145.816 288.019 146.835 283.999C147.458 281.564 147.458 276.808 146.835 274.373C145.306 268.4 141.06 264.352 133.359 261.436C132.34 261.039 127.641 259.709 122.885 258.463C113.967 256.142 111.702 255.349 110.343 254.047C108.588 252.377 108.248 250.197 109.381 248.073C110.768 245.412 113.967 244.195 118.78 244.45C122.064 244.62 123.791 245.158 125.376 246.488C126.763 247.677 127.584 249.404 128.037 252.009L128.377 253.99H137.153H145.901L145.731 251.725C145.108 243.799 140.833 237.655 133.586 234.343C131.123 233.211 129.226 232.645 125.999 232.078C122.885 231.54 117.194 231.314 114.052 231.625Z" fill="#989EA8"/>
<path d="M398.482 231.654C393.357 232.192 387.752 234.202 383.59 237.004C381.156 238.646 377.56 242.327 375.862 244.931C373.342 248.753 371.615 253.254 370.681 258.35C370.058 261.832 370.058 269.306 370.681 273.015C372.663 284.565 378.948 293.171 388.488 297.361C398.934 301.976 413.627 301.041 422.686 295.209C428.094 291.699 432.312 285.98 434.294 279.384L434.548 278.62H425.093H415.637L414.731 280.318C413.599 282.47 411.844 284.084 409.466 285.216C407.852 285.952 407.173 286.094 404.653 286.207C401.086 286.377 398.85 285.98 396.188 284.678C391.97 282.697 389.394 278.563 388.573 272.59L388.403 271.259H411.476H434.577V267.069C434.577 260.388 433.756 255.576 431.774 250.423C428.971 243.176 423.026 236.891 416.232 234.032C410.994 231.824 404.766 231.003 398.482 231.654ZM407.427 245.724C411.815 247.281 414.986 251.074 415.864 255.83C416.034 256.736 416.175 257.671 416.175 257.869C416.175 258.18 413.599 258.237 402.303 258.237C392.367 258.237 388.431 258.152 388.431 257.925C388.431 257.755 388.63 256.821 388.884 255.859C390.413 249.942 394.207 246.177 399.755 245.101C401.284 244.818 405.87 245.186 407.427 245.724Z" fill="#989EA8"/>
<path d="M58.4228 232.163C52.9873 233.041 47.4102 236.127 44.5792 239.864L43.4752 241.279L43.3902 237.316L43.3053 233.324H34.8406H26.3477V265.88V298.437H35.237H44.1546L44.2395 278.252L44.3528 258.095L45.0888 255.321C46.3628 250.65 48.1746 248.102 51.2038 246.686C52.6476 246.007 53.1288 245.922 56.0731 245.922C58.8191 245.922 59.5269 246.007 60.6593 246.545C62.3296 247.309 64.4528 249.262 65.1889 250.678C66.4911 253.254 66.5477 254.217 66.5477 276.978V298.437H75.4937H84.4113L84.2981 274.458C84.2131 258.407 84.0716 249.942 83.8734 248.894C82.9109 244.082 81.0424 240.713 77.6452 237.514C75.3804 235.391 71.7568 233.437 68.5294 232.645C66.4062 232.107 60.5743 231.824 58.4228 232.163Z" fill="#989EA8"/>
<path d="M193.942 265.88V298.437H202.86H211.778V265.88V233.324H202.86H193.942V265.88Z" fill="#989EA8"/>
<path d="M263.868 253.764C263.868 280.517 264.123 283.999 266.416 288.642C268.879 293.624 274.229 297.729 280.174 299.201C283.005 299.881 289.092 299.881 291.895 299.173C296.396 298.04 300.444 295.634 303.473 292.294L305.2 290.368V294.417V298.437H313.693H322.186V265.88V233.324H313.297H304.408L304.266 253.481C304.153 271.373 304.096 273.92 303.672 275.789C302.653 280.149 300.388 283.263 297.047 284.905C295.433 285.726 294.811 285.839 292.602 285.924C290.508 286.009 289.743 285.924 288.413 285.414C286.289 284.622 284.591 283.319 283.572 281.649C281.901 278.931 281.901 279.101 281.788 255.179L281.647 233.324H272.757H263.868V253.764Z" fill="#989EA8"/>
</svg>
