<svg width="524" height="395" viewBox="0 0 524 395" fill="none" xmlns="http://www.w3.org/2000/svg">
<g clip-path="url(#clip0_39_6281)">
<path d="M1.76861 -0.893311H-1.76758V2.64287H1.76861V-0.893311Z" fill="#4C4859"/>
<path d="M49.5459 -0.893311H46.0098V2.64287H49.5459V-0.893311Z" fill="#4C4859"/>
<path d="M97.3233 -0.893311H93.7871V2.64287H97.3233V-0.893311Z" fill="#4C4859"/>
<path d="M145.103 -0.893311H141.566V2.64287H145.103V-0.893311Z" fill="#4C4859"/>
<path d="M192.88 -0.893311H189.344V2.64287H192.88V-0.893311Z" fill="#4C4859"/>
<path d="M240.657 -0.893311H237.121V2.64287H240.657V-0.893311Z" fill="#4C4859"/>
<path d="M288.435 -0.893311H284.898V2.64287H288.435V-0.893311Z" fill="#4C4859"/>
<path d="M336.214 -0.893311H332.678V2.64287H336.214V-0.893311Z" fill="#4C4859"/>
<path d="M383.991 -0.893311H380.455V2.64287H383.991V-0.893311Z" fill="#4C4859"/>
<path d="M431.769 -0.893311H428.232V2.64287H431.769V-0.893311Z" fill="#4C4859"/>
<path d="M478.814 -0.893311H475.277V2.64287H478.814V-0.893311Z" fill="#4C4859"/>
<path d="M525.86 -0.893311H522.324V2.64287H525.86V-0.893311Z" fill="#4C4859"/>
<path d="M1.76861 34.9399H-1.76758V38.4761H1.76861V34.9399Z" fill="#4C4859"/>
<path d="M50.2778 36.7081L47.7773 34.2076L45.2769 36.7081L47.7773 39.2086L50.2778 36.7081Z" fill="#4C4859"/>
<path d="M97.3233 34.9399H93.7871V38.4761H97.3233V34.9399Z" fill="#4C4859"/>
<path d="M145.103 34.9399H141.566V38.4761H145.103V34.9399Z" fill="#4C4859"/>
<path d="M193.612 36.7081L191.111 34.2076L188.611 36.7081L191.111 39.2086L193.612 36.7081Z" fill="#4C4859"/>
<path d="M240.657 34.9399H237.121V38.4761H240.657V34.9399Z" fill="#4C4859"/>
<path d="M289.168 36.7081L286.668 34.2076L284.168 36.7081L286.668 39.2085L289.168 36.7081Z" fill="#4C4859"/>
<path d="M336.214 34.9399H332.678V38.4761H336.214V34.9399Z" fill="#4C4859"/>
<path d="M383.991 34.9399H380.455V38.4761H383.991V34.9399Z" fill="#4C4859"/>
<path d="M431.769 34.9399H428.232V38.4761H431.769V34.9399Z" fill="#4C4859"/>
<path d="M478.814 34.9399H475.277V38.4761H478.814V34.9399Z" fill="#4C4859"/>
<path d="M525.86 34.9399H522.324V38.4761H525.86V34.9399Z" fill="#4C4859"/>
<path d="M1.76861 70.7733H-1.76758V74.3095H1.76861V70.7733Z" fill="#4C4859"/>
<path d="M49.5459 70.7733H46.0098V74.3095H49.5459V70.7733Z" fill="#4C4859"/>
<path d="M97.3233 70.7733H93.7871V74.3095H97.3233V70.7733Z" fill="#4C4859"/>
<path d="M145.103 70.7733H141.566V74.3095H145.103V70.7733Z" fill="#4C4859"/>
<path d="M192.88 70.7733H189.344V74.3095H192.88V70.7733Z" fill="#4C4859"/>
<path d="M240.657 70.7733H237.121V74.3095H240.657V70.7733Z" fill="#4C4859"/>
<path d="M288.435 70.7733H284.898V74.3095H288.435V70.7733Z" fill="#4C4859"/>
<path d="M336.214 70.7733H332.678V74.3095H336.214V70.7733Z" fill="#4C4859"/>
<path d="M384.723 72.5413L382.223 70.0409L379.722 72.5414L382.223 75.0418L384.723 72.5413Z" fill="#4C4859"/>
<path d="M431.769 70.7732H428.232V74.3094H431.769V70.7732Z" fill="#4C4859"/>
<path d="M478.814 70.7732H475.277V74.3094H478.814V70.7732Z" fill="#4C4859"/>
<path d="M525.86 70.7732H522.324V74.3094H525.86V70.7732Z" fill="#4C4859"/>
<path d="M1.76861 106.607H-1.76758V110.143H1.76861V106.607Z" fill="#4C4859"/>
<path d="M49.5459 106.607H46.0098V110.143H49.5459V106.607Z" fill="#4C4859"/>
<path d="M98.0571 108.375L95.5566 105.874L93.0562 108.375L95.5566 110.875L98.0571 108.375Z" fill="#4C4859"/>
<path d="M145.834 108.375L143.334 105.874L140.834 108.375L143.334 110.875L145.834 108.375Z" fill="#4C4859"/>
<path d="M193.612 108.375L191.111 105.874L188.611 108.375L191.111 110.875L193.612 108.375Z" fill="#4C4859"/>
<path d="M240.657 106.607H237.121V110.143H240.657V106.607Z" fill="#4C4859"/>
<path d="M288.435 106.607H284.898V110.143H288.435V106.607Z" fill="#4C4859"/>
<path d="M336.214 106.607H332.678V110.143H336.214V106.607Z" fill="#4C4859"/>
<path d="M384.723 108.375L382.223 105.874L379.722 108.375L382.223 110.875L384.723 108.375Z" fill="#4C4859"/>
<path d="M431.769 106.607H428.232V110.143H431.769V106.607Z" fill="#4C4859"/>
<path d="M478.814 106.607H475.277V110.143H478.814V106.607Z" fill="#4C4859"/>
<path d="M525.86 106.607H522.324V110.143H525.86V106.607Z" fill="#4C4859"/>
<path d="M1.76861 142.44H-1.76758V145.976H1.76861V142.44Z" fill="#4C4859"/>
<path d="M49.5459 142.44H46.0098V145.976H49.5459V142.44Z" fill="#4C4859"/>
<path d="M97.3233 142.44H93.7871V145.976H97.3233V142.44Z" fill="#4C4859"/>
<path d="M145.103 142.44H141.566V145.976H145.103V142.44Z" fill="#4C4859"/>
<path d="M192.88 142.44H189.344V145.976H192.88V142.44Z" fill="#4C4859"/>
<path d="M241.389 144.208L238.889 141.708L236.388 144.208L238.889 146.708L241.389 144.208Z" fill="#4C4859"/>
<path d="M288.435 142.44H284.898V145.976H288.435V142.44Z" fill="#4C4859"/>
<path d="M336.214 142.44H332.678V145.976H336.214V142.44Z" fill="#4C4859"/>
<path d="M383.991 142.44H380.455V145.976H383.991V142.44Z" fill="#4C4859"/>
<path d="M431.769 142.44H428.232V145.976H431.769V142.44Z" fill="#4C4859"/>
<path d="M478.814 142.44H475.277V145.976H478.814V142.44Z" fill="#4C4859"/>
<path d="M525.86 142.44H522.324V145.976H525.86V142.44Z" fill="#4C4859"/>
<path d="M1.76861 178.273H-1.76758V181.81H1.76861V178.273Z" fill="#4C4859"/>
<path d="M49.5459 178.273H46.0098V181.81H49.5459V178.273Z" fill="#4C4859"/>
<path d="M97.3233 178.273H93.7871V181.81H97.3233V178.273Z" fill="#4C4859"/>
<path d="M145.103 178.273H141.566V181.81H145.103V178.273Z" fill="#4C4859"/>
<path d="M192.88 178.273H189.344V181.81H192.88V178.273Z" fill="#4C4859"/>
<path d="M241.389 180.041L238.889 177.541L236.388 180.041L238.889 182.542L241.389 180.041Z" fill="#4C4859"/>
<path d="M288.435 178.273H284.898V181.81H288.435V178.273Z" fill="#4C4859"/>
<path d="M336.214 178.273H332.678V181.81H336.214V178.273Z" fill="#4C4859"/>
<path d="M384.723 180.041L382.223 177.541L379.722 180.041L382.223 182.542L384.723 180.041Z" fill="#4C4859"/>
<path d="M431.769 178.273H428.232V181.809H431.769V178.273Z" fill="#4C4859"/>
<path d="M478.814 178.273H475.277V181.809H478.814V178.273Z" fill="#4C4859"/>
<path d="M525.86 178.273H522.324V181.809H525.86V178.273Z" fill="#4C4859"/>
<path d="M1.76861 214.107H-1.76758V217.643H1.76861V214.107Z" fill="#4C4859"/>
<path d="M50.2778 215.875L47.7773 213.374L45.2769 215.875L47.7774 218.375L50.2778 215.875Z" fill="#4C4859"/>
<path d="M97.3233 214.107H93.7871V217.643H97.3233V214.107Z" fill="#4C4859"/>
<path d="M145.834 215.875L143.334 213.374L140.834 215.875L143.334 218.375L145.834 215.875Z" fill="#4C4859"/>
<path d="M192.88 214.107H189.344V217.643H192.88V214.107Z" fill="#4C4859"/>
<path d="M240.657 214.107H237.121V217.643H240.657V214.107Z" fill="#4C4859"/>
<path d="M288.435 214.107H284.898V217.643H288.435V214.107Z" fill="#4C4859"/>
<path d="M336.214 214.107H332.678V217.643H336.214V214.107Z" fill="#4C4859"/>
<path d="M383.991 214.107H380.455V217.643H383.991V214.107Z" fill="#4C4859"/>
<path d="M431.769 214.107H428.232V217.643H431.769V214.107Z" fill="#4C4859"/>
<path d="M478.814 214.107H475.277V217.643H478.814V214.107Z" fill="#4C4859"/>
<path d="M525.86 214.107H522.324V217.643H525.86V214.107Z" fill="#4C4859"/>
<path d="M1.76861 249.94H-1.76758V253.476H1.76861V249.94Z" fill="#4C4859"/>
<path d="M49.5459 249.94H46.0098V253.476H49.5459V249.94Z" fill="#4C4859"/>
<path d="M97.3233 249.94H93.7871V253.476H97.3233V249.94Z" fill="#4C4859"/>
<path d="M145.834 251.708L143.334 249.208L140.834 251.708L143.334 254.208L145.834 251.708Z" fill="#4C4859"/>
<path d="M192.88 249.94H189.344V253.476H192.88V249.94Z" fill="#4C4859"/>
<path d="M240.657 249.94H237.121V253.476H240.657V249.94Z" fill="#4C4859"/>
<path d="M288.435 249.94H284.898V253.476H288.435V249.94Z" fill="#4C4859"/>
<path d="M336.946 251.708L334.445 249.208L331.945 251.708L334.445 254.208L336.946 251.708Z" fill="#4C4859"/>
<path d="M383.991 249.94H380.455V253.476H383.991V249.94Z" fill="#4C4859"/>
<path d="M431.769 249.94H428.232V253.476H431.769V249.94Z" fill="#4C4859"/>
<path d="M478.814 249.94H475.277V253.476H478.814V249.94Z" fill="#4C4859"/>
<path d="M525.86 249.94H522.324V253.476H525.86V249.94Z" fill="#4C4859"/>
<path d="M1.76861 285.773H-1.76758V289.309H1.76861V285.773Z" fill="#4C4859"/>
<path d="M49.5459 285.773H46.0098V289.309H49.5459V285.773Z" fill="#4C4859"/>
<path d="M97.3233 285.773H93.7871V289.309H97.3233V285.773Z" fill="#4C4859"/>
<path d="M145.103 285.773H141.566V289.309H145.103V285.773Z" fill="#4C4859"/>
<path d="M192.88 285.773H189.344V289.309H192.88V285.773Z" fill="#4C4859"/>
<path d="M240.657 285.773H237.121V289.309H240.657V285.773Z" fill="#4C4859"/>
<path d="M288.435 285.773H284.898V289.309H288.435V285.773Z" fill="#4C4859"/>
<path d="M336.214 285.773H332.678V289.309H336.214V285.773Z" fill="#4C4859"/>
<path d="M383.991 285.773H380.455V289.309H383.991V285.773Z" fill="#4C4859"/>
<path d="M431.769 285.773H428.232V289.31H431.769V285.773Z" fill="#4C4859"/>
<path d="M478.814 285.773H475.277V289.31H478.814V285.773Z" fill="#4C4859"/>
<path d="M525.86 285.773H522.324V289.31H525.86V285.773Z" fill="#4C4859"/>
<path d="M1.76861 321.607H-1.76758V325.143H1.76861V321.607Z" fill="#4C4859"/>
<path d="M49.5459 321.607H46.0098V325.143H49.5459V321.607Z" fill="#4C4859"/>
<path d="M97.3233 321.607H93.7871V325.143H97.3233V321.607Z" fill="#4C4859"/>
<path d="M145.103 321.607H141.566V325.143H145.103V321.607Z" fill="#4C4859"/>
<path d="M192.88 321.607H189.344V325.143H192.88V321.607Z" fill="#4C4859"/>
<path d="M240.657 321.607H237.121V325.143H240.657V321.607Z" fill="#4C4859"/>
<path d="M288.435 321.607H284.898V325.143H288.435V321.607Z" fill="#4C4859"/>
<path d="M336.214 321.607H332.678V325.143H336.214V321.607Z" fill="#4C4859"/>
<path d="M383.991 321.607H380.455V325.143H383.991V321.607Z" fill="#4C4859"/>
<path d="M431.769 321.607H428.232V325.143H431.769V321.607Z" fill="#4C4859"/>
<path d="M478.814 321.607H475.277V325.143H478.814V321.607Z" fill="#4C4859"/>
<path d="M525.86 321.607H522.324V325.143H525.86V321.607Z" fill="#4C4859"/>
<path d="M1.76861 357.44H-1.76758V360.976H1.76861V357.44Z" fill="#4C4859"/>
<path d="M49.5459 357.44H46.0098V360.976H49.5459V357.44Z" fill="#4C4859"/>
<path d="M98.0571 359.208L95.5566 356.708L93.0562 359.208L95.5567 361.709L98.0571 359.208Z" fill="#4C4859"/>
<path d="M145.834 359.208L143.334 356.708L140.834 359.208L143.334 361.709L145.834 359.208Z" fill="#4C4859"/>
<path d="M192.88 357.44H189.344V360.976H192.88V357.44Z" fill="#4C4859"/>
<path d="M240.657 357.44H237.121V360.976H240.657V357.44Z" fill="#4C4859"/>
<path d="M288.435 357.44H284.898V360.976H288.435V357.44Z" fill="#4C4859"/>
<path d="M336.214 357.44H332.678V360.976H336.214V357.44Z" fill="#4C4859"/>
<path d="M383.991 357.44H380.455V360.976H383.991V357.44Z" fill="#4C4859"/>
<path d="M431.769 357.44H428.232V360.976H431.769V357.44Z" fill="#4C4859"/>
<path d="M478.814 357.44H475.277V360.976H478.814V357.44Z" fill="#4C4859"/>
<path d="M525.86 357.44H522.324V360.976H525.86V357.44Z" fill="#4C4859"/>
<path d="M1.76861 393.273H-1.76758V396.809H1.76861V393.273Z" fill="#4C4859"/>
<path d="M49.5459 393.273H46.0098V396.809H49.5459V393.273Z" fill="#4C4859"/>
<path d="M97.3233 393.273H93.7871V396.809H97.3233V393.273Z" fill="#4C4859"/>
<path d="M145.103 393.273H141.566V396.809H145.103V393.273Z" fill="#4C4859"/>
<path d="M192.88 393.273H189.344V396.809H192.88V393.273Z" fill="#4C4859"/>
<path d="M240.657 393.273H237.121V396.809H240.657V393.273Z" fill="#4C4859"/>
<path d="M288.435 393.273H284.898V396.809H288.435V393.273Z" fill="#4C4859"/>
<path d="M336.214 393.273H332.678V396.809H336.214V393.273Z" fill="#4C4859"/>
<path d="M384.723 395.041L382.223 392.541L379.722 395.041L382.223 397.542L384.723 395.041Z" fill="#4C4859"/>
<path d="M431.769 393.273H428.232V396.809H431.769V393.273Z" fill="#4C4859"/>
<path d="M478.814 393.273H475.277V396.809H478.814V393.273Z" fill="#4C4859"/>
<path d="M525.86 393.273H522.324V396.809H525.86V393.273Z" fill="#4C4859"/>
</g>
<defs>
<clipPath id="clip0_39_6281">
<rect width="524" height="394" fill="white" transform="translate(0 0.874756)"/>
</clipPath>
</defs>
</svg>
