<svg width="124" height="25" viewBox="0 0 124 25" fill="none" xmlns="http://www.w3.org/2000/svg">
<path d="M3.21276 1.02454C3.21276 1.05983 2.42389 8.01191 1.99911 11.6644C1.90375 12.5113 1.60901 15.0875 1.34894 17.3813C1.0802 19.6752 0.794127 22.216 0.698769 23.0277C0.603411 23.8393 0.525391 24.5716 0.525391 24.651C0.525391 24.801 0.742114 24.8098 3.86293 24.8098H7.1918L7.23514 24.5187C7.26115 24.3687 7.32183 23.3453 7.37384 22.2513C7.42586 21.1573 7.52989 19.2693 7.59057 18.0607C7.65992 16.8432 7.76395 14.5934 7.82463 13.0583C7.88531 11.5144 7.94599 10.2704 7.95466 10.2881C7.972 10.3057 8.05869 10.9851 8.15405 11.8056C8.31876 13.1995 10.1219 24.7216 10.1826 24.7922C10.2259 24.8275 15.2886 24.8098 15.3319 24.7745C15.3579 24.7392 16.6063 18.1665 17.2131 14.814C17.3778 13.8965 17.5945 12.529 17.6812 11.7791C17.7766 11.0292 17.8632 10.394 17.8806 10.3763C17.9066 10.3587 17.9673 11.4438 18.028 12.7937C18.08 14.1347 18.1667 16.0315 18.21 17.002C18.2534 17.9724 18.3314 19.7546 18.3834 20.9721C18.4267 22.1807 18.4961 23.5482 18.5221 23.9893L18.5741 24.8098H21.8596C24.9284 24.8098 25.1451 24.801 25.1451 24.651C25.1451 24.5716 24.9284 22.2601 24.6684 19.5164C24.4083 16.7726 23.9228 11.6556 23.5847 8.13542C23.2553 4.61527 22.9606 1.57153 22.9346 1.35979L22.8826 0.989252H18.9902H15.1065L15.0198 1.40391C14.9678 1.64211 14.5691 3.74185 14.1356 6.08862C13.3727 10.2175 13.0086 12.4055 13.0086 12.9348C13.0086 13.5347 12.9046 13.0054 12.7399 11.5232C12.6446 10.6586 12.2371 7.94133 11.8383 5.48869C11.4309 3.04488 11.1015 1.02454 11.1015 1.01572C11.1015 0.998074 9.32435 0.989252 7.15712 0.989252C4.98989 0.989252 3.21276 1.0069 3.21276 1.02454Z" fill="#989EA8"/>
<path d="M31.1529 1.22737C30.7108 3.01833 25.6048 24.7744 25.6221 24.8097C25.6395 24.8362 27.1132 24.845 28.8903 24.8274L32.1411 24.8097L32.3925 23.3276L32.6439 21.8542H34.7678H36.8917L37.1258 23.3099C37.2558 24.1128 37.3598 24.7744 37.3598 24.7833C37.3772 24.8362 43.8702 24.8009 43.8702 24.748C43.8702 24.7215 43.5581 23.1776 43.168 21.3337C42.7866 19.481 42.0497 15.9255 41.5296 13.4288C41.0095 10.932 40.2293 7.17369 39.7958 5.0916C39.3624 3.00068 38.9896 1.22737 38.9636 1.13915C38.9203 0.99799 38.6602 0.989168 35.0712 0.989168H31.2136L31.1529 1.22737ZM35.34 10.5615C35.5307 12.4054 36.0075 16.0049 36.1115 16.4902L36.1549 16.6931H34.8545C33.6669 16.6931 33.5542 16.6754 33.5542 16.5343C33.5542 16.4461 33.6669 15.705 33.8143 14.8845C34.1957 12.6612 34.5685 10.1821 34.7245 8.84113C34.9239 7.10311 34.9586 6.9796 35.0452 7.82655C35.0886 8.21474 35.2186 9.44105 35.34 10.5615Z" fill="#989EA8"/>
<path d="M41.7031 3.85642V6.72371H43.4369H45.1707V15.7667V24.8097H48.3349H51.499V15.7667V6.72371H53.2761H55.0533V3.85642V0.989134H48.3782H41.7031V3.85642Z" fill="#989EA8"/>
<path d="M55.9806 1.05089C55.9459 1.07736 55.9199 6.44139 55.9199 12.9612V24.8097H61.7281C64.9269 24.8097 67.5623 24.8185 67.6056 24.8273C67.6403 24.845 67.675 23.5745 67.6923 22.013L67.7097 19.1633L65.005 19.1457L62.2916 19.1192V17.3106V15.502L64.7449 15.4756L67.1895 15.4579L67.1722 12.7847L67.1462 10.1203L64.6929 10.0939L62.2482 10.0762L62.2656 8.3735L62.2916 6.6796L65.005 6.65313L67.7097 6.63549L67.6923 3.82995L67.6663 1.03325L61.8495 1.00678C58.6506 0.997955 56.0066 1.0156 55.9806 1.05089Z" fill="#989EA8"/>
<path d="M68.4902 12.8906V24.8097H71.6631H74.8359L74.8012 20.0015C74.7925 17.3547 74.7839 15.1932 74.7925 15.1932C74.8012 15.1932 74.8792 15.4226 74.9573 15.6961C75.1566 16.3755 78.1994 24.6597 78.2775 24.7391C78.3555 24.8273 85.0999 24.8273 85.0739 24.7479C85.0652 24.7038 84.025 22.4982 82.7593 19.8338C81.485 17.1695 80.4534 14.9727 80.4534 14.9639C80.4534 14.9462 80.7134 14.7962 81.0428 14.6198C82.2565 13.9669 83.2448 12.7759 83.6782 11.4437C84.4064 9.18517 84.025 6.12379 82.7853 4.2799C81.8751 2.93889 80.41 1.89784 78.8063 1.47437C77.3672 1.08618 76.9771 1.05971 72.6773 1.0156L68.4902 0.971489V12.8906ZM76.2836 6.59138C76.8731 6.80311 77.2459 7.13837 77.4973 7.68536C77.688 8.11766 77.7226 8.29411 77.7226 9.06166C77.7226 9.82921 77.688 10.0057 77.4973 10.4291C77.0291 11.4525 76.2576 12.0172 75.3214 12.0172H74.8186V9.18517V6.34435L75.3647 6.39728C75.6594 6.42375 76.0755 6.51197 76.2836 6.59138Z" fill="#989EA8"/>
<path d="M85.3945 12.8906V24.8097H88.5674H91.7402L91.7055 20.0015C91.6968 17.3547 91.6882 15.1932 91.6968 15.1932C91.6968 15.1932 91.7922 15.4579 91.8876 15.7932C91.9829 16.1196 92.7631 18.2811 93.604 20.5926L95.1471 24.8097H101.103H107.05L107.154 24.1657C107.214 23.8216 107.327 23.1511 107.405 22.6923L107.552 21.8542H109.676H111.791L111.991 23.1334C112.095 23.8392 112.208 24.5009 112.234 24.6068L112.268 24.8097H115.519C117.6 24.8097 118.77 24.7744 118.77 24.7215C118.77 24.6332 118.553 23.5746 115.536 9.06166L113.863 1.03325L109.997 1.00678L106.139 0.989134L105.957 1.7214C105.853 2.1184 104.718 6.93545 103.426 12.4142C102.134 17.9017 101.059 22.4453 101.033 22.5159C100.999 22.5953 100.825 22.3129 100.565 21.766C100.34 21.2807 99.5249 19.5515 98.7534 17.9282C97.6957 15.7049 97.375 14.955 97.4617 14.9021C98.9354 14.0287 99.3602 13.6581 99.8976 12.8377C100.713 11.5672 100.955 10.5174 100.886 8.52349C100.834 6.98839 100.661 6.1679 100.132 5.09156C99.0741 2.93889 97.3056 1.73022 94.4536 1.19205C93.9334 1.095 92.7371 1.05089 89.5816 1.0156L85.3945 0.971489V12.8906ZM93.1879 6.59138C93.7687 6.79429 94.1068 7.1119 94.3842 7.66771C94.6009 8.12648 94.6269 8.26764 94.6269 9.06166C94.6183 9.82039 94.5923 10.0145 94.4015 10.4291C93.9334 11.4525 93.1619 12.0172 92.2256 12.0172H91.7228V9.18517V6.34435L92.269 6.39728C92.5637 6.42375 92.9798 6.51197 93.1879 6.59138ZM110.058 8.75287C110.292 11.2232 110.821 15.4138 111.02 16.446L111.072 16.6931H109.763C108.671 16.6931 108.454 16.6754 108.454 16.5607C108.454 16.4901 108.593 15.652 108.749 14.6904C109.061 12.9082 109.529 9.80274 109.624 8.92932C109.728 7.9765 109.876 7.0325 109.893 7.16483C109.91 7.23541 109.98 7.95003 110.058 8.75287Z" fill="#989EA8"/>
<path d="M117.244 1.11267C117.218 1.18325 117.209 1.33323 117.227 1.44792C117.244 1.61554 117.313 1.65083 117.626 1.6773L117.99 1.70377V3.02713V4.34167H118.38H118.77V3.01831V1.69495H119.125H119.472L119.446 1.35969L119.42 1.03326L118.354 1.0068C117.487 0.989152 117.287 1.0068 117.244 1.11267Z" fill="#989EA8"/>
<path d="M119.862 2.41829C119.732 3.21231 119.602 3.96222 119.576 4.09456C119.532 4.33276 119.541 4.34158 119.914 4.34158H120.304L120.408 3.54756C120.468 3.10644 120.546 2.75355 120.581 2.75355C120.616 2.75355 120.798 3.13291 120.971 3.6005C121.413 4.72095 121.517 4.71213 122.003 3.51228C122.402 2.53299 122.428 2.54181 122.549 3.74166L122.61 4.34158H122.982C123.442 4.34158 123.425 4.50039 123.121 2.53299L122.887 1.03317H122.584C122.289 1.03317 122.289 1.04199 121.881 2.00364L121.474 2.96528L121.309 2.5771C121.223 2.35654 121.058 1.92424 120.937 1.60663C120.728 1.06846 120.702 1.03317 120.416 1.00671L120.113 0.980238L119.862 2.41829Z" fill="#989EA8"/>
</svg>
