<svg width="219" height="72" viewBox="0 0 219 72" fill="none" xmlns="http://www.w3.org/2000/svg">
<path fill-rule="evenodd" clip-rule="evenodd" d="M121.46 12.3836C121.46 18.9955 116.193 24.3555 109.696 24.3555C103.199 24.3555 97.9326 18.9955 97.9326 12.3836C97.9326 5.77165 103.199 0.411621 109.696 0.411621C116.193 0.411621 121.46 5.77165 121.46 12.3836ZM109.507 23.7747V16.3105C108.695 16.4678 107.202 16.2211 105.831 15.6273C103.951 14.813 103.193 13.5618 103.459 12.9239C103.839 12.2481 105.374 12.2026 107.254 13.0168C108.428 13.5251 109.344 14.2992 109.802 14.9644C110.272 14.3125 111.169 13.568 112.309 13.0744C114.189 12.2602 115.724 12.3056 116.104 12.9815C116.371 13.6193 115.613 14.8706 113.732 15.6848C112.372 16.274 110.891 16.5215 110.076 16.3716V23.7698C116.083 23.5662 120.891 18.5463 120.891 12.3836C120.891 6.09158 115.879 0.99091 109.696 0.99091C103.514 0.99091 98.5018 6.09158 98.5018 12.3836C98.5018 18.6111 103.412 23.6716 109.507 23.7747Z" fill="#989EA8"/>
<path d="M5.08987 44.943H11.0792V48.2507H0.592773V45.1511L6.52076 36.8713H0.592773V33.5844H11.0792V36.6841L5.08987 44.943Z" fill="#989EA8"/>
<path d="M17.0538 36.8505V39.2429H21.6531V42.3426H17.0538V44.9846H22.2663V48.2507H13.0473V33.5844H22.2663V36.8505H17.0538Z" fill="#989EA8"/>
<path d="M31.3392 48.2507L28.4775 42.8419H28.0482V48.2507H24.0417V33.5844H30.3581C31.5164 33.5844 32.4976 33.7925 33.3016 34.2085C34.1056 34.6107 34.7121 35.1724 35.1209 35.8936C35.5297 36.6009 35.7341 37.3984 35.7341 38.286C35.7341 39.2845 35.4616 40.1652 34.9165 40.928C34.385 41.6769 33.6014 42.2109 32.5657 42.5298L35.8159 48.2507H31.3392ZM28.0482 40.0542H30.031C30.5761 40.0542 30.9849 39.9225 31.2575 39.659C31.53 39.3955 31.6663 39.0141 31.6663 38.5148C31.6663 38.0433 31.5232 37.6757 31.237 37.4122C30.9645 37.1349 30.5625 36.9962 30.031 36.9962H28.0482V40.0542Z" fill="#989EA8"/>
<path d="M44.2609 48.3964C42.9118 48.3964 41.6716 48.0774 40.5406 47.4394C39.4095 46.7876 38.5101 45.893 37.8423 44.7558C37.1882 43.6047 36.8611 42.3079 36.8611 40.8656C36.8611 39.4232 37.1882 38.1334 37.8423 36.9962C38.5101 35.8451 39.4095 34.9505 40.5406 34.3125C41.6716 33.6746 42.9118 33.3556 44.2609 33.3556C45.6236 33.3556 46.8637 33.6746 47.9812 34.3125C49.1123 34.9505 50.0049 35.8451 50.659 36.9962C51.3131 38.1334 51.6402 39.4232 51.6402 40.8656C51.6402 42.3079 51.3131 43.6047 50.659 44.7558C50.0049 45.893 49.1123 46.7876 47.9812 47.4394C46.8501 48.0774 45.61 48.3964 44.2609 48.3964ZM44.2609 44.6102C45.2829 44.6102 46.087 44.2704 46.673 43.5908C47.2726 42.9112 47.5724 42.0028 47.5724 40.8656C47.5724 39.7006 47.2726 38.7852 46.673 38.1195C46.087 37.44 45.2829 37.1002 44.2609 37.1002C43.2252 37.1002 42.4143 37.44 41.8284 38.1195C41.2424 38.7852 40.9494 39.7006 40.9494 40.8656C40.9494 42.0167 41.2424 42.932 41.8284 43.6116C42.4143 44.2773 43.2252 44.6102 44.2609 44.6102Z" fill="#989EA8"/>
<path d="M56.4544 40.8864C56.4544 39.444 56.7474 38.1611 57.3334 37.0378C57.933 35.9005 58.7779 35.0199 59.8681 34.3958C60.9584 33.7578 62.2121 33.4388 63.6294 33.4388C65.4282 33.4388 66.9408 33.9311 68.1673 34.9158C69.3938 35.8867 70.1842 37.2111 70.5385 38.8893H66.2254C65.9665 38.3345 65.6054 37.9115 65.142 37.6203C64.6923 37.329 64.1676 37.1834 63.568 37.1834C62.6414 37.1834 61.8987 37.5232 61.3399 38.2028C60.7948 38.8685 60.5223 39.763 60.5223 40.8864C60.5223 42.0236 60.7948 42.932 61.3399 43.6116C61.8987 44.2773 62.6414 44.6102 63.568 44.6102C64.1676 44.6102 64.6923 44.4645 65.142 44.1733C65.6054 43.8821 65.9665 43.4591 66.2254 42.9043H70.5385C70.1842 44.5824 69.3938 45.9138 68.1673 46.8985C66.9408 47.8693 65.4282 48.3548 63.6294 48.3548C62.2121 48.3548 60.9584 48.0427 59.8681 47.4186C58.7779 46.7806 57.933 45.9 57.3334 44.7766C56.7474 43.6393 56.4544 42.3426 56.4544 40.8864Z" fill="#989EA8"/>
<path d="M81.3482 45.8584H76.2378L75.461 48.2507H71.2501L76.5036 33.5844H81.1233L86.3563 48.2507H82.1249L81.3482 45.8584ZM80.3465 42.7379L78.793 37.9947L77.2599 42.7379H80.3465Z" fill="#989EA8"/>
<path d="M94.7553 48.2507L91.8935 42.8419H91.4642V48.2507H87.4577V33.5844H93.7741C94.9324 33.5844 95.9136 33.7925 96.7176 34.2085C97.5217 34.6107 98.1281 35.1724 98.5369 35.8936C98.9457 36.6009 99.1501 37.3984 99.1501 38.286C99.1501 39.2845 98.8776 40.1652 98.3325 40.928C97.801 41.6769 97.0174 42.2109 95.9817 42.5298L99.2319 48.2507H94.7553ZM91.4642 40.0542H93.447C93.9921 40.0542 94.4009 39.9225 94.6735 39.659C94.946 39.3955 95.0823 39.0141 95.0823 38.5148C95.0823 38.0433 94.9392 37.6757 94.6531 37.4122C94.3805 37.1349 93.9785 36.9962 93.447 36.9962H91.4642V40.0542Z" fill="#989EA8"/>
<path d="M109.966 40.72C110.811 40.9141 111.479 41.3441 111.97 42.0098C112.474 42.6616 112.726 43.4105 112.726 44.2565C112.726 45.5047 112.303 46.4825 111.459 47.1898C110.614 47.8971 109.428 48.2507 107.902 48.2507H100.768V33.5844H107.677C109.149 33.5844 110.3 33.9173 111.131 34.583C111.976 35.2487 112.399 36.1848 112.399 37.3914C112.399 38.2513 112.174 38.9725 111.724 39.555C111.288 40.1236 110.702 40.5119 109.966 40.72ZM104.774 39.4093H106.798C107.806 39.4093 108.311 38.9863 108.311 38.1403C108.311 37.2666 107.806 36.8297 106.798 36.8297H104.774V39.4093ZM107.105 44.9638C108.113 44.9638 108.617 44.5339 108.617 43.674C108.617 43.2302 108.481 42.8904 108.208 42.6547C107.949 42.4189 107.575 42.301 107.084 42.301H104.774V44.9638H107.105Z" fill="#989EA8"/>
<path d="M121.187 48.3964C119.837 48.3964 118.597 48.0774 117.466 47.4394C116.335 46.7876 115.436 45.893 114.768 44.7558C114.114 43.6047 113.787 42.3079 113.787 40.8656C113.787 39.4232 114.114 38.1334 114.768 36.9962C115.436 35.8451 116.335 34.9505 117.466 34.3125C118.597 33.6746 119.837 33.3556 121.187 33.3556C122.549 33.3556 123.789 33.6746 124.907 34.3125C126.038 34.9505 126.931 35.8451 127.585 36.9962C128.239 38.1334 128.566 39.4232 128.566 40.8656C128.566 42.3079 128.239 43.6047 127.585 44.7558C126.931 45.893 126.038 46.7876 124.907 47.4394C123.776 48.0774 122.536 48.3964 121.187 48.3964ZM121.187 44.6102C122.209 44.6102 123.013 44.2704 123.599 43.5908C124.198 42.9112 124.498 42.0028 124.498 40.8656C124.498 39.7006 124.198 38.7852 123.599 38.1195C123.013 37.44 122.209 37.1002 121.187 37.1002C120.151 37.1002 119.34 37.44 118.754 38.1195C118.168 38.7852 117.875 39.7006 117.875 40.8656C117.875 42.0167 118.168 42.932 118.754 43.6116C119.34 44.2773 120.151 44.6102 121.187 44.6102Z" fill="#989EA8"/>
<path d="M143.511 48.2507H139.504L134.169 40.0542V48.2507H130.163V33.5844H134.169L139.504 41.8849V33.5844H143.511V48.2507Z" fill="#989EA8"/>
<path d="M159.068 33.5844V36.8297H153.303V39.4093H157.555V42.509H153.303V48.2507H149.297V33.5844H159.068Z" fill="#989EA8"/>
<path d="M169.667 45.8584H164.557L163.78 48.2507H159.569L164.823 33.5844H169.443L174.676 48.2507H170.444L169.667 45.8584ZM168.666 42.7379L167.112 37.9947L165.579 42.7379H168.666Z" fill="#989EA8"/>
<path d="M183.075 48.2507L180.213 42.8419H179.784V48.2507H175.777V33.5844H182.093C183.252 33.5844 184.233 33.7925 185.037 34.2085C185.841 34.6107 186.447 35.1724 186.856 35.8936C187.265 36.6009 187.469 37.3984 187.469 38.286C187.469 39.2845 187.197 40.1652 186.652 40.928C186.12 41.6769 185.337 42.2109 184.301 42.5298L187.551 48.2507H183.075ZM179.784 40.0542H181.766C182.311 40.0542 182.72 39.9225 182.993 39.659C183.265 39.3955 183.402 39.0141 183.402 38.5148C183.402 38.0433 183.259 37.6757 182.972 37.4122C182.7 37.1349 182.298 36.9962 181.766 36.9962H179.784V40.0542Z" fill="#989EA8"/>
<path d="M205.91 33.5844V48.2507H201.904V40.1583L199.185 48.2507H195.833L193.094 40.0959V48.2507H189.087V33.5844H193.932L197.55 43.1123L201.086 33.5844H205.91Z" fill="#989EA8"/>
<path d="M213.424 48.3964C211.748 48.3964 210.371 47.9942 209.295 47.1898C208.218 46.3715 207.639 45.2065 207.557 43.6948H211.829C211.87 44.208 212.02 44.5824 212.279 44.8182C212.538 45.054 212.872 45.1719 213.281 45.1719C213.649 45.1719 213.949 45.0817 214.18 44.9014C214.425 44.7072 214.548 44.4437 214.548 44.1109C214.548 43.681 214.351 43.3481 213.955 43.1123C213.56 42.8766 212.92 42.6131 212.034 42.3218C211.094 42.0028 210.33 41.6977 209.744 41.4065C209.172 41.1013 208.668 40.6645 208.232 40.0959C207.809 39.5134 207.598 38.7575 207.598 37.8283C207.598 36.8852 207.83 36.0808 208.293 35.4151C208.756 34.7355 209.397 34.2224 210.215 33.8757C211.032 33.529 211.959 33.3556 212.995 33.3556C214.671 33.3556 216.006 33.7578 217.001 34.5622C218.01 35.3527 218.548 36.4691 218.616 37.9115H214.262C214.248 37.4677 214.112 37.1349 213.853 36.913C213.608 36.691 213.288 36.5801 212.892 36.5801C212.593 36.5801 212.347 36.6702 212.156 36.8505C211.966 37.0308 211.87 37.2874 211.87 37.6203C211.87 37.8976 211.973 38.1403 212.177 38.3484C212.395 38.5425 212.661 38.7159 212.974 38.8685C213.288 39.0071 213.751 39.1874 214.364 39.4093C215.277 39.7283 216.027 40.0473 216.613 40.3663C217.212 40.6714 217.723 41.1083 218.146 41.6769C218.582 42.2317 218.8 42.939 218.8 43.7988C218.8 44.6726 218.582 45.4562 218.146 46.1496C217.723 46.8431 217.103 47.3909 216.286 47.7931C215.482 48.1953 214.528 48.3964 213.424 48.3964Z" fill="#989EA8"/>
</svg>
