<svg width="219" height="60" viewBox="0 0 219 60" fill="none" xmlns="http://www.w3.org/2000/svg">
<path d="M9.51247 19.8111L9.50529 19.8239L9.49964 19.8374C9.24567 20.4464 9.50101 21.2582 10.109 22.0263C10.7292 22.81 11.7596 23.611 13.206 24.2375C14.257 24.6927 15.3547 25.015 16.3473 25.1935C17.193 25.3457 17.9767 25.3961 18.5958 25.3278V36.0315C9.66767 35.7435 2.50901 28.2858 2.50901 19.1193C2.50901 9.77 9.95547 2.19847 19.1306 2.19847C28.3073 2.19847 35.7535 9.77001 35.7535 19.1193C35.7535 28.1876 28.748 35.5838 19.9534 36.0197V25.4176C20.5726 25.4818 21.3534 25.4291 22.1952 25.276C23.1816 25.0966 24.2704 24.7759 25.3129 24.3242C26.7602 23.6978 27.7909 22.8968 28.4112 22.113C29.0192 21.3449 29.2742 20.533 29.0192 19.9239L29.0137 19.9105L29.0066 19.8979C28.6494 19.2626 27.7995 18.9891 26.7743 18.9982C25.7281 19.0076 24.4079 19.3081 22.9696 19.931C21.3684 20.6243 20.0702 21.6421 19.2945 22.5935C18.5275 21.6172 17.199 20.5584 15.5495 19.8442C14.1112 19.2213 12.7909 18.9208 11.7447 18.9115C10.7195 18.9024 9.86964 19.1759 9.51247 19.8111ZM19.1306 37.4131C29.065 37.4131 37.1111 29.2185 37.1111 19.1193C37.1111 9.01997 29.065 0.825378 19.1306 0.825378C9.19632 0.825378 1.15112 9.01999 1.15112 19.1193C1.15112 29.2185 9.19632 37.4131 19.1306 37.4131Z" fill="#989EA8" stroke="#989EA8" stroke-width="0.5"/>
<path d="M5.08987 55.943H11.0792V59.2507H0.592773V56.1511L6.52076 47.8713H0.592773V44.5844H11.0792V47.6841L5.08987 55.943Z" fill="#989EA8"/>
<path d="M17.0538 47.8505V50.2429H21.6531V53.3426H17.0538V55.9846H22.2663V59.2507H13.0473V44.5844H22.2663V47.8505H17.0538Z" fill="#989EA8"/>
<path d="M31.3392 59.2507L28.4775 53.8419H28.0482V59.2507H24.0417V44.5844H30.3581C31.5164 44.5844 32.4976 44.7925 33.3016 45.2085C34.1056 45.6107 34.7121 46.1724 35.1209 46.8936C35.5297 47.6009 35.7341 48.3984 35.7341 49.286C35.7341 50.2845 35.4616 51.1652 34.9165 51.928C34.385 52.6769 33.6014 53.2109 32.5657 53.5298L35.8159 59.2507H31.3392ZM28.0482 51.0542H30.031C30.5761 51.0542 30.9849 50.9225 31.2575 50.659C31.53 50.3955 31.6663 50.0141 31.6663 49.5148C31.6663 49.0433 31.5232 48.6757 31.237 48.4122C30.9645 48.1349 30.5625 47.9962 30.031 47.9962H28.0482V51.0542Z" fill="#989EA8"/>
<path d="M44.2609 59.3964C42.9118 59.3964 41.6716 59.0774 40.5406 58.4394C39.4095 57.7876 38.5101 56.893 37.8423 55.7558C37.1882 54.6047 36.8611 53.3079 36.8611 51.8656C36.8611 50.4232 37.1882 49.1334 37.8423 47.9962C38.5101 46.8451 39.4095 45.9505 40.5406 45.3125C41.6716 44.6746 42.9118 44.3556 44.2609 44.3556C45.6236 44.3556 46.8637 44.6746 47.9812 45.3125C49.1123 45.9505 50.0049 46.8451 50.659 47.9962C51.3131 49.1334 51.6402 50.4232 51.6402 51.8656C51.6402 53.3079 51.3131 54.6047 50.659 55.7558C50.0049 56.893 49.1123 57.7876 47.9812 58.4394C46.8501 59.0774 45.61 59.3964 44.2609 59.3964ZM44.2609 55.6102C45.2829 55.6102 46.087 55.2704 46.673 54.5908C47.2726 53.9112 47.5724 53.0028 47.5724 51.8656C47.5724 50.7006 47.2726 49.7852 46.673 49.1195C46.087 48.44 45.2829 48.1002 44.2609 48.1002C43.2252 48.1002 42.4143 48.44 41.8284 49.1195C41.2424 49.7852 40.9494 50.7006 40.9494 51.8656C40.9494 53.0167 41.2424 53.932 41.8284 54.6116C42.4143 55.2773 43.2252 55.6102 44.2609 55.6102Z" fill="#989EA8"/>
<path d="M56.4544 51.8864C56.4544 50.444 56.7474 49.1611 57.3334 48.0378C57.933 46.9005 58.7779 46.0199 59.8681 45.3958C60.9584 44.7578 62.2121 44.4388 63.6294 44.4388C65.4282 44.4388 66.9408 44.9311 68.1673 45.9158C69.3938 46.8867 70.1842 48.2111 70.5385 49.8893H66.2254C65.9665 49.3345 65.6054 48.9115 65.142 48.6203C64.6923 48.329 64.1676 48.1834 63.568 48.1834C62.6414 48.1834 61.8987 48.5232 61.3399 49.2028C60.7948 49.8685 60.5223 50.763 60.5223 51.8864C60.5223 53.0236 60.7948 53.932 61.3399 54.6116C61.8987 55.2773 62.6414 55.6102 63.568 55.6102C64.1676 55.6102 64.6923 55.4645 65.142 55.1733C65.6054 54.8821 65.9665 54.4591 66.2254 53.9043H70.5385C70.1842 55.5824 69.3938 56.9138 68.1673 57.8985C66.9408 58.8693 65.4282 59.3548 63.6294 59.3548C62.2121 59.3548 60.9584 59.0427 59.8681 58.4186C58.7779 57.7806 57.933 56.9 57.3334 55.7766C56.7474 54.6393 56.4544 53.3426 56.4544 51.8864Z" fill="#989EA8"/>
<path d="M81.3482 56.8584H76.2378L75.461 59.2507H71.2501L76.5036 44.5844H81.1233L86.3563 59.2507H82.1249L81.3482 56.8584ZM80.3465 53.7379L78.793 48.9947L77.2599 53.7379H80.3465Z" fill="#989EA8"/>
<path d="M94.7553 59.2507L91.8935 53.8419H91.4642V59.2507H87.4577V44.5844H93.7741C94.9324 44.5844 95.9136 44.7925 96.7176 45.2085C97.5217 45.6107 98.1281 46.1724 98.5369 46.8936C98.9457 47.6009 99.1501 48.3984 99.1501 49.286C99.1501 50.2845 98.8776 51.1652 98.3325 51.928C97.801 52.6769 97.0174 53.2109 95.9817 53.5298L99.2319 59.2507H94.7553ZM91.4642 51.0542H93.447C93.9921 51.0542 94.4009 50.9225 94.6735 50.659C94.946 50.3955 95.0823 50.0141 95.0823 49.5148C95.0823 49.0433 94.9392 48.6757 94.6531 48.4122C94.3805 48.1349 93.9785 47.9962 93.447 47.9962H91.4642V51.0542Z" fill="#989EA8"/>
<path d="M109.966 51.72C110.811 51.9141 111.479 52.3441 111.97 53.0098C112.474 53.6616 112.726 54.4105 112.726 55.2565C112.726 56.5047 112.303 57.4825 111.459 58.1898C110.614 58.8971 109.428 59.2507 107.902 59.2507H100.768V44.5844H107.677C109.149 44.5844 110.3 44.9173 111.131 45.583C111.976 46.2487 112.399 47.1848 112.399 48.3914C112.399 49.2513 112.174 49.9725 111.724 50.555C111.288 51.1236 110.702 51.5119 109.966 51.72ZM104.774 50.4093H106.798C107.806 50.4093 108.311 49.9863 108.311 49.1403C108.311 48.2666 107.806 47.8297 106.798 47.8297H104.774V50.4093ZM107.105 55.9638C108.113 55.9638 108.617 55.5339 108.617 54.674C108.617 54.2302 108.481 53.8904 108.208 53.6547C107.949 53.4189 107.575 53.301 107.084 53.301H104.774V55.9638H107.105Z" fill="#989EA8"/>
<path d="M121.187 59.3964C119.837 59.3964 118.597 59.0774 117.466 58.4394C116.335 57.7876 115.436 56.893 114.768 55.7558C114.114 54.6047 113.787 53.3079 113.787 51.8656C113.787 50.4232 114.114 49.1334 114.768 47.9962C115.436 46.8451 116.335 45.9505 117.466 45.3125C118.597 44.6746 119.837 44.3556 121.187 44.3556C122.549 44.3556 123.789 44.6746 124.907 45.3125C126.038 45.9505 126.931 46.8451 127.585 47.9962C128.239 49.1334 128.566 50.4232 128.566 51.8656C128.566 53.3079 128.239 54.6047 127.585 55.7558C126.931 56.893 126.038 57.7876 124.907 58.4394C123.776 59.0774 122.536 59.3964 121.187 59.3964ZM121.187 55.6102C122.209 55.6102 123.013 55.2704 123.599 54.5908C124.198 53.9112 124.498 53.0028 124.498 51.8656C124.498 50.7006 124.198 49.7852 123.599 49.1195C123.013 48.44 122.209 48.1002 121.187 48.1002C120.151 48.1002 119.34 48.44 118.754 49.1195C118.168 49.7852 117.875 50.7006 117.875 51.8656C117.875 53.0167 118.168 53.932 118.754 54.6116C119.34 55.2773 120.151 55.6102 121.187 55.6102Z" fill="#989EA8"/>
<path d="M143.511 59.2507H139.504L134.169 51.0542V59.2507H130.163V44.5844H134.169L139.504 52.8849V44.5844H143.511V59.2507Z" fill="#989EA8"/>
<path d="M159.068 44.5844V47.8297H153.303V50.4093H157.555V53.509H153.303V59.2507H149.297V44.5844H159.068Z" fill="#989EA8"/>
<path d="M169.667 56.8584H164.557L163.78 59.2507H159.569L164.823 44.5844H169.443L174.676 59.2507H170.444L169.667 56.8584ZM168.666 53.7379L167.112 48.9947L165.579 53.7379H168.666Z" fill="#989EA8"/>
<path d="M183.075 59.2507L180.213 53.8419H179.784V59.2507H175.777V44.5844H182.093C183.252 44.5844 184.233 44.7925 185.037 45.2085C185.841 45.6107 186.447 46.1724 186.856 46.8936C187.265 47.6009 187.469 48.3984 187.469 49.286C187.469 50.2845 187.197 51.1652 186.652 51.928C186.12 52.6769 185.337 53.2109 184.301 53.5298L187.551 59.2507H183.075ZM179.784 51.0542H181.766C182.311 51.0542 182.72 50.9225 182.993 50.659C183.265 50.3955 183.402 50.0141 183.402 49.5148C183.402 49.0433 183.259 48.6757 182.972 48.4122C182.7 48.1349 182.298 47.9962 181.766 47.9962H179.784V51.0542Z" fill="#989EA8"/>
<path d="M205.91 44.5844V59.2507H201.904V51.1583L199.185 59.2507H195.833L193.094 51.0959V59.2507H189.087V44.5844H193.932L197.55 54.1123L201.086 44.5844H205.91Z" fill="#989EA8"/>
<path d="M213.424 59.3964C211.748 59.3964 210.371 58.9942 209.295 58.1898C208.218 57.3715 207.639 56.2065 207.557 54.6948H211.829C211.87 55.208 212.02 55.5824 212.279 55.8182C212.538 56.054 212.872 56.1719 213.281 56.1719C213.649 56.1719 213.949 56.0817 214.18 55.9014C214.425 55.7072 214.548 55.4437 214.548 55.1109C214.548 54.681 214.351 54.3481 213.955 54.1123C213.56 53.8766 212.92 53.6131 212.034 53.3218C211.094 53.0028 210.33 52.6977 209.744 52.4065C209.172 52.1013 208.668 51.6645 208.232 51.0959C207.809 50.5134 207.598 49.7575 207.598 48.8283C207.598 47.8852 207.83 47.0808 208.293 46.4151C208.756 45.7355 209.397 45.2224 210.215 44.8757C211.032 44.529 211.959 44.3556 212.995 44.3556C214.671 44.3556 216.006 44.7578 217.001 45.5622C218.01 46.3527 218.548 47.4691 218.616 48.9115H214.262C214.248 48.4677 214.112 48.1349 213.853 47.913C213.608 47.691 213.288 47.5801 212.892 47.5801C212.593 47.5801 212.347 47.6702 212.156 47.8505C211.966 48.0308 211.87 48.2874 211.87 48.6203C211.87 48.8976 211.973 49.1403 212.177 49.3484C212.395 49.5425 212.661 49.7159 212.974 49.8685C213.288 50.0071 213.751 50.1874 214.364 50.4093C215.277 50.7283 216.027 51.0473 216.613 51.3663C217.212 51.6714 217.723 52.1083 218.146 52.6769C218.582 53.2317 218.8 53.939 218.8 54.7988C218.8 55.6726 218.582 56.4562 218.146 57.1496C217.723 57.8431 217.103 58.3909 216.286 58.7931C215.482 59.1953 214.528 59.3964 213.424 59.3964Z" fill="#989EA8"/>
</svg>
